<svg xmlns="http://www.w3.org/2000/svg" viewBox="0 0 403.58 578.58">
  <defs>
    <style>
      .cls-1, .cls-5 {
        fill: #795e36;
      }

      .cls-1, .cls-2, .cls-3 {
        stroke: #795e36;
        stroke-width: 0.25px;
      }

      .cls-1, .cls-2, .cls-3, .cls-5, .cls-6 {
        stroke-miterlimit: 10;
      }

      .cls-1, .cls-2, .cls-3, .cls-5 {
        fill-rule: evenodd;
      }

      .cls-2 {
        fill: #42362a;
      }

      .cls-3, .cls-6 {
        fill: none;
      }

      .cls-4 {
        fill: #fff;
      }

      .cls-5 {
        stroke: #957a50;
      }

      .cls-5, .cls-6 {
        stroke-width: 1.5px;
      }

      .cls-6 {
        stroke: #967a50;
      }
    </style>
  </defs>
  <title>-1 этаж_2</title>
  <g id="Section">
    <path id="G2" class="cls-1" d="M81.68,164.66V291.94c0,.4-.14,1,.15,1.19s.75,0,1,0H242.71c.81,0,1.07.25,1.07-.6v-24c0-.26-.11-1,.07-1.09s.69,0,.84,0h152.6c.48,0,.5-.11.62.21a7,7,0,0,1,0,2.09V525.57c0,.39.21,1.51,0,1.86s-1.28.12-1.67.12H320.17c-.33,0-1.28-.18-1.58,0s-.13.3-.13.64v41.87c0,.52.28,2.61-.13,2.85s-1.63,0-2.08,0H91.87a7.06,7.06,0,0,1-2.2,0c-.44-.22-.17-2-.17-2.5V528.35c0-.27.09-.68-.09-.8s-1.4,0-1.72,0H27.55a8.51,8.51,0,0,1-2.14,0c-.05,0-.22,0-.26,0s0-1.15,0-1.34V516a6.39,6.39,0,0,0,0-2c-.14-.3-.39-.18-.83-.18H17.89c-.29,0-.38,0-.49-.1-.25-.36,0-1.8,0-2.22v-43c0-.27-.19-1.51,0-1.73s.69.12.82,0,.05-.72.05-.93c0-.42.2-1.86-.08-2.08s-1.53,0-1.85,0H6.51c-.3,0-.71.1-.84-.09s0-1.3,0-1.6V166.35c0-.31-.18-1.33,0-1.6s1.4-.09,1.78-.09H81.68Z"/>
    <path id="G3" class="cls-1" d="M397.91,267.44H245.23c-.22,0-1.25.15-1.42,0s0-.78,0-1V141.37c0-.68.16-.75-.56-.75H226.74a5.26,5.26,0,0,1-1.19,0c-.2-.06-.19,0-.28-.08s0-.93,0-1.14V127H395.47a13.38,13.38,0,0,1,2.1,0c.41.08.22-.09.34.22a7.31,7.31,0,0,1,0,2.14V267.44Z"/>
    <path class="cls-2" d="M222.45,5.67H186.12c-.79,0-.94-.21-.94.52V138a20.05,20.05,0,0,0,0,2.9c0,.06,0,.31,0,.36s1.23,0,1.43,0h35c.13,0,.77.08.87,0s0-1.5,0-1.77V5.67Z"/>
    <path class="cls-2" d="M84.52,290.29H240.15c.62,0,.7.18.79-.34a22.15,22.15,0,0,0,0-3.82V145a4.72,4.72,0,0,0,0-1.3c-.11-.36.06-.26-.52-.26H227c-.29,0-1.46-.18-1.69,0s0,.48-.12.59-1,0-1.21,0H122.24c-.18,0-1,.12-1.12,0s0-.28,0-.39c-.13-1.37,0-2.82,0-4.19V10.35c0-.25.13-.95,0-1.16s-1.44-.12-1.86-.12H109.14c-.1,0-.41-.05-.47,0s0,.39,0,.46c0,2.61,0,5.22,0,7.84V270.6c0,.32.11.95-.11,1.09s-1.06,0-1.33,0H97.39c-4.13,0-8.28-.11-12.41,0-.17,0-.38,0-.46.06s0,1.16,0,1.39v17.15Z"/>
    <path class="cls-3" d="M146.37,245.88h45.31c.22,0,1.33.16,1.51,0s0-.88,0-1V200.42a11.23,11.23,0,0,0,0-2.39c-.1-.4.09-.24-.36-.31a17.52,17.52,0,0,0-2.51,0H154c-2.38,0-4.77-.07-7.16,0-.45,0-.34-.08-.45.23a7.58,7.58,0,0,0,0,2.18v45.75Z"/>
    <path class="cls-3" d="M123.92,93.22H178a30.32,30.32,0,0,0,3.93,0c.5-.07.37,0,.37-.61v-80c0-1,.1-2.08,0-3.09-.05-.53,0-.4-.63-.4h-56c-.27,0-1.61-.18-1.79,0s0,1.71,0,2V93.22Z"/>
    <path class="cls-3" d="M123.92,141.21h57.54c.13,0,.76.09.86,0s0-1.26,0-1.51V126.18c0-.42.09-.41-.17-.54a4.09,4.09,0,0,0-1.26,0H125.63a6.13,6.13,0,0,0-1.42,0c-.38.1-.18-.12-.29.27a5.14,5.14,0,0,0,0,1.24v14.06Z"/>
    <path class="cls-3" d="M182.34,122.81H124.86c-.13,0-.84.1-.94,0s0-1.34,0-1.56V104.92c0-2.79-.19-5.65,0-8.44,0-.47-.09-.31.23-.43a5.93,5.93,0,0,1,1.63,0H180.4a6.83,6.83,0,0,1,1.69,0c.35.12.21-.07.25.4a29.14,29.14,0,0,1,0,3.1v23.26Z"/>
    <path class="cls-3" d="M105.83,164.66H85.91c-.68,0-.88-.22-1,.31a10,10,0,0,0,0,2.12v98.8a7.37,7.37,0,0,0,0,2c0,.05,0,.21,0,.24s1.14,0,1.3,0h18.71c.15,0,.83.1.92,0s0-1,0-1.13V164.66Z"/>
    <path class="cls-3" d="M5.67,161.82H103a11.35,11.35,0,0,0,2.54,0c.48-.12.28-.36.28-1V120.78c0-.65.17-.68-.37-.75a22.28,22.28,0,0,0-2.71,0H6.87c-.2,0-1.07-.12-1.2,0s0,.88,0,1v40.75Z"/>
    <path class="cls-3" d="M105.83,117.19h-92c-2.56,0-5.17.14-7.74,0-.55,0-.43,0-.43-.62V77.23c0-.65-.17-.69.36-.77a20.12,20.12,0,0,1,2.69,0h95.64c.21,0,1.31-.15,1.47,0s0,.58,0,.69v40Z"/>
    <path class="cls-3" d="M5.67,73.63h99.21c.16,0,.74.1.88,0s.08-1.41.08-1.76V6.35c0-.67.12-.68-.53-.68H6.59c-.56,0-.79-.18-.92.28a6.7,6.7,0,0,0,0,1.55V73.63Z"/>
  </g>
  <g id="LOGO">
    <g id="L_G2">
      <path class="cls-4" d="M256.44,431a7.05,7.05,0,0,1-1.8-2.26,6.8,6.8,0,0,1-.83-3.87c0-3.35.89-5.13,3.09-6.13,3.18-1.46,7.05.28,7.36,3.32.09.83,0,.86-1.09,1s-1.2,0-1.63-1a2.21,2.21,0,0,0-3.32-1.29c-1.2.6-1.69,1.8-1.69,4.09,0,2.47.49,3.78,1.69,4.41.92.49,1.14.52,1.95.18a3.14,3.14,0,0,0,1.74-2.44c0-.34.2-.4.81-.26,1.77.4,1.74.38,1.46,1.32a6.2,6.2,0,0,1-2.29,3.21A6.69,6.69,0,0,1,256.44,431Z"/>
      <path class="cls-4" d="M265.64,430.45c0-1,.06-1.14.57-1,1.09.34,2.69-1.18,2-2-.38-.43-4-8.48-4-8.85,0-.11.54-.2,1.23-.14l1.2.08,1.63,3.3a12,12,0,0,0,1.67,2.86,22.43,22.43,0,0,1,1.17-3.35l1.17-2.95h1.12c1.09,0,1.12,0,1,.8s-1.66,4.41-3.18,7.79c-.46,1-1,2.27-1.21,2.78a2.87,2.87,0,0,1-3,1.81h-1.29Z"/>
      <path class="cls-4" d="M275.38,425v-6.59h9.45v13.18h-2.29V420.46H278v11.17h-2.58Z"/>
      <path class="cls-4" d="M287.12,425v-6.59h8.6v2h-6v3.15h5.19l-.09,1.09-.09,1.06-2.49.08-2.52.09v3.41H296v2.29h-8.88Z"/>
      <path class="cls-4" d="M297.44,425v-6.59h3c3.75,0,5.16.37,5.87,1.55a5,5,0,0,1-.11,4.78c-.86,1.29-1.89,1.75-4.27,1.92l-1.95.14v4.79h-2.57Zm6.41-1.4a1.91,1.91,0,0,0,.4-1.49c-.11-1.18-1-1.69-2.86-1.69H300v3.72h1.66C303,424.18,303.48,424.06,303.85,423.64Z"/>
      <path class="cls-4" d="M308.32,425v-6.59h3.09l.78,2.23c1.52,4.36,2.29,6.36,2.43,6.36a54.52,54.52,0,0,0,2.72-7.07l.46-1.52h3.41v13.18h-2.55l-.08-4.33-.09-4.32-1.43,4.24-1.46,4.26-1,.09c-1,.09-1.06.06-1.41-1.15-.17-.68-.89-2.63-1.57-4.38l-1.24-3.15,0,4.38v4.36h-2Z"/>
      <path class="cls-4" d="M322.07,431.14c0-.26.86-3.06,1.92-6.22s1.95-5.93,2-6.1.57-.37,1.46-.37h1.37l.66,2.23c.37,1.21,1.29,4.07,2.06,6.36s1.41,4.27,1.41,4.39-.61.2-1.32.14l-1.32-.09-.57-1.77-.55-1.81h-3.63l-.63,1.87-.63,1.86h-1.12C322.33,431.63,322.07,431.51,322.07,431.14Zm6.3-5.44a12.54,12.54,0,0,0-1.14-3.24,12.52,12.52,0,0,0-1.15,3.24c0,.11.52.2,1.15.2S328.37,425.81,328.37,425.7Z"/>
      <path class="cls-4" d="M333.82,425v-6.59h2.89c5,0,6.27.83,6.27,3.92,0,2.93-1.2,4-4.72,4.3l-2.15.17v4.79h-2.29Zm5.95-1.32a1.64,1.64,0,0,0-.11-2.66,3.2,3.2,0,0,0-2.15-.6h-1.4v3.72h1.52A4.15,4.15,0,0,0,339.77,423.72Z"/>
      <path class="cls-4" d="M343.47,431.43a54.93,54.93,0,0,1-.2-6.59v-6.39h2.58v5.16h.94c1.46,0,2.12-.66,2.52-2.47s1-2.58,2.29-2.83c1.06-.23,1.41,0,1.41.94a1,1,0,0,1-.63,1.06c-.49.23-.72.63-.83,1.61a7.81,7.81,0,0,1-.55,2c-.25.49-.25.72.09,1.09a4.29,4.29,0,0,1,.63,1.63c.29,1.69.92,3,1.4,3s.46.29.46,1c0,1,0,1-1.29,1-1.52,0-1.89-.43-2.55-2.95-.57-2.24-1.09-2.78-2.66-2.78h-1.23v5.73h-1.09A2.84,2.84,0,0,1,343.47,431.43Z"/>
      <path class="cls-4" d="M355,425v-6.59h18.05v2h-3.44v11.17h-2.29V420.46h-10v3.15h5.15v2.29h-5.15v3.44h6.58v2.29H355Z"/>
      <path class="cls-4" d="M58,427.36c-2.72-.43-6-2.87-7.53-5.62A12.2,12.2,0,0,1,50.16,410c1-2,1.64-2.81,5.85-7.08a46.21,46.21,0,0,1,5.13-4.81,54.3,54.3,0,0,1,5.44,5c3.69,3.64,5.18,5.3,5.67,6.36,3.18,6.73.92,14-5.27,17.07a9.23,9.23,0,0,1-4.58,1A33.06,33.06,0,0,1,58,427.36Zm6.22-6.05a9,9,0,0,0,3.41-3.52,7.93,7.93,0,0,0-.23-5c-.58-1.09-5.7-6.65-6.16-6.65a46.49,46.49,0,0,0-5.7,5.88c-.55.74-.63,1.23-.63,3.69v2.81l1.52,1.4C58.9,422.15,61.68,422.63,64.26,421.31Z"/>
      <path class="cls-4" d="M156.24,418.82c-1.23-.23-2-1-2.81-2.6l-.8-1.64-.09-13.6c0-7.48,0-13.9.09-14.27.37-1.49,1.06-1.78,4.18-1.78,2.64,0,2.9.06,3,.58a1.88,1.88,0,0,0,.2.57s.74-.26,1.6-.6a15.4,15.4,0,0,1,7.37-.57,9.22,9.22,0,0,1,5.12,4c1.69,2.77,2.27,7.84,1.41,13-.63,3.81-2.61,6.67-5.56,8-1.75.78-7.31.86-9,.12l-1.09-.46-.05,4.64-.09,4.64-1.43,0A10.78,10.78,0,0,1,156.24,418.82Zm9.83-14.21c1.17-.8,1.74-3.12,1.71-7.21,0-3.21-.08-3.9-.63-5a3.4,3.4,0,0,0-3.23-2.34,3.86,3.86,0,0,0-3.38,2.46c-.52,1.06-.61,1.77-.61,4.9,0,4.24.32,5.64,1.64,6.93S164.38,405.7,166.07,404.61Z"/>
      <path class="cls-4" d="M232.55,418.82c-.86-.2-2.43-1.8-3-3.09-.49-1.06-.55-2.12-.55-15.27V386.34l.72-.69c.63-.66.89-.72,3.58-.72s2.86,0,2.86.69v.69l1.81-.75a13.72,13.72,0,0,1,8-.51,5.91,5.91,0,0,1,3,1.92,10.4,10.4,0,0,1,3.12,5.53,24.36,24.36,0,0,1,0,9.88c-.92,3.47-3.15,6.45-5.64,7.59-1.72.77-7.28.83-9,.09-.6-.26-1.15-.49-1.2-.49s-.12,2.12-.12,4.73V419l-1.49,0A12.79,12.79,0,0,1,232.55,418.82Zm9.37-13.89a5.54,5.54,0,0,0,1.26-1.23c.63-.83.83-1.52,1.06-3.61.34-3.24-.06-7.13-.86-8.22-1.83-2.47-4.35-2.5-6.16,0-.77,1.06-1.17,3.78-1,7s.49,4.21,1.43,5.27A3.35,3.35,0,0,0,241.92,404.93Z"/>
      <path class="cls-4" d="M341.55,413.87a2.29,2.29,0,0,1-.57-1.44c0-.77-.09-.85-.83-.85a1.47,1.47,0,0,1-1.26-.61c-.41-.54-.75-.57-4.53-.63-4,0-4.15-.08-5.9-1-4.53-2.35-7.31-8.39-6.42-13.89a13.16,13.16,0,0,1,6.88-9.74c1.83-.89,2-.92,5.47-.92s3.64,0,5.47.92a13.32,13.32,0,0,1,7,13,15.87,15.87,0,0,1-2,6.44c-.37.57-.57,1.09-.43,1.18a1.22,1.22,0,0,1,.29.94c0,.66.12.77.92.8a1.67,1.67,0,0,1,1.66,1.87,1.61,1.61,0,0,1-1.75,1.69c-.74,0-.83.08-.83.85a2,2,0,0,1-1.86,2A2.16,2.16,0,0,1,341.55,413.87Zm1.66-1.92c-.46-.43-.51-.43-.69,0a2,2,0,0,0,0,1c.18.43.23.43.69,0S343.64,412.41,343.21,412Zm-2.35-1.84a.52.52,0,0,0-.08-.57.79.79,0,0,0-1.24.49C339.54,410.49,340.58,410.57,340.86,410.11Zm5.27-.11a.74.74,0,0,0-.46-.63c-.51-.2-1.11.31-.85.74S346.13,410.49,346.13,410Zm-10.74-4.73c.69,0,2.21-1.51,2.75-2.72.72-1.54.77-7.9.09-9.54-1.26-3.06-4.41-4-6.36-2-1.35,1.43-1.78,3-1.78,6.67,0,3.21.06,3.55.8,5a4.13,4.13,0,0,0,2.07,2.21,3.65,3.65,0,0,0,1.66.49A2.49,2.49,0,0,1,335.39,405.27Z"/>
      <path class="cls-4" d="M136,410.43c-5.91-.63-10.17-5.93-10.17-12.6s3.83-11.81,9.39-12.9a20.17,20.17,0,0,1,8.17.43,11.64,11.64,0,0,1,3.52,2.55c1.95,1.84,2.23,2.24,2.89,4.19a20.73,20.73,0,0,1,.86,4.41c.15,2,.09,2.32-.37,2.66s-2.29.37-8.48.37h-8v.66a7.86,7.86,0,0,0,2.43,4.39,3.47,3.47,0,0,0,2.55.8,4.23,4.23,0,0,0,3.9-2.27l.63-1h3.55c4,0,3.9-.06,3.06,2.06a9.55,9.55,0,0,1-3.86,4.56C143.69,410.29,140.26,410.89,136,410.43Zm6.84-16.53a5.19,5.19,0,0,0-3.09-3.81c-2.18-.8-5.1,1.12-5.76,3.81l-.2.77H143Z"/>
      <path class="cls-4" d="M264.06,410.43a12.53,12.53,0,0,1-6-2.49A16.15,16.15,0,0,1,254.7,403a18.34,18.34,0,0,1-.26-9.74,13.1,13.1,0,0,1,6.9-7.82c1.09-.52,1.83-.63,5-.63,3.53,0,3.81,0,5.53.8a11.59,11.59,0,0,1,3.61,2.75c2.21,2.35,2.9,4,3.18,7.62.32,3.81.92,3.55-8.76,3.55h-8v.81a5.92,5.92,0,0,0,.55,1.92c1.72,3.72,6,4.26,8.13,1l.78-1.18h3.43c3.84,0,4,.09,3.47,1.81-.72,2.15-4.3,5.38-6.7,6A22.48,22.48,0,0,1,264.06,410.43Zm6.73-16.3a5.64,5.64,0,0,0-1.91-3.49,3.88,3.88,0,0,0-3.93-.32c-1.43.66-3,2.58-3,3.7v.65h4.44C270.51,394.67,270.79,394.65,270.79,394.13Z"/>
      <path class="cls-4" d="M103.22,410a6.79,6.79,0,0,1-3.24-3.12c-.6-1.12-.63-1.46-.72-13.81-.08-13.83-.05-14.09,1.55-14.69.43-.18,5.24-.29,11.29-.29,9.94,0,10.57,0,11.2.54l.68.55v31.14h-1.6a5.55,5.55,0,0,1-4.73-2.73c-1.06-1.57-1.26-4.09-1.23-13.86,0-6.44,0-8-.34-8.22a23.1,23.1,0,0,0-4.44-.26c-3,0-4.13.09-4.38.37s-.35,4.16-.38,12.55l-.08,12.15-1.29,0A5.26,5.26,0,0,1,103.22,410Z"/>
      <path class="cls-4" d="M182.65,410a9.84,9.84,0,0,1-2-1,7.54,7.54,0,0,1-2.35-4.42v-.83l8.82.12c8.25.11,8.88.17,10.4.74,2.09.83,3.55,2.24,3.78,3.7.4,2.29,1.23,2.09-8.59,2.06C186.29,410.4,183.54,410.29,182.65,410Z"/>
      <path class="cls-4" d="M205.8,410.06a4.17,4.17,0,0,1-1.29-1.15c-.58-.8-.6-1.09-.6-11.86V386l.68-.54c.61-.49,1.06-.55,3.73-.49l3,.09.09,4.84.06,4.84,1.26-.14a5.13,5.13,0,0,0,2-.69c.66-.49,2.07-3.24,3.73-7.33a3.31,3.31,0,0,1,1-1.35,15.44,15.44,0,0,1,3.78-.32c3.53,0,4,.26,3,1.69a54.76,54.76,0,0,0-3.61,7.6,3.93,3.93,0,0,1-.89,1.46l-.92,1,.84.91a13.46,13.46,0,0,1,1.54,2.21c.66,1.29,2.64,4.7,4.53,7.85,1.43,2.41,1.23,2.61-2.58,2.61-4.33,0-5-.55-7.91-5.88-1.71-3.2-3.23-4.81-4.72-5.07l-1.06-.17v5.3c0,3.73-.12,5.39-.35,5.62C210.7,410.54,206.68,410.52,205.8,410.06Z"/>
      <path class="cls-4" d="M288,410.17c-2.06-.63-5.15-2.81-5.15-3.64,0-.23-.12-.4-.26-.4-.46,0-1.78-3.09-2.24-5.24a15.6,15.6,0,0,1,2.12-11.57,9.61,9.61,0,0,1,4.62-3.76c1.48-.71,1.91-.77,5.07-.77s3.55.06,5.07.8c2.69,1.32,5.38,5.07,5.38,7.51v.71H296l-.63-1.34c-1.66-3.41-4.81-3.38-6.53.06-.63,1.28-.69,1.77-.71,5s.05,3.69.8,5.24c.89,1.81,1.83,2.49,3.41,2.49,1.23,0,2.06-.6,3-2.15l.74-1.28h3.24a13.48,13.48,0,0,1,3.41.22c.25.43-.92,3.16-2,4.62a9.69,9.69,0,0,1-4.84,3.43A31.08,31.08,0,0,1,288,410.17Z"/>
      <path class="cls-4" d="M312.62,410a7.06,7.06,0,0,1-3.24-3.12c-.57-1.06-.63-1.66-.77-8.59l-.15-7.45-2.14-.15a5.44,5.44,0,0,1-3.07-.8,7.83,7.83,0,0,1-2.64-3.15c-.77-1.86-1.28-1.78,12.15-1.78h12.18v.81c0,1.23-1.15,2.92-2.7,4a4.19,4.19,0,0,1-3.15.94A4.44,4.44,0,0,0,317,391c-.26.26-.34,2.8-.34,9.71,0,10.4.14,9.71-1.95,9.71A7.4,7.4,0,0,1,312.62,410Z"/>
      <path class="cls-4" d="M350.17,410.06a4.41,4.41,0,0,1-1.29-1.15c-.57-.77-.6-1.17-.68-11.17-.06-5.7,0-10.66.08-11a3,3,0,0,1,.78-1.23c.54-.49,1-.58,3.72-.58h3.09v9.83l1.32-.17c2-.23,2.58-.83,4.18-4.64a23,23,0,0,1,2.18-4.24c.74-.78.77-.8,4.07-.72,3.89.12,4,.2,2.46,2.61a20.2,20.2,0,0,0-1.6,3.35,13.58,13.58,0,0,1-2.52,4.93l-.75.8,1,1a18.27,18.27,0,0,1,2.35,3.7c.72,1.46,2,3.75,2.89,5.07,1.78,2.69,1.95,3.58.84,3.86a15.44,15.44,0,0,1-6.36-.57c-1.12-.57-3.18-3.29-4.5-5.93-1.58-3.09-3.18-4.55-5-4.55-.55,0-.58.17-.58,5.41,0,4.67-.05,5.44-.46,5.59A13.56,13.56,0,0,1,350.17,410.06Z"/>
      <path class="cls-4" d="M37.62,407.45a13.19,13.19,0,0,1-7.48-6.39c-.63-1.26-.69-1.75-.69-5.53s.06-4.26.69-5.52a16.64,16.64,0,0,1,2.29-3.16C36,383,41.66,382,46.87,384.36c2,.89,3.35,2.15,9.8,8.82L59,395.56l-2,1.92c-1.11,1.06-3.35,3.32-5,5-2.52,2.67-3.24,3.24-5.16,4.16s-2.41,1.06-5.21,1.12A12.26,12.26,0,0,1,37.62,407.45Zm7.13-6.16c.43-.31,2-1.75,3.47-3.18l2.69-2.58-2.72-2.63C44.32,389.15,44,389,41.43,389s-3.3.34-4.67,1.89A6.68,6.68,0,0,0,34.84,396c.26,2.55,2.29,5.33,4.27,5.84C40.68,402.27,43.8,402,44.75,401.29Z"/>
      <path class="cls-4" d="M77.58,407.45c-2.81-.94-4-1.86-8.8-6.76A52.25,52.25,0,0,1,64,395.45a9.25,9.25,0,0,1,1.78-2.06c1-.95,3.21-3.16,4.9-4.9,2.57-2.67,3.4-3.35,5.09-4.13a12.86,12.86,0,0,1,11.18,0,12.26,12.26,0,0,1,6.59,9.31,12.56,12.56,0,0,1-6.79,13c-1.78.86-2.27.95-5,1A13.72,13.72,0,0,1,77.58,407.45Zm6.76-5.93a8.08,8.08,0,0,0,3.41-6.07,7.77,7.77,0,0,0-3.67-6.05,9.12,9.12,0,0,0-5.59,0c-1,.46-6.5,5.62-6.5,6.08s5.9,6.07,6.73,6.24c.49.12,1,.26,1.15.32A12.81,12.81,0,0,0,84.34,401.52Z"/>
      <path class="cls-4" d="M182.82,400.58a5.93,5.93,0,0,1-3.81-3.1,7.25,7.25,0,0,1-.74-2.32v-.8l9,.09c8.94.08,8.94.08,10.52.83,2.52,1.17,3.64,2.6,3.69,4.78l0,.92h-8.79C186.2,401,183.57,400.86,182.82,400.58Z"/>
      <path class="cls-4" d="M56,388c-3.9-3.9-5.1-5.3-5.79-6.7a12.5,12.5,0,0,1,4.18-16.16c2-1.37,3.27-1.69,6.85-1.69,3.92,0,5.5.49,8,2.52,3.18,2.55,4.3,5,4.27,9.51,0,3-.17,3.73-1.66,6.85a27.8,27.8,0,0,1-3.3,3.58c-1.66,1.6-3.92,3.84-5,5a10.74,10.74,0,0,1-2.32,2C61.11,392.93,58.76,390.69,56,388Zm8.22-5.93c3.26-3.44,3.69-4.21,3.72-6.36a5.1,5.1,0,0,0-1.66-4.32,6.42,6.42,0,0,0-5.07-2.33,6.52,6.52,0,0,0-5.16,2.41L55,372.65v2.77c0,2,.11,2.95.43,3.38a58.18,58.18,0,0,0,5.93,6.13A24.83,24.83,0,0,0,64.26,382.07Z"/>
      <path class="cls-4" d="M182.62,391a7.94,7.94,0,0,1-2.4-1.35,6.74,6.74,0,0,1-1.95-3.92v-.8l9.11.08,9.08.09,1.66.8c2.06,1,3,2.26,3.27,4.18l.17,1.46h-8.71C185.17,391.49,184,391.44,182.62,391Z"/>
    </g>
    <g id="L_G3">
      <path class="cls-4" d="M289.62,202.08c-.41-.25-.46-.84-.46-6.43,0-4.48.08-6.26.31-6.48a3.1,3.1,0,0,1,2.69,0,4.25,4.25,0,0,1,.31,2v1.73h1.22a5.38,5.38,0,0,1,3.91,1.78,6.38,6.38,0,0,1,.61,3.91,5.12,5.12,0,0,1-2.67,3.13C294.42,202.23,290.2,202.46,289.62,202.08Zm4.8-3.35a2.12,2.12,0,0,0-.07-2.34,1.8,1.8,0,0,0-1.15-.41c-.73,0-.73,0-.73,1.47a5,5,0,0,0,.17,1.68C292.87,199.36,294,199.11,294.42,198.73Z"/>
      <path class="cls-4" d="M330.4,202a2.32,2.32,0,0,1-.3-1.32,2,2,0,0,1,.86-1.81c1.07-1,1.32-1.85,1.68-5.82.43-4.63,0-4.24,4.88-4.17l4.14.08v13h-2.79l-.08-5-.05-5h-2.8v.87a32.86,32.86,0,0,1-1.19,6.58,4.21,4.21,0,0,1-2.65,2.82C331,202.39,330.76,202.39,330.4,202Z"/>
      <path class="cls-4" d="M372.5,202.08c-.4-.25-.45-.86-.45-6.61v-6.36l.61-.15a5.58,5.58,0,0,1,1.45-.05l.86.08.08,2,.07,2h1.33c2.59,0,4.29,1.37,4.65,3.69a4.71,4.71,0,0,1-2.49,5C377.39,202.21,373.24,202.54,372.5,202.08Zm4.2-3.07c1.68-.89,1-3-.89-3-.69,0-.71,0-.71,1.5C375.1,199.23,375.5,199.62,376.7,199Z"/>
      <path class="cls-4" d="M260.35,201.9a8.42,8.42,0,0,1-.17-2.28v-2.11l-.69.17a6.6,6.6,0,0,1-4.32-.33c-1.5-1.14-1.73-1.68-1.83-4.83-.05-2.06,0-3,.23-3.28a3,3,0,0,1,2.74-.07,5.47,5.47,0,0,1,.31,2.41c0,2,.05,2.19.66,2.8a1.28,1.28,0,0,0,1.42.48c1.35-.28,1.48-.51,1.48-3.05a6.12,6.12,0,0,1,.3-2.64,3.12,3.12,0,0,1,2.7,0c.33.33.45,11.72.15,12.51-.13.3-.51.4-1.48.4A3.72,3.72,0,0,1,260.35,201.9Z"/>
      <path class="cls-4" d="M266.28,201.6a38.62,38.62,0,0,1-.26-6.13,38.62,38.62,0,0,1,.26-6.13c.25-.43.56-.48,3.76-.48,2.39,0,3.61.1,3.81.31a2.57,2.57,0,0,1,0,2.44,5.71,5.71,0,0,1-2.41.3h-2.11v2h1.91c2.08,0,2.41.22,2.41,1.7,0,1.12-.41,1.35-2.47,1.35h-1.85v2l2.29.1c2.44.08,2.79.26,2.79,1.43a3,3,0,0,1-.25,1.09c-.25.43-.59.48-3.94.48S266.53,202,266.28,201.6Z"/>
      <path class="cls-4" d="M280.19,201.9a35.71,35.71,0,0,1-.18-5.06v-4.9l-1.83-.08-1.86-.08-.08-1.24c-.05-.81,0-1.32.26-1.45.56-.36,10-.28,10.32.08a2.41,2.41,0,0,1,.31,1.37c0,1.24-.21,1.37-2.32,1.37h-1.5v4.68c0,2.57-.07,4.86-.15,5.09s-.51.4-1.47.4A3.65,3.65,0,0,1,280.19,201.9Z"/>
      <path class="cls-4" d="M299.51,201.9c-.33-.3-.2-12.4.13-12.73a2.44,2.44,0,0,1,1.39-.31c.82,0,1.15.13,1.35.48.36.66.36,11.6,0,12.26-.2.38-.53.48-1.5.48A3.14,3.14,0,0,1,299.51,201.9Z"/>
      <path class="cls-4" d="M305.33,201.7c-.08-.23-.15-3-.15-6.2,0-4.38.07-5.9.33-6.23s.66-.46,3.25-.36c3.31.1,4.48.51,5.29,1.83,2,3.26-.25,7-4.22,7h-1.32l-.08,2.11-.07,2.08-1.43.08C305.79,202.08,305.46,202,305.33,201.7Zm5.54-7.4a1.5,1.5,0,0,0-.07-2.13,4.11,4.11,0,0,0-1.4-.26h-.92v2.8h1A2.21,2.21,0,0,0,310.87,194.3Z"/>
      <path class="cls-4" d="M317.18,201.78c-.41-.41-.43-11.7-.05-12.44.25-.43.56-.48,3.76-.48,2.39,0,3.61.1,3.82.31a2.63,2.63,0,0,1,0,2.44,5.81,5.81,0,0,1-2.42.3h-2.11v2l2,.08c1.9.07,2,.1,2.21.78a2.23,2.23,0,0,1,0,1.4c-.23.66-.31.69-2.21.77l-2,.07v2l2.29.1c2.44.08,2.79.26,2.79,1.43a3,3,0,0,1-.25,1.09c-.25.43-.58.48-3.89.48C318.63,202.08,317.38,202,317.18,201.78Z"/>
      <path class="cls-4" d="M344,201.9a1,1,0,0,1-.18-.66c0-.56,4.45-11.51,4.91-12.05a2.43,2.43,0,0,1,1.45-.33,2.62,2.62,0,0,1,1.48.33c.58.71,4.9,11.54,4.83,12.13s-.21.63-1.43.71l-1.34.08-.56-1.27-.54-1.3h-5l-.53,1.27c-.53,1.27-.53,1.27-1.73,1.27A3.05,3.05,0,0,1,344,201.9Zm7-6.35c-.2-.54-.51-1.25-.64-1.6-.25-.64-.25-.64-.71.38-.94,2.18-.94,2.16.49,2.16h1.27Z"/>
      <path class="cls-4" d="M358.6,201.6c-.38-.66-.38-11.57,0-12.26.26-.45.59-.48,5.19-.48,3.86,0,5,.08,5.21.36s.28,2.18.23,6.53l-.08,6.2-1.37.08c-.94.05-1.45,0-1.58-.25a32.86,32.86,0,0,1-.23-5.09v-4.78h-4.32l-.05,5-.07,5-1.33.08C359.08,202.11,358.8,202,358.6,201.6Z"/>
      <path class="cls-4" d="M382.4,201.93a58.72,58.72,0,0,1-.18-6.48c0-6.92-.08-6.59,1.6-6.59,1.5,0,1.47-.13,1.4,6.76l-.08,6.33-1.27.08A3.48,3.48,0,0,1,382.4,201.93Z"/>
    </g>
  </g>
  <g id="Steny">
    <g>
      <path class="cls-5" d="M83.83,533.21v45.37h240.3V533.21h79.45v-412H228.12V0H179.5V3.4h-68V0H0V469.41H11.73v50.11h7.75v13.69ZM225.27,127l172.64-.15V527.55H318.46v45.36H89.5V527.55H25.15v-13.7H17.4v-47.1h.87v-3H5.67V164.66h76V293.13h162.1V140.62H225.27V127ZM108.67,9.07h12.41V144H225.27v-.59h15.67V290.29H84.52v-18.6h24.15V9.07ZM222.44,127v14.22H185.18V5.67h37.27V127Zm-98.52,14.22V125.64h58.42v15.57Zm0-132.14h58.42V93.22H123.92V9.07Zm58.42,113.74H123.92V96.05h58.42v26.76ZM105.83,9.22V73.63H5.67v-68H105.84V9.22Zm0,259.63H84.52V164.66h21.31V268.85Zm0-107H5.67V120H105.83v41.79Zm0-44.63H5.67V76.46H105.83v40.73Zm40.54,128.69V197.72H193.2v48.16Zm-2.84,2.83v-52.4l1.42-1.42h49.67l1.41,1.42v51l-1.41,1.41Zm0-1.41,1.42,1.41Z"/>
      <path class="cls-5" d="M83.83,533.21v45.37h240.3V533.21h79.45v-412H228.12V0H179.5V3.4h-68V0H0V469.41H11.73v50.11h7.75v13.69ZM225.27,127v13.63h18.51V293.13H81.68V164.66h-76V463.74h12.6v3H17.4v47.1h7.75v13.7H89.5v45.36h229V527.55h79.45V126.84L225.27,127ZM108.67,9.07V271.69H84.52v18.6H240.94V143.45H225.27V144H121.08V9.07ZM222.44,127v14.22H185.18V5.67h37.27V127Zm-98.52,14.22V125.64h58.42v15.57Zm0-132.14V93.22h58.42V9.07Zm58.42,113.74H123.92V96.05h58.42v26.76ZM105.83,9.22V73.63H5.67v-68H105.84V9.22Zm0,259.63H84.52V164.66h21.31V268.85Zm0-107H5.67V120H105.83v41.79Zm0-44.63H5.67V76.46H105.83v40.73Zm40.54,128.69H193.2V197.72H146.37v48.16Zm-2.84,2.83h51.09L196,247.3v-51l-1.41-1.42H145l-1.42,1.42v52.4Zm0-1.41,1.42,1.41"/>
    </g>
    <line class="cls-6" x1="397.91" y1="267.44" x2="243.78" y2="267.44"/>
  </g>
</svg>
