<svg xmlns="http://www.w3.org/2000/svg" viewBox="0 0 433.39 313.54">
  <defs>
    <style>
      .cls-1, .cls-3 {
        fill: #795e36;
        stroke-miterlimit: 10;
        fill-rule: evenodd;
      }

      .cls-1 {
        stroke: #795e36;
        stroke-width: 0.25px;
      }

      .cls-2 {
        fill: #fff;
      }

      .cls-3 {
        stroke: #957a50;
        stroke-width: 2px;
      }
    </style>
  </defs>
  <title>-1 этаж</title>
  <g id="Section">
    <path id="G1" class="cls-1" d="M5.67,307.87V220.51a5,5,0,0,1,0-1.54c.2-.41,1.51-.17,2-.17H14.6c.37,0,.79.12.93-.13a2.69,2.69,0,0,0,0-.85V211a3.23,3.23,0,0,1,0-1c.27-.47,2.55-.17,3.16-.17H28.78c.17,0,1-.12,1.16,0s0,1.54,0,1.79v6.69c0,.5-.09.41.25.52a7,7,0,0,0,1.94,0H45.26c.13,0,.7.08.77,0s0-1.22,0-1.43V159.51c0-.3-.05-.39.12-.49s1.17,0,1.48,0h83a12.43,12.43,0,0,0,1.93,0c.41-.07.23.1.34-.23a9.39,9.39,0,0,0,0-2.7v-5.25q0-14.18,0-28.35V116c0-.15-.09-.69,0-.83.26-.35,2.33-.09,2.81-.09H209c.52,0,2.25.25,2.46-.17a6.34,6.34,0,0,0,0-2V54.09c0-.42-.09-.44.19-.56a3.42,3.42,0,0,1,1.06,0h36.5a3.3,3.3,0,0,1,1,0c.3.13.21.1.21.56v58.73a6.6,6.6,0,0,0,0,2.08c.12.25.16.17.55.17h52.23c.17,0,1.08.12,1.2,0s0-1.66,0-2V75.45c0-.3-.21-1.72,0-2,.07-.07.58,0,.69,0H321c.3,0,1.24-.17,1.49,0s0,0,.1.23a3.49,3.49,0,0,1,0,1.07V114c0,.27-.1,1,.08,1.08s.65,0,.8,0h41.67a3.09,3.09,0,0,0,1,0c.3-.13.21,0,.21-.54v-1.66a2.35,2.35,0,0,0,0-.53c-.09-.09-.44.08-.53,0s0-.64,0-.74V8c0-.35-.23-2.14,0-2.37s1.29,0,1.53,0h59.18c.16,0,1.06-.12,1.18,0s0,.87,0,1V305.44a11.44,11.44,0,0,1,0,2.11c-.07.34.07.21-.15.32a4.14,4.14,0,0,1-1.36,0H5.67Z"/>
  </g>
  <g id="LOGO">
    <g id="L_G1">
      <path class="cls-2" d="M117.23,237.43c-3.07-1.53-6.56-5.39-7.54-8.33a25.25,25.25,0,0,1-.43-6.62c.18-3.8.49-4.91,2-7.17a24.39,24.39,0,0,1,4.54-4.48c2.27-1.59,3.25-1.84,7.42-2.08s5.33.06,7.66,1.16c11,5.33,11.16,22.19.12,27.52C127.34,239.21,120.85,239.21,117.23,237.43Zm12-8.15c2.09-2,2.27-2.33,2.27-5.58s-.18-3.61-2.27-5.57c-2-1.72-2.75-2.09-5.14-2.09s-3.13.31-5.22,2.39-2.39,2.7-2.39,5.27.31,3.19,2.39,5.28,2.7,2.39,5.22,2.39S127.28,231,129.24,229.28Z"/>
      <path class="cls-2" d="M154.32,238.35c-.25-.24-.43-7-.43-15.08V208.69h8.21a75.5,75.5,0,0,1,9.2.36c.73.31,1,1.23,1,3.68V216H160.63v4.29h8.64l-.18,3.25-.19,3.19-4.1.18-4.11.19-.18,5.64-.19,5.64-2.76.18A7,7,0,0,1,154.32,238.35Z"/>
      <path class="cls-2" d="M187.17,238.29c-.61-.18-.8-3.8-.8-14.89V208.75l9.08.12,9,.12.18,3.56.19,3.49h-11.1v4.29h8v6.75h-8v5.45c0,4.41-.18,5.52-1,5.82A11.46,11.46,0,0,1,187.17,238.29Z"/>
      <path class="cls-2" d="M218.86,224.44c0-11.95.19-14.53.92-15.14,1.47-1.23,14.84-.61,17.17.8a9.46,9.46,0,0,1,3.67,12.13c-1.59,3.44-4.23,4.85-9.8,5.27l-4.54.37-.18,5.27-.19,5.28-3.49.18-3.56.18ZM233,219.72c2.82-1.53.55-3.68-4-3.68-2.82,0-2.82,0-2.82,2.15s0,2.14,2.82,2.14A12.18,12.18,0,0,0,233,219.72Z"/>
      <path class="cls-2" d="M255.64,224V209.3l1.53-.37a73,73,0,0,1,9-.12c8.45.24,10.72,1,12.75,4.35a11.18,11.18,0,0,1,0,10.05,8.23,8.23,0,0,1-6.26,3.87c-1.16,0-.55.79,3.44,4.84,5.82,5.88,5.88,6.8.3,6.8h-3.74L267.84,234,263,229.34v9.38h-7.36Zm16-4.29c1.41-.8,1.53-2.82.19-3.31a25.54,25.54,0,0,0-4.91-.37H263v4.29h3.74A16.56,16.56,0,0,0,271.64,219.72Z"/>
      <path class="cls-2" d="M295.12,237.93c-.12-.43-.19-7.12-.12-14.84l.18-14.1,2.64-.18c4.47-.31,4.41-.43,4.41,14.83,0,9.75-.18,13.79-.74,14.35C300.51,239,295.55,239,295.12,237.93Z"/>
      <path class="cls-2" d="M328,238.17a14.3,14.3,0,0,1-11.64-14.47c0-8.27,5.64-14.16,13.91-14.52l3.56-.19.18,3.43.19,3.44-3.19.43c-9.75,1.28-9.69,13.54.06,14.83l3.06.43v3.19C334.1,238.84,333.37,239.21,328,238.17Z"/>
      <path class="cls-2" d="M348.2,223.77v-15l9.08.12,9,.12.18,3.56.18,3.49H355.56v4.29h8V224c0,2-.19,3.62-.43,3.62s-2.09-.06-4,0c-3.49.06-3.55.06-3.55,1.9v1.84h11v7.35H348.2Z"/>
    </g>
  </g>
  <g id="Steny">
    <path class="cls-3" d="M0,313.54H433.39V0H360.13V109.4H328.28V67.81H298.79V109.4H256.15V47.86H205.81v61.57H127.27v43.92H40.37v59.78H35.61v-9H9.86v9H0V313.54Zm5.67-5.67V218.8h9.86v-9H29.94v9H46V159h86.9V115.1h78.55V53.53h39v61.54h54V73.48h18.15v41.59h43.72v-2.74h-.53V5.67h61.92v302.2Z"/>
  </g>
</svg>
