<svg xmlns="http://www.w3.org/2000/svg" viewBox="0 0 434.07 283.05">
  <defs>
    <style>
      .cls-1, .cls-4 {
        fill: #795e36;
      }

      .cls-1, .cls-2 {
        stroke: #795e36;
      }

      .cls-1, .cls-2, .cls-3, .cls-4, .cls-5 {
        stroke-miterlimit: 10;
      }

      .cls-1, .cls-2, .cls-3 {
        stroke-width: 0.25px;
      }

      .cls-1, .cls-2, .cls-3, .cls-4 {
        fill-rule: evenodd;
      }

      .cls-2 {
        fill: #42362a;
      }

      .cls-3 {
        fill: #884640;
        stroke: #997a4a;
      }

      .cls-4 {
        stroke: #957a50;
      }

      .cls-4, .cls-5 {
        stroke-width: 1.5px;
      }

      .cls-5 {
        fill: none;
        stroke: #967a50;
      }
    </style>
  </defs>
  <title>1 этаж</title>
  <g id="Section">
    <path id="A46" class="cls-1" d="M287.62,277.38H417.41c3.51,0,7,.06,10.52,0,.77,0,.47-.45.47-1.21V220.28c0-.81.25-1.06-.53-1.06H289.44c-.26,0-1.62-.2-1.82,0s0,1.1,0,1.27v56.89Z"/>
    <path id="A45" class="cls-1" d="M428.4,219.22H392.17c-.28,0-.74.09-.87-.1s0-1.36,0-1.69V160a8,8,0,0,1,0-2.07c.11-.35,0-.26.49-.26h35.77c.13,0,.66-.09.77,0s.07.47.07.7v60.89Z"/>
    <path id="A44" class="cls-1" d="M391.3,157.63h35c.34,0,1.74.22,2,0,.12-.1,0-.53,0-.71v-53a7.29,7.29,0,0,0,0-2c-.11-.34.05-.22-.42-.25-1-.07-2,0-3,0H392c-.32,0-.56-.09-.68.12s0,1.34,0,1.7v54.16Z"/>
    <path id="A42C" class="cls-1" d="M363.1,103.48H338.44c-.26,0-.59-.07-.71.09s0,1,0,1.28v49.67a5,5,0,0,0,0,1.5c.12.27,0,.16.42.19,1,.08,2,0,2.93,0h20c.32,0,1.71.22,2,0,.09-.08,0-.4,0-.56V103.48Z"/>
    <path id="A42A" class="cls-1" d="M308.2,156.21H289.31c-.27,0-1.58.2-1.8,0s0-2,0-2.29V108.77a4,4,0,0,1,0-1.3c.23-.48,2.58-.17,3.16-.17h17c.29,0,.46-.06.57.11s0,.94,0,1.18v47.62Z"/>
    <path id="A42B" class="cls-1" d="M308.2,107.3h17.53c.11,0,.66.08.75,0s0-1.37,0-1.61-.22-2,0-2.19.67,0,.82,0c3.31,0,6.63,0,9.95,0,.55,0,.42-.06.47.39a17.57,17.57,0,0,1,0,1.92V154.4a5.18,5.18,0,0,1,0,1.62c-.12.27,0,.17-.44.19-2.54.13-5.12,0-7.66,0H309.24c-.19,0-.93.1-1,0s0-1.05,0-1.25V107.3Z"/>
    <path id="A43" class="cls-1" d="M5.67,277.38V196.74c0-.2-.13-1,0-1.2s.66,0,.8,0h6.75c.24,0,1.33.15,1.49,0s0-.66,0-.76v-5.07c0-.57-.1-.44.34-.53a10.28,10.28,0,0,1,2,0H30.24c.16,0,1-.11,1.09,0s0,1.82,0,2.12v3.48c0,.58-.15.65.27.78a8.22,8.22,0,0,0,2.16,0H43.85c.74,0,1,.26,1.06-.41.09-.9,0-1.85,0-2.75V144.41c0-.57-.14-.6.33-.69a9.73,9.73,0,0,1,1.79,0H63.47c.51,0,1.44.2,1.63-.19a3.42,3.42,0,0,0,0-1.06V108.85c0-.23-.16-1.38,0-1.55s1.56,0,1.82,0h176.8c.76,0,.69-.09.69.72v48c0,.88.09,1.83,0,2.71,0,.48.07.37-.43.4-3.06.18-6.18,0-9.23,0H208.39c-.27,0-1.73-.2-1.94,0-.06.06,0,.52,0,.6v116c0,.15.1.82,0,.93s-.94,0-1.15,0l-3.93,0-15,0-22.47.08-27.56.09-30,.09-30,.1-27.54.09-22.61.07L11,277.37Z"/>
    <path class="cls-2" d="M209.29,277.38h74.37c.16,0,1,.12,1.12,0s0-.81,0-.95V218.25c0-.33-.19-1.49,0-1.77s.12-.06.37-.1a32.33,32.33,0,0,1,4.51,0h98.12c.1,0,.61.07.68,0s0-1.48,0-1.72V46.38H364.61c-.15,0-.8.1-.91,0s0-1.09,0-1.31V9a19.24,19.24,0,0,0,0-2.94c-.07-.46,0-.36-.54-.36H328.49c-.38,0-1.94-.25-2.25,0-.13.11-.05.67-.05.87V54.12c0,2.24-.21,4.6,0,6.84.05.48-.1.31.31.41a13.86,13.86,0,0,0,2.88,0H365c.17,0,.66-.09.81,0s0,0,.1.25a6.74,6.74,0,0,1,0,1.85V76.33c0,.2.14,1.08,0,1.24s-1.88,0-2.23,0c-.64,0-.6.08-.6-.52v-12c0-.81.19-.91-.58-.91H328c-.25,0-1.61-.19-1.8,0s0,1.53,0,1.77V91.26c0,3-.12,6,0,8.94,0,.52-.05.45.5.45h34.42c.3,0,1.74.22,2,0s0-1.13,0-1.3v-6.6c0-.15-.09-.67,0-.79s.12,0,.37-.1a7.25,7.25,0,0,1,2.46,0s0,.26,0,.31a9.28,9.28,0,0,1,0,2v63.32c0,.25.16,1.27,0,1.47s-2.17.05-2.57.05h-78c-.11,0-.59.06-.66,0s0-1.35,0-1.59V110.16a16,16,0,0,0,0-2.5c-.08-.44.07-.33-.44-.36-2.91-.15-5.88,0-8.79,0H248.09c-.12,0-.66-.08-.76,0s-.07.6-.07.83v51.45a7.65,7.65,0,0,1,0,2.19c-.13.32-.15.21-.62.21h-36.5a2.61,2.61,0,0,0-.79,0c-.24.19-.06,1.57-.06,1.91V277.38Z"/>
  </g>
  <g id="LOGO">
    <path class="cls-3" d="M289,202.07H286.8a.27.27,0,0,0-.28.28V215.5a.3.3,0,0,0,.08.2.32.32,0,0,0,.2.08H289a.28.28,0,0,0,.2-.08.3.3,0,0,0,.08-.2V202.35a.32.32,0,0,0-.08-.2A.28.28,0,0,0,289,202.07Z"/>
    <path class="cls-3" d="M327.39,26.9h17.17a.28.28,0,0,0,.2-.08.25.25,0,0,0,.09-.2V24.71a.27.27,0,0,0-.09-.2.28.28,0,0,0-.2-.08H327.39a.28.28,0,0,0-.2.08.27.27,0,0,0-.09.2v1.91a.25.25,0,0,0,.09.2A.28.28,0,0,0,327.39,26.9Z"/>
    <path class="cls-3" d="M345.13,24.43h.35a.32.32,0,0,1,.2.08.3.3,0,0,1,.08.2V46.43a.28.28,0,0,1-.08.2.28.28,0,0,1-.2.09h-.35a.25.25,0,0,1-.2-.09.28.28,0,0,1-.08-.2V24.71a.3.3,0,0,1,.08-.2A.28.28,0,0,1,345.13,24.43Z"/>
    <path class="cls-3" d="M286.8,216.38h92.76a.32.32,0,0,0,.2-.08.3.3,0,0,0,.08-.2v0a.27.27,0,0,0-.28-.28H286.8a.27.27,0,0,0-.28.28v0a.3.3,0,0,0,.08.2A.32.32,0,0,0,286.8,216.38Z"/>
    <path class="cls-3" d="M286.8,186.43h92.76a.27.27,0,0,1,.28.28v0a.27.27,0,0,1-.28.28H286.8a.27.27,0,0,1-.28-.28v0a.27.27,0,0,1,.28-.28Z"/>
    <path class="cls-3" d="M327.39,26.9h17.17a.31.31,0,0,1,.29.29V29.1a.28.28,0,0,1-.09.2.28.28,0,0,1-.2.08H327.39a.28.28,0,0,1-.2-.08.28.28,0,0,1-.09-.2V27.19a.31.31,0,0,1,.29-.29Z"/>
    <path class="cls-3" d="M327.39,31.86h17.17a.28.28,0,0,1,.2.08.27.27,0,0,1,.09.2v1.91a.25.25,0,0,1-.09.2.28.28,0,0,1-.2.08H327.39a.28.28,0,0,1-.2-.08.25.25,0,0,1-.09-.2V32.14a.27.27,0,0,1,.09-.2A.28.28,0,0,1,327.39,31.86Z"/>
    <path class="cls-3" d="M327.39,31.86h17.17a.31.31,0,0,0,.29-.29V29.66a.28.28,0,0,0-.09-.2.28.28,0,0,0-.2-.08H327.39a.28.28,0,0,0-.2.08.28.28,0,0,0-.09.2v1.91a.31.31,0,0,0,.29.29Z"/>
    <path class="cls-3" d="M327.39,41.76h17.17a.31.31,0,0,1,.29.29V44a.28.28,0,0,1-.09.2.28.28,0,0,1-.2.08H327.39a.28.28,0,0,1-.2-.08.28.28,0,0,1-.09-.2V42.05a.31.31,0,0,1,.29-.29Z"/>
    <path class="cls-3" d="M327.39,41.76h17.17a.28.28,0,0,0,.2-.08.25.25,0,0,0,.09-.2V39.57a.27.27,0,0,0-.09-.2.28.28,0,0,0-.2-.08H327.39a.28.28,0,0,0-.2.08.27.27,0,0,0-.09.2v1.91a.25.25,0,0,0,.09.2A.28.28,0,0,0,327.39,41.76Z"/>
    <path class="cls-3" d="M327.39,36.81h17.17a.28.28,0,0,0,.2-.08.28.28,0,0,0,.09-.2V34.62a.31.31,0,0,0-.29-.29H327.39a.31.31,0,0,0-.29.29v1.91a.28.28,0,0,0,.09.2A.28.28,0,0,0,327.39,36.81Z"/>
    <path class="cls-3" d="M327.39,36.81h17.17a.28.28,0,0,1,.2.08.28.28,0,0,1,.09.2V39a.31.31,0,0,1-.29.29H327.39a.31.31,0,0,1-.29-.29V37.09a.28.28,0,0,1,.09-.2A.28.28,0,0,1,327.39,36.81Z"/>
    <path class="cls-3" d="M327.39,46.72h17.17a.31.31,0,0,0,.29-.29V44.52a.28.28,0,0,0-.09-.2.28.28,0,0,0-.2-.08H327.39a.28.28,0,0,0-.2.08.28.28,0,0,0-.09.2v1.91a.31.31,0,0,0,.29.29Z"/>
    <path class="cls-3" d="M289.55,202.07h2.18a.27.27,0,0,1,.28.28V215.5a.3.3,0,0,1-.08.2.32.32,0,0,1-.2.08h-2.18a.28.28,0,0,1-.2-.08.27.27,0,0,1-.09-.2V202.35a.28.28,0,0,1,.09-.2A.28.28,0,0,1,289.55,202.07Z"/>
    <path class="cls-3" d="M295,202.07h2.18a.27.27,0,0,1,.28.28V215.5a.3.3,0,0,1-.08.2.32.32,0,0,1-.2.08H295a.28.28,0,0,1-.2-.08.27.27,0,0,1-.09-.2V202.35a.28.28,0,0,1,.09-.2A.28.28,0,0,1,295,202.07Z"/>
    <path class="cls-3" d="M294.47,202.07h-2.18a.27.27,0,0,0-.28.28V215.5a.3.3,0,0,0,.08.2.32.32,0,0,0,.2.08h2.18a.28.28,0,0,0,.2-.08.3.3,0,0,0,.08-.2V202.35a.32.32,0,0,0-.08-.2A.28.28,0,0,0,294.47,202.07Z"/>
    <path class="cls-3" d="M306,202.07h2.17a.28.28,0,0,1,.2.08.28.28,0,0,1,.09.2V215.5a.27.27,0,0,1-.09.2.28.28,0,0,1-.2.08H306a.28.28,0,0,1-.2-.08.27.27,0,0,1-.09-.2V202.35a.28.28,0,0,1,.09-.2A.28.28,0,0,1,306,202.07Z"/>
    <path class="cls-3" d="M305.45,202.07h-2.18a.3.3,0,0,0-.2.08.32.32,0,0,0-.08.2V215.5a.27.27,0,0,0,.28.28h2.18a.27.27,0,0,0,.28-.28V202.35a.32.32,0,0,0-.08-.2A.3.3,0,0,0,305.45,202.07Z"/>
    <path class="cls-3" d="M300,202.07h-2.18a.27.27,0,0,0-.28.28V215.5a.3.3,0,0,0,.08.2.32.32,0,0,0,.2.08H300a.28.28,0,0,0,.2-.08.3.3,0,0,0,.08-.2V202.35a.32.32,0,0,0-.08-.2A.28.28,0,0,0,300,202.07Z"/>
    <path class="cls-3" d="M300.53,202.07h2.17a.32.32,0,0,1,.21.08.32.32,0,0,1,.08.2V215.5a.3.3,0,0,1-.08.2.32.32,0,0,1-.21.08h-2.17a.28.28,0,0,1-.2-.08.27.27,0,0,1-.09-.2V202.35a.28.28,0,0,1,.09-.2A.28.28,0,0,1,300.53,202.07Z"/>
    <path class="cls-3" d="M328,202.07h2.18a.28.28,0,0,1,.2.08.28.28,0,0,1,.09.2V215.5a.27.27,0,0,1-.09.2.28.28,0,0,1-.2.08H328a.32.32,0,0,1-.2-.08.3.3,0,0,1-.08-.2V202.35a.27.27,0,0,1,.28-.28Z"/>
    <path class="cls-3" d="M327.41,202.07h-2.18a.28.28,0,0,0-.2.08.32.32,0,0,0-.08.2V215.5a.3.3,0,0,0,.08.2.28.28,0,0,0,.2.08h2.18a.32.32,0,0,0,.2-.08.3.3,0,0,0,.08-.2V202.35a.27.27,0,0,0-.28-.28Z"/>
    <path class="cls-3" d="M321.92,202.07h-2.18a.28.28,0,0,0-.2.08.32.32,0,0,0-.08.2V215.5a.3.3,0,0,0,.08.2.28.28,0,0,0,.2.08h2.18a.27.27,0,0,0,.28-.28V202.35a.27.27,0,0,0-.28-.28Z"/>
    <path class="cls-3" d="M322.48,202.07h2.18a.28.28,0,0,1,.2.08.28.28,0,0,1,.09.2V215.5a.27.27,0,0,1-.09.2.28.28,0,0,1-.2.08h-2.18a.32.32,0,0,1-.2-.08.3.3,0,0,1-.08-.2V202.35a.27.27,0,0,1,.28-.28Z"/>
    <path class="cls-3" d="M310.94,202.07h-2.18a.3.3,0,0,0-.2.08.32.32,0,0,0-.08.2V215.5a.27.27,0,0,0,.28.28h2.18a.27.27,0,0,0,.28-.28V202.35a.32.32,0,0,0-.08-.2A.3.3,0,0,0,310.94,202.07Z"/>
    <path class="cls-3" d="M311.51,202.07h2.17a.28.28,0,0,1,.2.08.28.28,0,0,1,.09.2V215.5a.27.27,0,0,1-.09.2.28.28,0,0,1-.2.08h-2.17a.28.28,0,0,1-.2-.08.27.27,0,0,1-.09-.2V202.35a.28.28,0,0,1,.09-.2A.28.28,0,0,1,311.51,202.07Z"/>
    <path class="cls-3" d="M317,202.07h2.17a.28.28,0,0,1,.2.08.28.28,0,0,1,.09.2V215.5a.27.27,0,0,1-.09.2.28.28,0,0,1-.2.08H317a.32.32,0,0,1-.21-.08.3.3,0,0,1-.08-.2V202.35a.32.32,0,0,1,.08-.2A.32.32,0,0,1,317,202.07Z"/>
    <path class="cls-3" d="M316.43,202.07h-2.18a.3.3,0,0,0-.2.08.32.32,0,0,0-.08.2V215.5a.27.27,0,0,0,.28.28h2.18a.27.27,0,0,0,.28-.28V202.35a.32.32,0,0,0-.08-.2A.3.3,0,0,0,316.43,202.07Z"/>
    <path class="cls-3" d="M371.89,202.07h2.18a.27.27,0,0,1,.28.28V215.5a.3.3,0,0,1-.08.2.32.32,0,0,1-.2.08h-2.18a.28.28,0,0,1-.2-.08.3.3,0,0,1-.08-.2V202.35a.32.32,0,0,1,.08-.2A.28.28,0,0,1,371.89,202.07Z"/>
    <path class="cls-3" d="M371.32,202.07h-2.18a.27.27,0,0,0-.28.28V215.5a.3.3,0,0,0,.08.2.32.32,0,0,0,.2.08h2.18a.28.28,0,0,0,.2-.08.27.27,0,0,0,.09-.2V202.35a.28.28,0,0,0-.09-.2A.28.28,0,0,0,371.32,202.07Z"/>
    <path class="cls-3" d="M365.83,202.07h-2.18a.27.27,0,0,0-.28.28V215.5a.3.3,0,0,0,.08.2.32.32,0,0,0,.2.08h2.18a.28.28,0,0,0,.2-.08.27.27,0,0,0,.09-.2V202.35a.28.28,0,0,0-.09-.2A.28.28,0,0,0,365.83,202.07Z"/>
    <path class="cls-3" d="M366.4,202.07h2.18a.27.27,0,0,1,.28.28V215.5a.27.27,0,0,1-.28.28H366.4a.28.28,0,0,1-.2-.08.3.3,0,0,1-.08-.2V202.35a.32.32,0,0,1,.08-.2A.28.28,0,0,1,366.4,202.07Z"/>
    <path class="cls-3" d="M354.85,202.07h-2.17a.28.28,0,0,0-.2.08.28.28,0,0,0-.09.2V215.5a.27.27,0,0,0,.09.2.28.28,0,0,0,.2.08h2.17a.28.28,0,0,0,.2-.08.27.27,0,0,0,.09-.2V202.35a.28.28,0,0,0-.09-.2A.28.28,0,0,0,354.85,202.07Z"/>
    <path class="cls-3" d="M355.42,202.07h2.18a.3.3,0,0,1,.2.08.32.32,0,0,1,.08.2V215.5a.27.27,0,0,1-.28.28h-2.18a.27.27,0,0,1-.28-.28V202.35a.32.32,0,0,1,.08-.2A.3.3,0,0,1,355.42,202.07Z"/>
    <path class="cls-3" d="M360.91,202.07h2.18a.3.3,0,0,1,.2.08.32.32,0,0,1,.08.2V215.5a.27.27,0,0,1-.28.28h-2.18a.27.27,0,0,1-.28-.28V202.35a.32.32,0,0,1,.08-.2A.3.3,0,0,1,360.91,202.07Z"/>
    <path class="cls-3" d="M360.34,202.07h-2.17a.28.28,0,0,0-.2.08.28.28,0,0,0-.09.2V215.5a.27.27,0,0,0,.09.2.28.28,0,0,0,.2.08h2.17a.28.28,0,0,0,.2-.08.27.27,0,0,0,.09-.2V202.35a.28.28,0,0,0-.09-.2A.28.28,0,0,0,360.34,202.07Z"/>
    <path class="cls-3" d="M332.9,202.07h-2.18a.28.28,0,0,0-.2.08.32.32,0,0,0-.08.2V215.5a.3.3,0,0,0,.08.2.28.28,0,0,0,.2.08h2.18a.32.32,0,0,0,.2-.08.3.3,0,0,0,.08-.2V202.35a.27.27,0,0,0-.28-.28Z"/>
    <path class="cls-3" d="M333.46,202.07h2.18a.28.28,0,0,1,.2.08.32.32,0,0,1,.08.2V215.5a.3.3,0,0,1-.08.2.28.28,0,0,1-.2.08h-2.18a.32.32,0,0,1-.2-.08.3.3,0,0,1-.08-.2V202.35a.27.27,0,0,1,.28-.28Z"/>
    <path class="cls-3" d="M339,202.07h2.18a.28.28,0,0,1,.2.08.32.32,0,0,1,.08.2V215.5a.3.3,0,0,1-.08.2.28.28,0,0,1-.2.08H339a.32.32,0,0,1-.2-.08.3.3,0,0,1-.08-.2V202.35a.27.27,0,0,1,.28-.28Z"/>
    <path class="cls-3" d="M338.39,202.07h-2.18a.28.28,0,0,0-.2.08.28.28,0,0,0-.09.2V215.5a.27.27,0,0,0,.09.2.28.28,0,0,0,.2.08h2.18a.32.32,0,0,0,.2-.08.3.3,0,0,0,.08-.2V202.35a.27.27,0,0,0-.28-.28Z"/>
    <path class="cls-3" d="M349.93,202.07h2.18a.3.3,0,0,1,.2.08.32.32,0,0,1,.08.2V215.5a.27.27,0,0,1-.28.28h-2.18a.27.27,0,0,1-.28-.28V202.35a.32.32,0,0,1,.08-.2A.3.3,0,0,1,349.93,202.07Z"/>
    <path class="cls-3" d="M349.36,202.07h-2.17a.28.28,0,0,0-.2.08.28.28,0,0,0-.09.2V215.5a.27.27,0,0,0,.09.2.28.28,0,0,0,.2.08h2.17a.32.32,0,0,0,.21-.08.3.3,0,0,0,.08-.2V202.35a.28.28,0,0,0-.09-.2A.28.28,0,0,0,349.36,202.07Z"/>
    <path class="cls-3" d="M343.88,202.07H341.7a.28.28,0,0,0-.2.08.28.28,0,0,0-.09.2V215.5a.27.27,0,0,0,.09.2.28.28,0,0,0,.2.08h2.18a.32.32,0,0,0,.2-.08.3.3,0,0,0,.08-.2V202.35a.27.27,0,0,0-.28-.28Z"/>
    <path class="cls-3" d="M344.44,202.07h2.18a.28.28,0,0,1,.2.08.32.32,0,0,1,.08.2V215.5a.3.3,0,0,1-.08.2.28.28,0,0,1-.2.08h-2.18a.32.32,0,0,1-.2-.08.3.3,0,0,1-.08-.2V202.35a.32.32,0,0,1,.08-.2A.3.3,0,0,1,344.44,202.07Z"/>
    <path class="cls-3" d="M376.81,202.07h-2.18a.27.27,0,0,0-.28.28V215.5a.3.3,0,0,0,.08.2.32.32,0,0,0,.2.08h2.18a.28.28,0,0,0,.2-.08.27.27,0,0,0,.09-.2V202.35a.33.33,0,0,0-.09-.2A.28.28,0,0,0,376.81,202.07Z"/>
    <path class="cls-3" d="M377.38,202.07h2.18a.27.27,0,0,1,.28.28V215.5a.3.3,0,0,1-.08.2.32.32,0,0,1-.2.08h-2.18a.28.28,0,0,1-.2-.08.3.3,0,0,1-.08-.2V202.35a.27.27,0,0,1,.08-.2A.28.28,0,0,1,377.38,202.07Z"/>
    <path class="cls-3" d="M289,187H286.8a.27.27,0,0,0-.28.28v13.15a.27.27,0,0,0,.28.28H289a.28.28,0,0,0,.2-.08.32.32,0,0,0,.08-.2V187.31a.32.32,0,0,0-.08-.2A.28.28,0,0,0,289,187Z"/>
    <path class="cls-3" d="M289.55,187h2.18a.27.27,0,0,1,.28.28v13.15a.27.27,0,0,1-.28.28h-2.18a.28.28,0,0,1-.2-.08.28.28,0,0,1-.09-.2V187.31a.28.28,0,0,1,.09-.2A.28.28,0,0,1,289.55,187Z"/>
    <path class="cls-3" d="M295,187h2.18a.27.27,0,0,1,.28.28v13.15a.27.27,0,0,1-.28.28H295a.28.28,0,0,1-.2-.08.28.28,0,0,1-.09-.2V187.31a.28.28,0,0,1,.09-.2A.28.28,0,0,1,295,187Z"/>
    <path class="cls-3" d="M294.47,187h-2.18a.27.27,0,0,0-.28.28v13.15a.27.27,0,0,0,.28.28h2.18a.28.28,0,0,0,.2-.08.32.32,0,0,0,.08-.2V187.31a.32.32,0,0,0-.08-.2A.28.28,0,0,0,294.47,187Z"/>
    <path class="cls-3" d="M306,187h2.17a.28.28,0,0,1,.2.08.28.28,0,0,1,.09.2v13.15a.28.28,0,0,1-.09.2.28.28,0,0,1-.2.08H306a.28.28,0,0,1-.2-.08.28.28,0,0,1-.09-.2V187.31a.28.28,0,0,1,.09-.2A.28.28,0,0,1,306,187Z"/>
    <path class="cls-3" d="M305.45,187h-2.18a.3.3,0,0,0-.2.08.32.32,0,0,0-.08.2v13.15a.32.32,0,0,0,.08.2.3.3,0,0,0,.2.08h2.18a.3.3,0,0,0,.2-.08.32.32,0,0,0,.08-.2V187.31a.32.32,0,0,0-.08-.2A.3.3,0,0,0,305.45,187Z"/>
    <path class="cls-3" d="M300,187h-2.18a.27.27,0,0,0-.28.28v13.15a.27.27,0,0,0,.28.28H300a.28.28,0,0,0,.2-.08.32.32,0,0,0,.08-.2V187.31a.32.32,0,0,0-.08-.2A.28.28,0,0,0,300,187Z"/>
    <path class="cls-3" d="M300.53,187h2.17a.32.32,0,0,1,.21.08.32.32,0,0,1,.08.2v13.15a.32.32,0,0,1-.08.2.32.32,0,0,1-.21.08h-2.17a.28.28,0,0,1-.2-.08.28.28,0,0,1-.09-.2V187.31a.28.28,0,0,1,.09-.2A.28.28,0,0,1,300.53,187Z"/>
    <path class="cls-3" d="M328,187h2.18a.28.28,0,0,1,.2.08.28.28,0,0,1,.09.2v13.15a.28.28,0,0,1-.09.2.28.28,0,0,1-.2.08H328a.27.27,0,0,1-.28-.28V187.31A.27.27,0,0,1,328,187Z"/>
    <path class="cls-3" d="M327.41,187h-2.18a.28.28,0,0,0-.2.08.32.32,0,0,0-.08.2v13.15a.32.32,0,0,0,.08.2.28.28,0,0,0,.2.08h2.18a.27.27,0,0,0,.28-.28V187.31a.27.27,0,0,0-.28-.28Z"/>
    <path class="cls-3" d="M321.92,187h-2.18a.28.28,0,0,0-.2.08.32.32,0,0,0-.08.2v13.15a.32.32,0,0,0,.08.2.28.28,0,0,0,.2.08h2.18a.3.3,0,0,0,.2-.08.32.32,0,0,0,.08-.2V187.31a.27.27,0,0,0-.28-.28Z"/>
    <path class="cls-3" d="M322.48,187h2.18a.28.28,0,0,1,.2.08.28.28,0,0,1,.09.2v13.15a.28.28,0,0,1-.09.2.28.28,0,0,1-.2.08h-2.18a.27.27,0,0,1-.28-.28V187.31a.27.27,0,0,1,.28-.28Z"/>
    <path class="cls-3" d="M310.94,187h-2.18a.3.3,0,0,0-.2.08.32.32,0,0,0-.08.2v13.15a.32.32,0,0,0,.08.2.3.3,0,0,0,.2.08h2.18a.3.3,0,0,0,.2-.08.32.32,0,0,0,.08-.2V187.31a.32.32,0,0,0-.08-.2A.3.3,0,0,0,310.94,187Z"/>
    <path class="cls-3" d="M311.51,187h2.17a.28.28,0,0,1,.2.08.28.28,0,0,1,.09.2v13.15a.28.28,0,0,1-.09.2.28.28,0,0,1-.2.08h-2.17a.28.28,0,0,1-.2-.08.28.28,0,0,1-.09-.2V187.31a.28.28,0,0,1,.09-.2A.28.28,0,0,1,311.51,187Z"/>
    <path class="cls-3" d="M317,187h2.17a.28.28,0,0,1,.2.08.28.28,0,0,1,.09.2v13.15a.28.28,0,0,1-.09.2.28.28,0,0,1-.2.08H317a.32.32,0,0,1-.21-.08.32.32,0,0,1-.08-.2V187.31a.32.32,0,0,1,.08-.2A.32.32,0,0,1,317,187Z"/>
    <path class="cls-3" d="M316.43,187h-2.18a.3.3,0,0,0-.2.08.32.32,0,0,0-.08.2v13.15a.32.32,0,0,0,.08.2.3.3,0,0,0,.2.08h2.18a.3.3,0,0,0,.2-.08.32.32,0,0,0,.08-.2V187.31a.32.32,0,0,0-.08-.2A.3.3,0,0,0,316.43,187Z"/>
    <path class="cls-3" d="M371.89,187h2.18a.27.27,0,0,1,.28.28v13.15a.27.27,0,0,1-.28.28h-2.18a.28.28,0,0,1-.2-.08.32.32,0,0,1-.08-.2V187.31a.32.32,0,0,1,.08-.2A.28.28,0,0,1,371.89,187Z"/>
    <path class="cls-3" d="M371.32,187h-2.18a.27.27,0,0,0-.28.28v13.15a.27.27,0,0,0,.28.28h2.18a.28.28,0,0,0,.2-.08.28.28,0,0,0,.09-.2V187.31a.28.28,0,0,0-.09-.2A.28.28,0,0,0,371.32,187Z"/>
    <path class="cls-3" d="M365.83,187h-2.18a.27.27,0,0,0-.28.28v13.15a.27.27,0,0,0,.28.28h2.18a.28.28,0,0,0,.2-.08.28.28,0,0,0,.09-.2V187.31a.28.28,0,0,0-.09-.2A.28.28,0,0,0,365.83,187Z"/>
    <path class="cls-3" d="M366.4,187h2.18a.27.27,0,0,1,.28.28v13.15a.32.32,0,0,1-.08.2.3.3,0,0,1-.2.08H366.4a.28.28,0,0,1-.2-.08.32.32,0,0,1-.08-.2V187.31a.32.32,0,0,1,.08-.2A.28.28,0,0,1,366.4,187Z"/>
    <path class="cls-3" d="M354.85,187h-2.17a.28.28,0,0,0-.2.08.28.28,0,0,0-.09.2v13.15a.28.28,0,0,0,.09.2.28.28,0,0,0,.2.08h2.17a.28.28,0,0,0,.2-.08.28.28,0,0,0,.09-.2V187.31a.28.28,0,0,0-.09-.2A.28.28,0,0,0,354.85,187Z"/>
    <path class="cls-3" d="M355.42,187h2.18a.3.3,0,0,1,.2.08.32.32,0,0,1,.08.2v13.15a.32.32,0,0,1-.08.2.3.3,0,0,1-.2.08h-2.18a.3.3,0,0,1-.2-.08.32.32,0,0,1-.08-.2V187.31a.32.32,0,0,1,.08-.2A.3.3,0,0,1,355.42,187Z"/>
    <path class="cls-3" d="M360.91,187h2.18a.3.3,0,0,1,.2.08.32.32,0,0,1,.08.2v13.15a.32.32,0,0,1-.08.2.3.3,0,0,1-.2.08h-2.18a.3.3,0,0,1-.2-.08.32.32,0,0,1-.08-.2V187.31a.32.32,0,0,1,.08-.2A.3.3,0,0,1,360.91,187Z"/>
    <path class="cls-3" d="M360.34,187h-2.17a.28.28,0,0,0-.2.08.28.28,0,0,0-.09.2v13.15a.28.28,0,0,0,.09.2.28.28,0,0,0,.2.08h2.17a.28.28,0,0,0,.2-.08.28.28,0,0,0,.09-.2V187.31a.28.28,0,0,0-.09-.2A.28.28,0,0,0,360.34,187Z"/>
    <path class="cls-3" d="M332.9,187h-2.18a.28.28,0,0,0-.2.08.32.32,0,0,0-.08.2v13.15a.32.32,0,0,0,.08.2.28.28,0,0,0,.2.08h2.18a.27.27,0,0,0,.28-.28V187.31a.27.27,0,0,0-.28-.28Z"/>
    <path class="cls-3" d="M333.46,187h2.18a.28.28,0,0,1,.2.08.32.32,0,0,1,.08.2v13.15a.32.32,0,0,1-.08.2.28.28,0,0,1-.2.08h-2.18a.27.27,0,0,1-.28-.28V187.31a.27.27,0,0,1,.28-.28Z"/>
    <path class="cls-3" d="M339,187h2.18a.28.28,0,0,1,.2.08.32.32,0,0,1,.08.2v13.15a.32.32,0,0,1-.08.2.28.28,0,0,1-.2.08H339a.27.27,0,0,1-.28-.28V187.31A.27.27,0,0,1,339,187Z"/>
    <path class="cls-3" d="M338.39,187h-2.18a.28.28,0,0,0-.2.08.28.28,0,0,0-.09.2v13.15a.28.28,0,0,0,.09.2.28.28,0,0,0,.2.08h2.18a.27.27,0,0,0,.28-.28V187.31a.27.27,0,0,0-.28-.28Z"/>
    <path class="cls-3" d="M349.93,187h2.18a.3.3,0,0,1,.2.08.32.32,0,0,1,.08.2v13.15a.32.32,0,0,1-.08.2.3.3,0,0,1-.2.08h-2.18a.3.3,0,0,1-.2-.08.32.32,0,0,1-.08-.2V187.31a.32.32,0,0,1,.08-.2A.3.3,0,0,1,349.93,187Z"/>
    <path class="cls-3" d="M349.36,187h-2.17a.28.28,0,0,0-.2.08.28.28,0,0,0-.09.2v13.15a.28.28,0,0,0,.09.2.28.28,0,0,0,.2.08h2.17a.32.32,0,0,0,.21-.08.32.32,0,0,0,.08-.2V187.31a.28.28,0,0,0-.09-.2A.28.28,0,0,0,349.36,187Z"/>
    <path class="cls-3" d="M343.88,187H341.7a.28.28,0,0,0-.2.08.28.28,0,0,0-.09.2v13.15a.28.28,0,0,0,.09.2.28.28,0,0,0,.2.08h2.18a.27.27,0,0,0,.28-.28V187.31a.27.27,0,0,0-.28-.28Z"/>
    <path class="cls-3" d="M344.44,187h2.18a.28.28,0,0,1,.2.08.32.32,0,0,1,.08.2v13.15a.32.32,0,0,1-.08.2.28.28,0,0,1-.2.08h-2.18a.27.27,0,0,1-.28-.28V187.31a.32.32,0,0,1,.08-.2A.3.3,0,0,1,344.44,187Z"/>
    <path class="cls-3" d="M376.81,187h-2.18a.27.27,0,0,0-.28.28v13.15a.27.27,0,0,0,.28.28h2.18a.28.28,0,0,0,.2-.08.28.28,0,0,0,.09-.2V187.31a.33.33,0,0,0-.09-.2A.28.28,0,0,0,376.81,187Z"/>
    <path class="cls-3" d="M377.38,187h2.18a.27.27,0,0,1,.28.28v13.15a.27.27,0,0,1-.28.28h-2.18a.28.28,0,0,1-.2-.08.32.32,0,0,1-.08-.2V187.31a.27.27,0,0,1,.08-.2A.28.28,0,0,1,377.38,187Z"/>
    <path class="cls-3" d="M286.8,201.47h92.76a.27.27,0,0,1,.28.28v0a.3.3,0,0,1-.08.2.32.32,0,0,1-.2.08H286.8a.32.32,0,0,1-.2-.08.3.3,0,0,1-.08-.2v0a.27.27,0,0,1,.28-.28Z"/>
    <path class="cls-3" d="M286.8,200.74h92.76a.27.27,0,0,1,.28.28v0a.27.27,0,0,1-.28.28H286.8a.32.32,0,0,1-.2-.08.3.3,0,0,1-.08-.2v0a.27.27,0,0,1,.28-.28Z"/>
    <path class="cls-3" d="M326.82,24.43h-.35a.32.32,0,0,0-.2.08.3.3,0,0,0-.08.2V46.43a.28.28,0,0,0,.08.2.28.28,0,0,0,.2.09h.35a.25.25,0,0,0,.2-.09.28.28,0,0,0,.08-.2V24.71a.3.3,0,0,0-.08-.2A.28.28,0,0,0,326.82,24.43Z"/>
    <path class="cls-3" d="M328.76,65.94H339a.28.28,0,0,1,.2.09.28.28,0,0,1,.08.2V79.86a.3.3,0,0,1-.08.2.32.32,0,0,1-.2.08H329a.27.27,0,0,1-.28-.28Z"/>
    <path class="cls-3" d="M330,79.72a.29.29,0,0,1-.23-.45l4-5.54a.28.28,0,0,1,.23-.12.27.27,0,0,1,.23.12l4,5.54a.28.28,0,0,1,0,.29.28.28,0,0,1-.25.16Z"/>
    <path class="cls-3" d="M330,66.37a.27.27,0,0,0-.25.16.28.28,0,0,0,0,.29l4,5.54a.28.28,0,0,0,.23.12.26.26,0,0,0,.23-.12l4-5.54a.28.28,0,0,0-.23-.45Z"/>
    <path class="cls-3" d="M329.18,67.61a.29.29,0,0,1,.2-.27.29.29,0,0,1,.32.11l3.91,5.43a.29.29,0,0,1,0,.33l-3.91,5.43a.3.3,0,0,1-.32.11.29.29,0,0,1-.2-.27Z"/>
    <path class="cls-3" d="M334.38,72.88l3.91-5.43a.28.28,0,0,1,.32-.11.29.29,0,0,1,.19.27V78.48a.28.28,0,0,1-.19.27.3.3,0,0,1-.32-.11l-3.91-5.43A.26.26,0,0,1,334.38,72.88Z"/>
    <path class="cls-3" d="M328.76,98.91H339a.27.27,0,0,0,.28-.28V85a.27.27,0,0,0-.28-.28H329a.3.3,0,0,0-.2.08.32.32,0,0,0-.08.2Z"/>
    <path class="cls-3" d="M330,85.14a.28.28,0,0,0-.25.15.29.29,0,0,0,0,.3l4,5.54a.28.28,0,0,0,.46,0l4-5.54a.28.28,0,0,0-.23-.45Z"/>
    <path class="cls-3" d="M334.38,92l3.91,5.43a.28.28,0,0,0,.32.1.27.27,0,0,0,.19-.27V86.38a.28.28,0,0,0-.51-.17l-3.91,5.43A.27.27,0,0,0,334.38,92Z"/>
    <path class="cls-3" d="M329.18,97.24a.29.29,0,0,0,.52.17L333.61,92a.3.3,0,0,0,0-.34l-3.91-5.43a.28.28,0,0,0-.32-.1.28.28,0,0,0-.2.27Z"/>
    <path class="cls-3" d="M330,98.48a.28.28,0,0,1-.25-.15.3.3,0,0,1,0-.3l4-5.54a.31.31,0,0,1,.23-.12.29.29,0,0,1,.23.12l4,5.54a.28.28,0,0,1-.23.45Z"/>
  </g>
  <g id="Steny">
    <path class="cls-4" d="M0,283.05H434.07V96H394.14V40.71H369.33V0H320.52V101.63H59.43v36.42H39.25v45.41H9v6.38H0v93.21Zm428.4-181.4V277.38H287.62V219.22H391.3V101.65Zm-39.94.09V216.38H284.78v61H209.29V162h38V107.3h37.4v51.75h81.27V91.86H363.1v8.79H326.19V64.2H363.1V77.6h2.83V61.37H326.19V5.67h37.47V46.38h24.81v55.36Zm-62.27,1.74H363.1v52.73H287.49V107.3h38.7v-3.82ZM206.45,277.38H5.67V195.51h9v-6.38H31.33v6.38H44.91V143.72H65.1V107.3H244.42v51.85h-38Z"/>
    <line class="cls-5" x1="428.4" y1="219.22" x2="391.3" y2="219.22"/>
    <line class="cls-5" x1="428.4" y1="157.63" x2="391.3" y2="157.63"/>
    <line class="cls-5" x1="308.2" y1="107.3" x2="308.2" y2="156.21"/>
    <line class="cls-5" x1="337.73" y1="156.21" x2="337.73" y2="103.48"/>
  </g>
</svg>
