<?xml version="1.0" standalone="no"?>
<!DOCTYPE svg PUBLIC "-//W3C//DTD SVG 1.1//EN" "http://www.w3.org/Graphics/SVG/1.1/DTD/svg11.dtd" >
<svg>
<metadata>
Created by FontForge 20090622 at Wed Feb 19 08:54:36 2020
 By deploy user
</metadata>
<defs>
<font id="JOURNALISM" horiz-adv-x="345" >
  <font-face 
    font-family="JOURNALISM"
    font-weight="400"
    font-stretch="normal"
    units-per-em="1000"
    panose-1="0 0 0 0 0 0 0 0 0 0"
    ascent="750"
    descent="-250"
    x-height="700"
    cap-height="700"
    bbox="-43 -75.1 579 846.76"
    underline-thickness="50"
    underline-position="-50"
    unicode-range="U+000D-U+2116"
  />
<missing-glyph horiz-adv-x="407" 
d="M0 700h343v-700h-343v700zM18 682v-648l290 648h-290zM32 18h292v656z" />
    <glyph glyph-name=".notdef" horiz-adv-x="407" 
d="M0 700h343v-700h-343v700zM18 682v-648l290 648h-290zM32 18h292v656z" />
    <glyph glyph-name="NULL" horiz-adv-x="0" 
 />
    <glyph glyph-name="NULL" horiz-adv-x="0" 
 />
    <glyph glyph-name="nonmarkingreturn" unicode="&#xd;" horiz-adv-x="245" 
 />
    <glyph glyph-name="space" unicode=" " horiz-adv-x="245" 
 />
    <glyph glyph-name="uni0422" unicode="&#x422;" horiz-adv-x="324" 
d="M285 700v-49h-13v37h-99l1 -676h20v-12h-127v12h25v676h-94v-37h-13v49h300z" />
    <glyph glyph-name="uni041D" unicode="&#x41d;" horiz-adv-x="407" 
d="M241 332h-73q-6 0 -16.5 -1t-20.5 -4.5t-17 -9.5t-7 -16v-289h20v-12h-127v12h25v676h-25v12h127v-12h-21l1 -360q0 4 6 7t16 5.5t21 4t22 1.5h69v342h-25v12h127v-12h-21l1 -676h20v-12h-127v12h25v320z" />
    <glyph glyph-name="H" unicode="H" horiz-adv-x="395" 
d="M241 332h-73q-6 0 -16.5 -1t-20.5 -4.5t-17 -9.5t-7 -16v-289h20v-12h-127v12h25v676h-25v12h127v-12h-21l1 -360q0 4 6 7t16 5.5t21 4t22 1.5h69v342h-25v12h127v-12h-21l1 -676h20v-12h-127v12h25v320z" />
    <glyph glyph-name="uni041E" unicode="&#x41e;" 
d="M15 150q-1 120 -0.5 197t0.5 122v81q0 24 2 50.5t14 48.5t38.5 36.5t74.5 14.5q49 0 75.5 -12.5t39 -33t14.5 -47.5t1 -57q0 -76 0.5 -133.5t0.5 -100t0.5 -71.5t0.5 -47q0 -43 1 -48q0 -38 -2 -66t-14.5 -46.5t-39.5 -28t-77 -9.5q-48 0 -74.5 9.5t-38.5 28.5t-14 46.5
t-2 65.5zM92 150q0 -33 1 -58.5t5.5 -43t15 -27t30.5 -9.5q19 0 29.5 9.5t15.5 27t5.5 43t0.5 58.5v68q0 42 -0.5 120.5t-1.5 211.5q1 26 0 50.5t-5.5 44t-15 31.5t-28.5 12q-20 0 -30.5 -13.5t-15 -34t-5.5 -45t-1 -45.5v-96q0 -49 -0.5 -124.5t0.5 -179.5z" />
    <glyph glyph-name="uni0424" unicode="&#x424;" horiz-adv-x="449" 
d="M245 93q19 0 34 8t25.5 36.5t15.5 83.5t5 149q0 80 -5.5 128.5t-15.5 74.5t-25.5 34.5t-34.5 8.5zM245 12h20v-12h-127v12h25v68q-48 0 -78.5 10.5t-47 41t-22.5 87.5t-6 151q0 82 6 132.5t22.5 78.5t47 37.5t78.5 9.5v59h-25v13h127v-12h-21v-60q48 0 79 -9.5
t48.5 -37.5t24 -78.5t6.5 -132.5q0 -94 -6.5 -151t-23.5 -87.5t-48 -41t-79 -10.5v-68zM163 616q-20 0 -34 -8.5t-24 -34.5t-14.5 -74.5t-4.5 -128.5q0 -94 4.5 -149t14.5 -83.5t24 -36.5t34 -8v523z" />
    <glyph glyph-name="uni0421" unicode="&#x421;" horiz-adv-x="294" 
d="M129 12q33 0 46.5 4t15.5 10.5t-2.5 15.5t-7.5 18.5t-1 20t19 20.5q14 8 26.5 4t19 -15t5.5 -26.5t-13.5 -29.5t-38.5 -24t-69 -10q-48 0 -74.5 9.5t-38.5 28.5t-14 46.5t-2 65.5q-1 120 -0.5 197t0.5 122v81q0 24 2 50.5t14 48.5t38 36.5t74 14.5q43 0 69 -10t38.5 -24
t13.5 -29.5t-5.5 -26.5t-19 -15.5t-26.5 4.5q-17 10 -19 20.5t1 20t7.5 18.5t2.5 15.5t-15.5 10.5t-46.5 4q-20 0 -30 -13.5t-15 -34t-5.5 -45t-0.5 -45.5v-96q0 -49 -0.5 -124.5t0.5 -179.5q0 -33 1 -58.5t5.5 -43t15 -27t30.5 -9.5z" />
    <glyph glyph-name="uni0420" unicode="&#x420;" horiz-adv-x="326" 
d="M106 688l1 -462q0 8 8 14t29 6q19 0 30 6t16.5 29.5t7 70.5t1.5 129q0 81 -7 123t-19.5 61t-30 21t-36.5 2zM106 700q48 0 81 -3.5t53 -24t28 -65t8 -126.5q0 -91 -3.5 -141t-16.5 -74t-40.5 -29t-75.5 -5q-18 0 -25.5 -10t-7.5 -30v-180h20v-12h-127v12h25v676h-25v12
h106z" />
    <glyph glyph-name="uni0412" unicode="&#x412;" horiz-adv-x="347" 
d="M107 14q23 0 40.5 3.5t29 25.5t17.5 70t6 137q0 67 -2 108.5t-9 65t-19 32t-31 8.5q-18 0 -25.5 -10t-7.5 -30zM0 700h106q48 0 76.5 -9.5t43.5 -26t19.5 -37.5t4.5 -43q0 -26 -1 -46.5t-8 -35t-21 -22.5t-40 -8q36 0 56 -16.5t29 -45.5t10.5 -70t1.5 -90
q0 -93 -8.5 -143.5t-28 -74.5t-52 -28t-81.5 -4h-107v14h25v672h-25v14zM106 459q0 8 8 14t29 6q18 0 28 2t15 10.5t6 25.5t1 47q0 46 -5.5 70.5t-16.5 36t-27 13.5t-38 2v-227z" />
    <glyph glyph-name="uni0411" unicode="&#x411;" horiz-adv-x="350" 
d="M106 469q48 0 81 -3.5t53 -24t28.5 -65t8.5 -126.5q0 -94 -8.5 -144.5t-28 -74t-52.5 -27.5t-81 -4h-107v15h25v685h207v-52h-15v37h-111v-216zM107 16q19 0 36 1.5t30 22t20 68.5t7 142q0 80 -7.5 121.5t-20 59t-30 19t-36.5 1.5z" />
    <glyph glyph-name="uni041F" unicode="&#x41f;" horiz-adv-x="393" 
d="M106 688l1 -676h20v-12h-127v12h25v676h-25v12h335v-12h-21l1 -676h20v-12h-127v12h25v676h-127z" />
    <glyph glyph-name="uni041A" unicode="&#x41a;" horiz-adv-x="377" 
d="M209 592q7 42 21.5 66t31 34t32.5 8t26 -10.5t12.5 -22t-8.5 -26.5q-13 -14 -23.5 -14.5t-20 4.5t-17.5 11.5t-15 5.5t-13 -14t-12 -45q-11 -51 -12 -90t-6 -65t-20.5 -39t-53.5 -13q46 0 76.5 -10.5t49 -32t26 -54t7.5 -75.5q1 -48 1 -85t3.5 -61.5t12.5 -37.5t29 -13
v-13q-48 0 -74 14t-38 41t-13.5 66t-1.5 89q0 60 -11 91.5t-27 45.5t-34 15.5t-31 1.5l1 -352h20v-12h-127v12h25v676h-25v12h127v-12h-21v-298q43 0 60 9.5t22.5 33t7 62t13.5 97.5z" />
    <glyph glyph-name="uni0416" unicode="&#x416;" horiz-adv-x="573" 
d="M306 12h20v-12h-127v12h25v353q-13 0 -31 -1.5t-34 -15.5t-27 -45.5t-11 -91.5q0 -50 -1.5 -89t-13.5 -66t-38 -41t-74 -14v13q19 0 28.5 13t13 37.5t3.5 61.5t1 85q0 43 7.5 75.5t26 54t49 32t76.5 10.5q-38 0 -53 13t-19.5 39t-6 65t-11.5 90q-6 32 -12 45t-13 14
t-15 -5.5t-17.5 -11.5t-20.5 -4.5t-23 14.5q-11 13 -8.5 26.5t12.5 22t26 10.5t32.5 -8t30.5 -34t22 -66q12 -59 13 -97.5t6.5 -62t22 -33t59.5 -9.5v297h-25v12h127v-12h-21v-298q43 0 60 9.5t23 33t8 62t14 97.5q7 42 21.5 66t31 34t32.5 8t26 -10.5t12.5 -22t-8.5 -26.5
q-13 -14 -23.5 -14.5t-20 4.5t-17.5 11.5t-15 5.5t-13 -14t-12 -45q-11 -51 -12.5 -90t-7 -65t-21 -39t-53.5 -13q46 0 76.5 -10.5t49 -32t26 -54t7.5 -75.5q1 -48 1 -85t3.5 -61.5t12.5 -37.5t29 -13v-13q-48 0 -74 14t-38 41t-13.5 66t-1.5 89q0 60 -11 91.5t-27 45.5
t-34 15.5t-31 1.5z" />
    <glyph glyph-name="uni0418" unicode="&#x418;" horiz-adv-x="410" 
d="M247 540l-6.5 -18.5t-16 -49l-22 -69.5l-25.5 -79l-70 -215v-97h20v-12h-127v12h25v676h-25v12h127v-12h-21l1 -540l6.5 18.5l16.5 49l22.5 69l25.5 79.5l69 215v109h-25v12h127v-12h-21l1 -676h20v-12h-127v12h25v528z" />
    <glyph glyph-name="uni0419" unicode="&#x419;" horiz-adv-x="402" 
d="M177 757q29 2 39.5 7t10 11t-7 13.5t-11.5 16t-4 17.5t17 19q13 8 23 4t15 -14t4 -24t-10 -26.5t-27.5 -21.5t-48.5 -9q-44 0 -63.5 18.5t-21.5 38.5t10 33t32 1q15 -10 16.5 -19t-3.5 -17.5t-12 -16t-7 -13.5t10 -11t39 -7zM247 540l-6.5 -18.5t-16 -49l-22 -69.5
l-25.5 -79l-70 -215v-97h20v-12h-127v12h25v676h-25v12h127v-12h-21l1 -540l6.5 18.5l16.5 49l22.5 69l25.5 79.5l69 215v109h-25v12h127v-12h-21l1 -676h20v-12h-127v12h25v528z" />
    <glyph glyph-name="uni0415" unicode="&#x415;" horiz-adv-x="303" 
d="M246 700v-44h-13v32h-127l1 -327q0 10 8 15.5t29 5.5h48v21h13v-53h-13v19h-52q-18 0 -25.5 -10t-7.5 -30v-317h126v32h13v-44h-246v12h25v676h-25v12h246z" />
    <glyph glyph-name="_0003" horiz-adv-x="0" 
 />
    <glyph glyph-name="uni042C" unicode="&#x42c;" horiz-adv-x="355" 
d="M121 13q19 0 36.5 2t30 20.5t19.5 60.5t7 123q0 82 -1.5 129t-7 70.5t-16.5 29.5t-30 6q-21 0 -29 5.5t-8 13.5zM15 0v13h25v675h-25v12h130v-12h-23v-180q0 -20 7.5 -30t25.5 -10q48 0 75.5 -5t40.5 -29t16.5 -74t3.5 -141q0 -82 -8 -126.5t-28 -65t-53 -24t-81 -3.5
h-106z" />
    <glyph glyph-name="uni042B" unicode="&#x42b;" horiz-adv-x="474" 
d="M303 688v12h127v-12h-21l1 -676h20v-12h-127v12h25v676h-25zM0 0v12h25v676h-25v12h127v-12h-20v-180q0 -20 7.5 -30t25.5 -10q48 0 75.5 -5t40.5 -29t16.5 -74t3.5 -141q0 -82 -8 -126.5t-28 -65t-53 -24t-81 -3.5h-106zM106 12q19 0 36.5 2t30 21t19.5 61t7 123
q0 82 -1.5 129t-7 70.5t-16.5 29.5t-30 6q-21 0 -29 6t-8 14z" />
    <glyph glyph-name="uni042A" unicode="&#x42a;" horiz-adv-x="376" 
d="M174 12q20 0 37 2t29.5 21t19.5 61t7 123q0 82 -1.5 129t-7 70.5t-16.5 29.5t-30 6q-21 0 -29 6t-8 14zM68 0v12h25v676h-80v-39h-13v51h175v-192q0 -20 7.5 -30t25.5 -10q48 0 75.5 -5t41 -30t16.5 -76.5t3 -145.5q0 -79 -8.5 -122t-28.5 -62.5t-52.5 -23t-80.5 -3.5
h-106z" />
    <glyph glyph-name="uni042E" unicode="&#x42e;" horiz-adv-x="505" 
d="M165 550q0 24 2 50.5t14 48.5t38.5 36.5t74.5 14.5q49 0 75.5 -12.5t39 -33t14.5 -47.5t1 -57q0 -76 0.5 -133.5t0.5 -100t0.5 -71.5t0.5 -47q0 -43 1 -48q0 -38 -2 -66t-14.5 -46.5t-39.5 -28t-77 -9.5q-48 0 -74.5 9.5t-38.5 28.5t-14 46.5t-2 65.5v177h-58v-315h20
v-12h-127v12h25v676h-25v12h127v-12h-21l1 -349h30h28v211zM242 150q0 -33 1 -58.5t5.5 -43t15 -27t30.5 -9.5q19 0 29.5 9.5t15.5 27t5.5 43t0.5 58.5v68q0 42 -0.5 120.5t-1.5 211.5q1 26 0 50.5t-5.5 44t-15 31.5t-28.5 12q-20 0 -30.5 -13.5t-15 -34t-5.5 -45t-1 -45.5
v-96q0 -49 -0.5 -124.5t0.5 -179.5z" />
    <glyph glyph-name="uni042D" unicode="&#x42d;" horiz-adv-x="308" 
d="M123 688q-33 0 -46.5 -4t-15.5 -10.5t2.5 -15.5t7.5 -18.5t0.5 -20t-18.5 -20.5q-14 -9 -26.5 -4.5t-19 15.5t-5.5 26.5t13.5 29.5t38.5 24t69 10q48 0 74.5 -14.5t38.5 -36.5t14 -48.5t2 -50.5v-81v-319q0 -38 -2 -65.5t-14 -46.5t-38.5 -28.5t-74.5 -9.5q-43 0 -69 10
t-38.5 24t-13.5 29.5t5.5 26.5t18.5 15t27 -4q16 -10 18.5 -20.5t-0.5 -20t-7.5 -18.5t-2.5 -15.5t15.5 -10.5t46.5 -4q19 0 30 9.5t15.5 27t5.5 43t1 58.5v171q0 20 -7.5 30t-25.5 10h-62v13h58q21 0 29 -6t8 -14v-3v199q0 21 -1 45.5t-5.5 45t-15.5 34t-30 13.5z" />
    <glyph glyph-name="uni042F" unicode="&#x42f;" horiz-adv-x="370" 
d="M210 688q-20 0 -36.5 -4t-29.5 -19t-20 -45.5t-7 -83.5q0 -75 1.5 -115.5t7 -59.5t16.5 -22t31 -3q21 0 29 -4.5t8 -12.5v369zM316 700v-12h-25v-675h25v-13h-127v13h20l1 269q0 20 -7.5 30t-25.5 10q-13 0 -24 -1.5t-19.5 -15.5t-12.5 -45.5t-4 -91.5v-82t-10 -51.5
t-34.5 -27t-72.5 -7.5v13q19 0 27.5 6t11 23.5t1.5 47.5t0 78q0 43 1.5 73t12 49t33 27.5t63.5 10.5q-41 0 -63 10t-32.5 34t-12.5 64t-2 100q0 55 8.5 87.5t28 49.5t52.5 22t81 5h106z" />
    <glyph glyph-name="uni041C" unicode="&#x41c;" horiz-adv-x="468" 
d="M169 173l-130 439l3 -600h23v-12h-65v12h25v676h-25v12h106l102 -358l116 358h87v-12h-25l1 -676h24v-12h-135v12h29v581z" />
    <glyph glyph-name="uni0428" unicode="&#x428;" horiz-adv-x="557" 
d="M218 12v676h-25v12h127v-12h-20l-1 -676h117v676h-25v12h131v-12h-24l-1 -676h26v-12h-523v12h25v676h-25v12h127v-12h-20l-1 -676h112z" />
    <glyph glyph-name="uni0429" unicode="&#x429;" horiz-adv-x="634" 
d="M0 0v12h25v676h-25v12h127v-12h-20l-1 -676h116v676h-25v12h127v-12h-20l-1 -676h123v676h-25v12h127v-12h-20l-1 -676h72v-56h-12v44h-567z" />
    <glyph glyph-name="uni0427" unicode="&#x427;" horiz-adv-x="412" 
d="M248 286q-26 -30 -64 -38t-73.5 5.5t-60.5 49t-25 92.5v293h-25v12h127v-12h-21v-293q0 -58 12.5 -89t33 -40t46 2t50.5 37v383h-25v12h127v-12h-21l1 -676h20v-12h-127v12h25v274z" />
    <glyph glyph-name="uni0426" unicode="&#x426;" horiz-adv-x="456" 
d="M0 0v13h25v675h-25v12h127v-12h-20l-1 -675h159v675h-25v12h127v-12h-20l-1 -675h77v-59h-14v46h-409z" />
    <glyph glyph-name="uni0423" unicode="&#x423;" horiz-adv-x="358" 
d="M87 13q15 0 26 9.5t19 26.5t15 40l15 49l-155 550h-20v12h123v-12h-23l115 -407l99 407h-19v12h51v-12h-17l-141 -565q-9 -30 -17.5 -53t-18 -38.5t-22.5 -23t-31 -7.5q-25 0 -41 10.5t-23.5 24.5t-8 29.5t5 26.5t16.5 15t25 -5q17 -10 19.5 -20.5t-2 -19.5t-11.5 -17
t-10 -14.5t3 -11t28 -6.5z" />
    <glyph glyph-name="uni0413" unicode="&#x413;" horiz-adv-x="256" 
d="M215 700v-53h-14v41h-95l1 -676h20v-12h-127v12h25v676h-25v12h215z" />
    <glyph glyph-name="uni0425" unicode="&#x425;" horiz-adv-x="351" 
d="M126 318l-116 370h-21v12h130v-12h-25l87 -286l106 286h-22v12h55v-12h-18l-113 -302l110 -374h21v-12h-132v12h25l-77 288l-114 -288h22v-12h-55v12h18z" />
    <glyph glyph-name="uni0417" unicode="&#x417;" horiz-adv-x="344" 
d="M121 12q19 0 30.5 15.5t17.5 43.5t7.5 67t1.5 86q-1 112 -18.5 160t-56.5 48v14q19 0 32.5 11t22 29.5t11.5 42.5t3 50q0 21 -0.5 41t-5 35.5t-15 24.5t-29.5 8q-33 0 -46.5 -4t-15.5 -10.5t2.5 -15.5t7.5 -18.5t0.5 -20t-18.5 -20.5q-14 -9 -26.5 -4.5t-19 15.5
t-5.5 26.5t13.5 29.5t38.5 24t69 10q42 0 65.5 -14t34 -33.5t12 -40.5t1.5 -33q2 -138 -107 -139q28 1 53.5 -10.5t45 -37t30.5 -67t11 -101.5q0 -42 -5 -82.5t-20.5 -71.5t-44.5 -50.5t-77 -19.5q-43 0 -69 10t-38.5 24t-13.5 29.5t5.5 26.5t18.5 15t27 -4q17 -10 19 -20.5
t-1 -20t-7.5 -18.5t-2.5 -15.5t15.5 -10.5t46.5 -4z" />
    <glyph glyph-name="uni0414" unicode="&#x414;" horiz-adv-x="402" 
d="M285 700v-29.5v-77.5v-109.5t0.5 -125.5t0.5 -125.5v-110v-79v-31.5h56v-54h-12v42h-361v-42h-12v54h48q24 44 43 106q17 52 30.5 128.5t13.5 176.5v277h193zM106 688v-264q0 -100 -13.5 -176.5t-29.5 -129.5q-19 -62 -43 -106h184v676h-98z" />
    <glyph glyph-name="uni0441" unicode="&#x441;" horiz-adv-x="326" 
d="M129 12q33 0 46.5 4t15.5 10.5t-2.5 15.5t-7.5 18.5t-1 20t19 20.5q14 8 26.5 4t19 -15t5.5 -26.5t-13.5 -29.5t-38.5 -24t-69 -10q-48 0 -74.5 9.5t-38.5 28.5t-14 46.5t-2 65.5q-1 120 -0.5 197t0.5 122v81q0 24 2 50.5t14 48.5t38 36.5t74 14.5q43 0 69 -10t38.5 -24
t13.5 -29.5t-5.5 -26.5t-19 -15.5t-26.5 4.5q-17 10 -19 20.5t1 20t7.5 18.5t2.5 15.5t-15.5 10.5t-46.5 4q-20 0 -30 -13.5t-15 -34t-5.5 -45t-0.5 -45.5v-96q0 -49 -0.5 -124.5t0.5 -179.5q0 -33 1 -58.5t5.5 -43t15 -27t30.5 -9.5z" />
    <glyph glyph-name="uni0435" unicode="&#x435;" horiz-adv-x="310" 
d="M246 700v-44h-13v32h-127l1 -327q0 10 8 15.5t29 5.5h48v21h13v-53h-13v19h-52q-18 0 -25.5 -10t-7.5 -30v-317h126v32h13v-44h-246v12h25v676h-25v12h246z" />
    <glyph glyph-name="uni043E" unicode="&#x43e;" horiz-adv-x="349" 
d="M15 150q-1 120 -0.5 197t0.5 122v81q0 24 2 50.5t14 48.5t38.5 36.5t74.5 14.5q49 0 75.5 -12.5t39 -33t14.5 -47.5t1 -57q0 -76 0.5 -133.5t0.5 -100t0.5 -71.5t0.5 -47q0 -43 1 -48q0 -38 -2 -66t-14.5 -46.5t-39.5 -28t-77 -9.5q-48 0 -74.5 9.5t-38.5 28.5t-14 46.5
t-2 65.5zM92 150q0 -33 1 -58.5t5.5 -43t15 -27t30.5 -9.5q19 0 29.5 9.5t15.5 27t5.5 43t0.5 58.5v68q0 42 -0.5 120.5t-1.5 211.5q1 26 0 50.5t-5.5 44t-15 31.5t-28.5 12q-20 0 -30.5 -13.5t-15 -34t-5.5 -45t-1 -45.5v-96q0 -49 -0.5 -124.5t0.5 -179.5z" />
    <glyph glyph-name="uni043D" unicode="&#x43d;" horiz-adv-x="418" 
d="M241 332h-73q-6 0 -16.5 -1t-20.5 -4.5t-17 -9.5t-7 -16v-289h20v-12h-127v12h25v676h-25v12h127v-12h-21l1 -360q0 4 6 7t16 5.5t21 4t22 1.5h69v342h-25v12h127v-12h-21l1 -676h20v-12h-127v12h25v320z" />
    <glyph glyph-name="uni043F" unicode="&#x43f;" horiz-adv-x="418" 
d="M106 688l1 -676h20v-12h-127v12h25v676h-25v12h335v-12h-21l1 -676h20v-12h-127v12h25v676h-127z" />
    <glyph glyph-name="uni044F" unicode="&#x44f;" horiz-adv-x="389" 
d="M210 688q-20 0 -36.5 -4t-29.5 -19t-20 -45.5t-7 -83.5q0 -75 1.5 -115.5t7 -59.5t16.5 -22t31 -3q21 0 29 -4.5t8 -12.5v369zM316 700v-12h-25v-675h25v-13h-127v13h20l1 269q0 20 -7.5 30t-25.5 10q-13 0 -24 -1.5t-19.5 -15.5t-12.5 -45.5t-4 -91.5v-82t-10 -51.5
t-34.5 -27t-72.5 -7.5v13q19 0 27.5 6t11 23.5t1.5 47.5t0 78q0 43 1.5 73t12 49t33 27.5t63.5 10.5q-41 0 -63 10t-32.5 34t-12.5 64t-2 100q0 55 8.5 87.5t28 49.5t52.5 22t81 5h106z" />
    <glyph glyph-name="uni0438" unicode="&#x438;" horiz-adv-x="434" 
d="M247 540l-6.5 -18.5t-16 -49l-22 -69.5l-25.5 -79l-70 -215v-97h20v-12h-127v12h25v676h-25v12h127v-12h-21l1 -540l6.5 18.5l16.5 49l22.5 69l25.5 79.5l69 215v109h-25v12h127v-12h-21l1 -676h20v-12h-127v12h25v528z" />
    <glyph glyph-name="uni0442" unicode="&#x442;" horiz-adv-x="343" 
d="M285 700v-49h-13v37h-99l1 -676h20v-12h-127v12h25v676h-94v-37h-13v49h300z" />
    <glyph glyph-name="uni0430" unicode="&#x430;" horiz-adv-x="366" 
d="M167 182l-72 469l-67 -500q0 15 20.5 23t44.5 8h74zM169 172h-80q-9 0 -19.5 -1.5t-20 -6t-16 -12t-7.5 -19.5l-16 -123h17v-10h-11.5h-16.5h-14.5t-6.5 1v9h16q0 1 4 30.5l10.5 77l14.5 108.5l16 124l43 338h-25v12h108l125 -690h20v-10h-143v10h25z" />
    <glyph glyph-name="uni0431" unicode="&#x431;" horiz-adv-x="374" 
d="M106 469q48 0 81 -3.5t53 -24t28.5 -65t8.5 -126.5q0 -94 -8.5 -144.5t-28 -74t-52.5 -27.5t-81 -4h-107v15h25v685h207v-52h-15v37h-111v-216zM107 16q19 0 36 1.5t30 22t20 68.5t7 142q0 80 -7.5 121.5t-20 59t-30 19t-36.5 1.5z" />
    <glyph glyph-name="uni043B" unicode="&#x43b;" horiz-adv-x="374" 
d="M165 700l125 -690h20v-10h-143v10h25l-97 641l-85 -641h17v-10h-11.5h-16.5h-14.5t-6.5 1v9h16q0 1 4 30.5l10.5 77l14.5 108.5l16 124l43 338h-25v12h108z" />
    <glyph glyph-name="uni0433" unicode="&#x433;" horiz-adv-x="293" 
d="M215 700v-53h-14v41h-95l1 -676h20v-12h-127v12h25v676h-25v12h215z" />
    <glyph glyph-name="uni044C" unicode="&#x44c;" horiz-adv-x="380" 
d="M121 13q19 0 36.5 2t30 20.5t19.5 60.5t7 123q0 82 -1.5 129t-7 70.5t-16.5 29.5t-30 6q-21 0 -29 5.5t-8 13.5zM15 0v13h25v675h-25v12h130v-12h-23v-180q0 -20 7.5 -30t25.5 -10q48 0 75.5 -5t40.5 -29t16.5 -74t3.5 -141q0 -82 -8 -126.5t-28 -65t-53 -24t-81 -3.5
h-106z" />
    <glyph glyph-name="uni044D" unicode="&#x44d;" horiz-adv-x="328" 
d="M123 688q-33 0 -46.5 -4t-15.5 -10.5t2.5 -15.5t7.5 -18.5t0.5 -20t-18.5 -20.5q-14 -9 -26.5 -4.5t-19 15.5t-5.5 26.5t13.5 29.5t38.5 24t69 10q48 0 74.5 -14.5t38.5 -36.5t14 -48.5t2 -50.5v-81v-319q0 -38 -2 -65.5t-14 -46.5t-38.5 -28.5t-74.5 -9.5q-43 0 -69 10
t-38.5 24t-13.5 29.5t5.5 26.5t18.5 15t27 -4q16 -10 18.5 -20.5t-0.5 -20t-7.5 -18.5t-2.5 -15.5t15.5 -10.5t46.5 -4q19 0 30 9.5t15.5 27t5.5 43t1 58.5v171q0 20 -7.5 30t-25.5 10h-62v13h58q21 0 29 -6t8 -14v-3v199q0 21 -1 45.5t-5.5 45t-15.5 34t-30 13.5z" />
    <glyph glyph-name="uni0440" unicode="&#x440;" 
d="M106 688l1 -462q0 8 8 14t29 6q19 0 30 6t16.5 29.5t7 70.5t1.5 129q0 81 -7 123t-19.5 61t-30 21t-36.5 2zM106 700q48 0 81 -3.5t53 -24t28 -65t8 -126.5q0 -91 -3.5 -141t-16.5 -74t-40.5 -29t-75.5 -5q-18 0 -25.5 -10t-7.5 -30v-180h20v-12h-127v12h25v676h-25v12
h106z" />
    <glyph glyph-name="A" unicode="A" horiz-adv-x="360" 
d="M167 182l-72 469l-67 -500q0 15 20.5 23t44.5 8h74zM169 172h-80q-9 0 -19.5 -1.5t-20 -6t-16 -12t-7.5 -19.5l-16 -123h17v-10h-11.5h-16.5h-14.5t-6.5 1v9h16q0 1 4 30.5l10.5 77l14.5 108.5l16 124l43 338h-25v12h108l125 -690h20v-10h-143v10h25z" />
    <glyph glyph-name="uni0410" unicode="&#x410;" horiz-adv-x="368" 
d="M167 182l-72 469l-67 -500q0 15 20.5 23t44.5 8h74zM169 172h-80q-9 0 -19.5 -1.5t-20 -6t-16 -12t-7.5 -19.5l-16 -123h17v-10h-11.5h-16.5h-14.5t-6.5 1v9h16q0 1 4 30.5l10.5 77l14.5 108.5l16 124l43 338h-25v12h108l125 -690h20v-10h-143v10h25z" />
    <glyph glyph-name="uni041B" unicode="&#x41b;" horiz-adv-x="360" 
d="M165 700l125 -690h20v-10h-143v10h25l-97 641l-85 -641h17v-10h-11.5h-16.5h-14.5t-6.5 1v9h16q0 1 4 30.5l10.5 77l14.5 108.5l16 124l43 338h-25v12h108z" />
    <glyph glyph-name="B" unicode="B" horiz-adv-x="326" 
d="M107 14q23 0 40.5 3.5t29 25.5t17.5 70t6 137q0 67 -2 108.5t-9 65t-19 32t-31 8.5q-18 0 -25.5 -10t-7.5 -30zM0 700h106q48 0 76.5 -9.5t43.5 -26t19.5 -37.5t4.5 -43q0 -26 -1 -46.5t-8 -35t-21 -22.5t-40 -8q36 0 56 -16.5t29 -45.5t10.5 -70t1.5 -90
q0 -93 -8.5 -143.5t-28 -74.5t-52 -28t-81.5 -4h-107v14h25v672h-25v14zM106 459q0 8 8 14t29 6q18 0 28 2t15 10.5t6 25.5t1 47q0 46 -5.5 70.5t-16.5 36t-27 13.5t-38 2v-227z" />
    <glyph glyph-name="C" unicode="C" horiz-adv-x="285" 
d="M129 12q33 0 46.5 4t15.5 10.5t-2.5 15.5t-7.5 18.5t-1 20t19 20.5q14 8 26.5 4t19 -15t5.5 -26.5t-13.5 -29.5t-38.5 -24t-69 -10q-48 0 -74.5 9.5t-38.5 28.5t-14 46.5t-2 65.5q-1 120 -0.5 197t0.5 122v81q0 24 2 50.5t14 48.5t38 36.5t74 14.5q43 0 69 -10t38.5 -24
t13.5 -29.5t-5.5 -26.5t-19 -15.5t-26.5 4.5q-17 10 -19 20.5t1 20t7.5 18.5t2.5 15.5t-15.5 10.5t-46.5 4q-20 0 -30 -13.5t-15 -34t-5.5 -45t-0.5 -45.5v-96q0 -49 -0.5 -124.5t0.5 -179.5q0 -33 1 -58.5t5.5 -43t15 -27t30.5 -9.5z" />
    <glyph glyph-name="E" unicode="E" horiz-adv-x="306" 
d="M246 700v-44h-13v32h-127l1 -327q0 10 8 15.5t29 5.5h48v21h13v-53h-13v19h-52q-18 0 -25.5 -10t-7.5 -30v-317h126v32h13v-44h-246v12h25v676h-25v12h246z" />
    <glyph glyph-name="I" unicode="I" horiz-adv-x="197" 
d="M2 688v12h127v-12h-21l1 -676h20v-12h-127v12h25v676h-25z" />
    <glyph glyph-name="K" unicode="K" horiz-adv-x="385" 
d="M107 234v-222h20v-12h-127v12h25v676h-25v12h127v-12h-21l1 -423l171 423h-21v12h53v-12h-19l-96 -242l128 -434h21v-12h-132v12h25l-95 309z" />
    <glyph glyph-name="M" unicode="M" horiz-adv-x="468" 
d="M169 173l-130 439l3 -600h23v-12h-65v12h25v676h-25v12h106l102 -358l116 358h87v-12h-25l1 -676h24v-12h-135v12h29v581z" />
    <glyph glyph-name="O" unicode="O" horiz-adv-x="341" 
d="M15 150q-1 120 -0.5 197t0.5 122v81q0 24 2 50.5t14 48.5t38.5 36.5t74.5 14.5q49 0 75.5 -12.5t39 -33t14.5 -47.5t1 -57q0 -76 0.5 -133.5t0.5 -100t0.5 -71.5t0.5 -47q0 -43 1 -48q0 -38 -2 -66t-14.5 -46.5t-39.5 -28t-77 -9.5q-48 0 -74.5 9.5t-38.5 28.5t-14 46.5
t-2 65.5zM92 150q0 -33 1 -58.5t5.5 -43t15 -27t30.5 -9.5q19 0 29.5 9.5t15.5 27t5.5 43t0.5 58.5v68q0 42 -0.5 120.5t-1.5 211.5q1 26 0 50.5t-5.5 44t-15 31.5t-28.5 12q-20 0 -30.5 -13.5t-15 -34t-5.5 -45t-1 -45.5v-96q0 -49 -0.5 -124.5t0.5 -179.5z" />
    <glyph glyph-name="P" unicode="P" horiz-adv-x="347" 
d="M122 12h20v-12h-127v12h25v676h-25v12h106v-12l1 -462q0 8 8 14t29 6q19 0 30 6t16.5 29.5t7 70.5t1.5 129q0 81 -7 123t-19.5 61t-30 21t-36.5 2v12q48 0 81 -3.5t53 -24t28 -65t8 -126.5q0 -91 -3.5 -141t-16.5 -74t-40.5 -29t-75.5 -5q-18 0 -25.5 -10t-7.5 -30v-180z
" />
    <glyph glyph-name="R" unicode="R" horiz-adv-x="368" 
d="M166 328q41 -2 63.5 -10.5t33 -27.5t12 -49t1.5 -73q1 -48 0 -78t1.5 -47.5t10.5 -23.5t28 -6v-13q-48 0 -72.5 7.5t-34.5 27t-10 51.5v82q0 60 -4 91.5t-12.5 45.5t-19.5 15.5t-24 1.5q-18 0 -25.5 -10t-7.5 -30l1 -269h20v-13h-127v13h25v675h-25v12h106v-12v-370
q0 8 8 13t29 5q19 0 30.5 3t17 22t7 59.5t1.5 115.5q0 53 -7 83.5t-20 45.5t-30 19t-36 4v12q48 0 81 -5t52.5 -22t28 -49.5t8.5 -87.5q0 -60 -2 -100t-12.5 -64t-33 -34t-62.5 -10z" />
    <glyph glyph-name="T" unicode="T" horiz-adv-x="324" 
d="M285 700v-49h-13v37h-99l1 -676h20v-12h-127v12h25v676h-94v-37h-13v49h300z" />
    <glyph glyph-name="X" unicode="X" horiz-adv-x="385" 
d="M126 318l-116 370h-21v12h130v-12h-25l87 -286l106 286h-22v12h55v-12h-18l-113 -302l110 -374h21v-12h-132v12h25l-77 288l-114 -288h22v-12h-55v12h18z" />
    <glyph glyph-name="S" unicode="S" horiz-adv-x="325" 
d="M121 11q23 0 39.5 6.5t24.5 22.5t5.5 43t-18.5 68l-160 378q-10 27 -11 57.5t11 55.5t40 41.5t76 16.5q43 0 69 -10t38.5 -24t13.5 -29.5t-5.5 -26.5t-19 -15.5t-26.5 4.5q-17 10 -19 20.5t1 20t7.5 18.5t2.5 16t-15.5 11t-46.5 5q-23 0 -39.5 -6.5t-24.5 -22.5t-5.5 -43
t17.5 -68l160 -378h1q10 -27 11 -57.5t-11 -55.5t-40 -41.5t-76 -16.5q-43 0 -69 10t-38.5 24t-13.5 29.5t5.5 26.5t18.5 15t27 -4q17 -10 19 -20.5t-1 -20.5t-7.5 -19t-2.5 -16t15.5 -11t46.5 -4z" />
    <glyph glyph-name="uni0432" unicode="&#x432;" horiz-adv-x="362" 
d="M107 14q23 0 40.5 3.5t29 25.5t17.5 70t6 137q0 67 -2 108.5t-9 65t-19 32t-31 8.5q-18 0 -25.5 -10t-7.5 -30zM0 700h106q48 0 76.5 -9.5t43.5 -26t19.5 -37.5t4.5 -43q0 -26 -1 -46.5t-8 -35t-21 -22.5t-40 -8q36 0 56 -16.5t29 -45.5t10.5 -70t1.5 -90
q0 -93 -8.5 -143.5t-28 -74.5t-52 -28t-81.5 -4h-107v14h25v672h-25v14zM106 459q0 8 8 14t29 6q18 0 28 2t15 10.5t6 25.5t1 47q0 46 -5.5 70.5t-16.5 36t-27 13.5t-38 2v-227z" />
    <glyph glyph-name="uni0434" unicode="&#x434;" horiz-adv-x="401" 
d="M285 700v-29.5v-77.5v-109.5t0.5 -125.5t0.5 -125.5v-110v-79v-31.5h56v-54h-12v42h-361v-42h-12v54h48q24 44 43 106q17 52 30.5 128.5t13.5 176.5v277h193zM106 688v-264q0 -100 -13.5 -176.5t-29.5 -129.5q-19 -62 -43 -106h184v676h-98z" />
    <glyph glyph-name="L" unicode="L" horiz-adv-x="283" 
d="M25 0v688h-25v12h127v-12h-20l-1 -676h95l1 41h13v-53h-190z" />
    <glyph glyph-name="Q" unicode="Q" horiz-adv-x="372" 
d="M15 150q-1 120 -0.5 197t0.5 122v81q0 24 2 50.5t14 48.5t38.5 36.5t74.5 14.5q49 0 75.5 -12.5t39 -33t14.5 -47.5t1 -57q0 -76 0.5 -133.5t0.5 -100t0.5 -71.5t0.5 -47q0 -43 1 -48q0 -38 -2 -66t-14.5 -46.5t-39.5 -28t-77 -9.5q-48 0 -74.5 9.5t-38.5 28.5t-14 46.5
t-2 65.5zM92 150q0 -33 1 -58.5t5.5 -43t15 -27t30.5 -9.5q19 0 29.5 9.5t15.5 27t5.5 43t0.5 58.5v68q0 42 -0.5 120.5t-1.5 211.5q1 26 0 50.5t-5.5 44t-15 31.5t-28.5 12q-20 0 -30.5 -13.5t-15 -34t-5.5 -45t-1 -45.5v-96q0 -49 -0.5 -124.5t0.5 -179.5zM145 52
q0 -45 14.5 -69t31.5 -35q20 -13 47 -14q28 0 38 3.5t9.5 10.5t-7 15.5t-10.5 18.5t-2 20.5t19 21.5q14 9 25 4.5t17 -16t4.5 -27t-11.5 -29.5t-30 -23t-53 -8q-29 2 -52 16q-20 12 -35.5 37.5t-15.5 73.5h11z" />
    <glyph glyph-name="U" unicode="U" horiz-adv-x="324" 
d="M259 550q0 -76 0.5 -133.5t0.5 -100t0.5 -71.5t0.5 -47q0 -43 1 -48q0 -38 -2 -66t-14.5 -46.5t-39.5 -28t-77 -9.5q-48 0 -74.5 9.5t-38.5 28.5t-14 46.5t-2 65.5q-1 120 -0.5 197t0.5 122v81v138h-25v12h123v-12h-21v-138v-96q0 -49 -0.5 -124.5t0.5 -179.5
q0 -33 1 -58.5t5.5 -43t15 -27t30.5 -9.5q19 0 29.5 9.5t15.5 27t5.5 43t0.5 58.5v68q0 42 -0.5 120.5t-1.5 211.5v138h-25v12h127v-12h-21v-138z" />
    <glyph glyph-name="V" unicode="V" horiz-adv-x="349" 
d="M310 690h-16q-1 -1 -5 -31t-10 -79l-14 -111l-16 -126l-43 -343l-81 -1l-125 691h-20v10h143v-10h-25l97 -641l85 641h-17v10h11h16h14t6 -1v-9z" />
    <glyph glyph-name="J" unicode="J" horiz-adv-x="317" 
d="M122 10q19 0 30 9.5t15.5 27.5t5.5 44t1 59v181.5v139.5v113.5v103.5h-25v12h123v-12h-21v-538q0 -38 -2 -65.5t-14 -46.5t-38.5 -28.5t-74.5 -9.5q-43 0 -69 10t-38.5 24t-13.5 29.5t5.5 26.5t18.5 15t27 -4q16 -10 18.5 -20.5t-0.5 -20.5t-7.5 -19t-2.5 -16t15.5 -11
t46.5 -4z" />
    <glyph glyph-name="F" unicode="F" horiz-adv-x="303" 
d="M246 700v-44h-13v32h-127l1 -329v3q0 8 8 14t29 6h47l1 21h13v-53h-13l-1 19h-51q-18 0 -25.5 -10t-7.5 -30v-317h31v-12h-138v12h25v676h-25v12h246z" />
    <glyph glyph-name="hyphen" unicode="-" horiz-adv-x="283" 
d="M36 323q0 4 6 7.5t16 6.5t21 4.5t22 1.5h44h43v-14h-91q-6 0 -16.5 -1t-20.5 -4.5t-17 -9.5t-7 -16v25z" />
    <glyph glyph-name="D" unicode="D" horiz-adv-x="343" 
d="M106 13q13 0 25 2t22.5 13t19 34.5t14.5 66.5t9 108.5t3 160.5q0 108 -7 166.5t-20 85.5t-30 31.5t-36 4.5v-673zM0 0v13h25v673h-25v12h106q32 0 57.5 -1.5t44 -9.5t31.5 -26t21.5 -51t12 -85t3.5 -127q0 -100 -3.5 -168t-11.5 -112.5t-21 -68.5t-32 -34.5t-44.5 -12.5
t-57.5 -2h-106z" />
    <glyph glyph-name="N" unicode="N" horiz-adv-x="351" 
d="M249 0l-98 242l-37 92l-33 84l-25 65.5t-12 36.5v-508h20v-12h-64v12h25v676h-25v12h64l210 -531v519h-25v12h64v-12h-21v-340v-125.5t0.5 -110.5t0.5 -79.5v-32.5h-44z" />
    <glyph glyph-name="W" unicode="W" horiz-adv-x="534" 
d="M239 352q-1 -1 -3.5 -16.5l-6.5 -40.5l-9 -56.5l-10 -64.5l-27 -174l-81 -1l-102 691h-20v10h143v-10h-25l74 -641l60 351l-43 290h-20v10h143v-10h-25l74 -641l108 641h-17v10h11.5h16.5h14.5t6.5 -1v-9h-16q-1 -1 -6 -31l-13 -79l-18.5 -111l-20.5 -126l-55 -343
l-81 -1z" />
    <glyph glyph-name="Y" unicode="Y" horiz-adv-x="357" 
d="M126 318l-104 370h-22v12h118v-12h-23l86 -338l92 338h-21v12h55v-12h-19l-99 -354v-322h21v-12h-109v12h25v306z" />
    <glyph glyph-name="Z" unicode="Z" 
d="M21 10l135 680h-144v-25h-12v35h274v-10h-20l-135 -680h144v25h12v-35h-274v10h20z" />
    <glyph glyph-name="G" unicode="G" horiz-adv-x="334" 
d="M129 690q-20 0 -30.5 -14t-15 -35t-5.5 -45.5t-1 -45.5v-96q0 -49 -0.5 -124.5t0.5 -179.5q0 -33 1 -58.5t5.5 -43t15 -27t30.5 -9.5q22 1 37 14t15 27v98v124q0 33 1 54t-2 33t-12 16.5t-28 4.5v10q48 0 72.5 -9.5t34.5 -28.5t10 -47v-65v-115q0 -44 -1 -68t0.5 -35
t6 -12.5t16.5 -1.5v-11h-78q-9 0 -13.5 4t-6 9t-1 9t-0.5 5l-6 -6q-8 -8 -17 -14.5t-28 -6.5q-48 0 -74.5 9.5t-38.5 28.5t-14 46.5t-2 65.5q-1 120 -0.5 197t0.5 122v81q0 24 2 50.5t14 48.5t38.5 36.5t74.5 14.5q43 0 69 -10t38.5 -24t13.5 -29.5t-5.5 -26.5t-19 -15.5
t-26.5 4.5q-17 10 -19 20.5t1 20t7.5 18.5t2.5 16t-15.5 11t-46.5 5z" />
    <glyph glyph-name="zero" unicode="0" 
d="M274 150q0 -33 -3 -60.5t-15.5 -47.5t-39 -31t-72.5 -11q-48 0 -75.5 9.5t-41 28.5t-17 46.5t-3.5 65.5q-1 120 -0.5 197t0.5 122v81q0 24 3.5 50.5t17 48.5t41 36.5t75.5 14.5q46 0 72 -11t39 -31t16 -47.5t3 -60.5v-400zM258 550q1 26 -1.5 50.5t-13.5 44t-34.5 31.5
t-64.5 12q-20 0 -30.5 -13.5t-15 -34t-5.5 -45t-1 -45.5v-96q0 -49 -0.5 -124.5t0.5 -179.5q0 -33 1 -58.5t5.5 -43t15 -27t30.5 -9.5q42 0 65.5 12t34.5 31.5t13 44t1 50.5v400z" />
    <glyph glyph-name="one" unicode="1" horiz-adv-x="241" 
d="M18 642v12q37 1 61 8t38 15q16 10 24 22l1 -687h20v-12h-127v12h25v630h-42z" />
    <glyph glyph-name="three" unicode="3" horiz-adv-x="297" 
d="M76 446q19 0 32.5 11t22 29.5t11.5 42.5t3 50q0 21 -0.5 41t-5 35.5t-15 25.5t-29.5 10q-32 -3 -43.5 -8t-11 -11.5t8 -15t13 -17.5t4 -19.5t-18.5 -20.5q-14 -9 -25 -5t-16.5 15.5t-4.5 27t11 29.5t30 24t53 10q42 0 65.5 -14t34 -33.5t12 -40.5t1.5 -33
q2 -138 -107 -139q28 1 53.5 -10.5t45 -37t30.5 -67t11 -101.5q0 -42 -5 -82.5t-20.5 -71.5t-44.5 -50.5t-77 -19.5q-32 0 -52.5 10t-30.5 24t-11 29.5t4.5 27t16.5 15.5t25 -5q17 -10 18.5 -20.5t-4 -19.5t-13 -17.5t-8 -15t11 -11.5t43.5 -8q19 0 30.5 16t17.5 44.5
t7.5 68t1.5 86.5q-1 112 -18.5 160t-56.5 48v14z" />
    <glyph glyph-name="two" unicode="2" horiz-adv-x="319" 
d="M178 1q-14 -3 -29.5 2t-29.5 16q-17 13 -35 17q-15 3 -33.5 -3.5t-35.5 -32.5q-17 1 -13.5 44t22.5 117t51.5 174t73.5 215q15 41 17.5 68t-5.5 43t-24.5 22.5t-39.5 6.5q-33 -4 -44.5 -9t-11.5 -12t8 -14.5t13.5 -16.5t4.5 -19t-18 -20q-14 -9 -25 -5t-16.5 15.5
t-4.5 27t11 29.5t30 24t53 10q48 0 76 -22.5t40 -55.5t10.5 -70t-12.5 -65q-36 -96 -72.5 -170.5l-65.5 -131.5t-45.5 -99t-12.5 -74q15 24 32.5 30.5t33.5 4.5q18 -3 36 -14q16 -11 31.5 -17.5t29.5 -4.5q18 4 22 9.5t0.5 12t-10.5 13.5t-11 15.5t-2 17t17 18.5
q19 12 31.5 1.5t13 -29.5t-13.5 -39.5t-47 -28.5z" />
    <glyph glyph-name="uni0401" unicode="&#x401;" horiz-adv-x="312" 
d="M48 778q0 13 8.5 21.5t20.5 8.5q13 0 21 -8.5t8 -21.5q0 -11 -8 -19.5t-21 -8.5q-12 0 -20.5 8.5t-8.5 19.5zM157 778q0 13 8 21.5t21 8.5q12 0 20.5 -8.5t8.5 -21.5q0 -11 -8.5 -19.5t-20.5 -8.5q-13 0 -21 8.5t-8 19.5zM64 700h182v-44h-13v32h-127l1 -329v3q0 8 8 14
t29 6h47l1 21h13v-53h-13l-1 19h-51q-18 0 -25.5 -10t-7.5 -30v-317h126v32h13v-44h-246v12h25v676h-25v12h64z" />
    <glyph glyph-name="question" unicode="?" horiz-adv-x="277" 
d="M73 34q0 -14 9.5 -23.5t23.5 -9.5t24 9.5t10 23.5t-9.5 23.5t-23.5 9.5t-24 -9.5t-10 -23.5zM196 162q-12 -18 -39 -33t-55 -17t-49 15.5t-22.5 66.5t24 135t92.5 221q18 40 20.5 67t-6 43t-26 23t-40.5 7q-33 -4 -44.5 -9t-11.5 -12t8 -14.5t13.5 -16.5t4.5 -19t-18 -20
q-14 -9 -25 -5t-16.5 15.5t-4.5 27t11 29.5t30.5 24t52.5 10q48 0 77.5 -17t42 -42.5t11 -55.5t-14.5 -56l-146 -287q-17 -36 -17.5 -60.5t9 -38.5t27.5 -18.5t38 0.5t40 18.5t34 35.5v-17z" />
    <glyph glyph-name="ampersand" unicode="&#x26;" horiz-adv-x="447" 
d="M294 224q0 -42 -5 -82.5t-20.5 -71.5t-44.5 -50.5t-77 -19.5t-77 19.5t-44.5 50.5t-20.5 71.5t-5 82.5q0 60 11 101.5t30.5 67t45 37t53.5 10.5q-109 1 -107 139q0 12 1.5 33t12 40.5t34 33.5t65.5 14q32 0 52.5 -10t30.5 -24t11 -29.5t-4.5 -27t-16.5 -15.5t-25 5
q-17 10 -18.5 20.5t4 19.5t13 17.5t8 15t-11 11.5t-43.5 8q-20 2 -30 -7.5t-14 -26t-4.5 -37t-0.5 -41.5q0 -26 3 -50t11 -42.5t21 -29.5t33 -11v-14q-39 0 -56.5 -48t-18.5 -160q0 -47 1.5 -86.5t7.5 -68t17 -44.5t31 -16q28 0 49 9t36 24t24.5 34.5t15.5 39.5
q13 48 11 108q-24 0 -42 -1t-30 -5t-18 -12.5t-6 -24.5h-7q0 36 7.5 56t21 29t33.5 10.5t46 1.5q27 0 46 -0.5t31.5 2.5t18 11.5t5.5 27.5h7q0 -36 -6 -55t-19 -28t-32 -10.5t-45 -1.5z" />
    <glyph glyph-name="exclam" unicode="!" horiz-adv-x="135" 
d="M7 34q0 14 9 25t23 11t24.5 -11t10.5 -25t-10 -23.5t-24 -9.5t-23.5 9.5t-9.5 23.5zM63 400q-3 -50 -6.5 -98t-6 -85.5t-3.5 -60.5l-1 -23q0 -9 -6 -9q-5 0 -5 9l-35 535q0 14 13 23t27 9t27.5 -9t13.5 -23z" />
    <glyph glyph-name="period" unicode="." horiz-adv-x="91" 
d="M0 34q0 14 9.5 25t23.5 11t24 -11t10 -25t-10 -23.5t-24 -9.5t-23.5 9.5t-9.5 23.5z" />
    <glyph glyph-name="comma" unicode="," horiz-adv-x="101" 
d="M1 -48q29 16 37.5 26t5.5 16t-13 10.5t-19 10.5t-12 15.5t9 25.5q9 14 21 14.5t21 -7.5t14.5 -22.5t1.5 -31.5t-18.5 -34.5t-43.5 -30.5z" />
    <glyph glyph-name="quotesingle" unicode="'" horiz-adv-x="91" 
d="M2 580q29 16 37.5 26t5.5 16t-13 10.5t-19 10.5t-12 15.5t9 25.5q9 14 21 14.5t21 -7.5t14.5 -22.5t1.5 -31.5t-18.5 -34.5t-43.5 -30.5z" />
    <glyph glyph-name="quotedbl" unicode="&#x22;" horiz-adv-x="186" 
d="M2 580q29 16 37.5 26t5.5 16t-13 10.5t-19 10.5t-12 15.5t9 25.5q9 14 21 14.5t21 -7.5t14.5 -22.5t1.5 -31.5t-18.5 -34.5t-43.5 -30.5zM96 580q29 16 37.5 26t5.5 16t-13 10.5t-19 10.5t-12 15.5t9 25.5q9 14 21 14.5t21 -7.5t14.5 -22.5t1.5 -31.5t-18.5 -34.5
t-43.5 -30.5z" />
    <glyph glyph-name="numbersign" unicode="#" horiz-adv-x="552" 
d="M35 56l205 567l12 -4q-1 -2 -10 -27.5l-23.5 -66l-33 -91.5l-37.5 -103l-101 -279zM242 56l205 567l12 -4q-1 -2 -9.5 -26.5l-23 -64l-32.5 -89.5l-37 -102l-37 -102l-32.5 -90l-23.5 -65.5t-10 -27.5zM-8 255h457l-1 -13h-456v13zM55 456h457l-1 -13h-456v13z" />
    <glyph glyph-name="uni2116" unicode="&#x2116;" horiz-adv-x="574" 
d="M249 0l-98 242l-37 92l-33 84l-25 65.5t-12 36.5v-508h20v-12h-64v12h25v676h-25v12h64l210 -531v519h-25v12h64v-12h-21v-340v-125.5t0.5 -110.5t0.5 -79.5v-32.5h-44zM360 616q0 14 1.5 29t9 27.5t24.5 20.5t49 8t50 -7t26.5 -18.5t10 -27t0.5 -32.5v-78q0 -21 -1 -37
t-9.5 -26.5t-26 -15.5t-50.5 -5q-32 0 -49 5t-24.5 15.5t-9 26.5t-1.5 37v78zM410 538q0 -18 0.5 -33t3.5 -25.5t10 -16.5t20 -6q25 0 29.5 22t3.5 59v78q0 15 -0.5 29.5t-3.5 26t-10 19t-19 7.5q-13 0 -20 -8.5t-10 -20.5t-3.5 -26.5t-0.5 -26.5v-78zM485 414h37v-16h-156
v16h119z" />
    <glyph glyph-name="plus" unicode="+" horiz-adv-x="493" 
d="M-3 341h414v-12h-414v12zM193 130v422h13v-422h-13z" />
    <glyph glyph-name="slash" unicode="/" horiz-adv-x="339" 
d="M5 11l268 689l16 -5q-1 -3 -13 -34l-31 -80l-43 -110.5l-49 -125.5l-132 -339z" />
    <glyph glyph-name="Euro" unicode="&#x20ac;" 
 />
    <glyph glyph-name="colon" unicode=":" horiz-adv-x="112" 
d="M0 34q0 14 9.5 25t23.5 11t24 -11t10 -25t-10 -23.5t-24 -9.5t-23.5 9.5t-9.5 23.5zM0 465q0 14 9.5 25t23.5 11t24 -11t10 -25t-10 -23.5t-24 -9.5t-23.5 9.5t-9.5 23.5z" />
    <glyph glyph-name="semicolon" unicode=";" horiz-adv-x="114" 
d="M0 465q0 14 9.5 25t23.5 11t24 -11t10 -25t-10 -23.5t-24 -9.5t-23.5 9.5t-9.5 23.5zM1 -48q29 16 37.5 26t5.5 16t-13 10.5t-19 10.5t-12 15.5t9 25.5q9 14 21 14.5t21 -7.5t14.5 -22.5t1.5 -31.5t-18.5 -34.5t-43.5 -30.5z" />
    <glyph glyph-name="four" unicode="4" horiz-adv-x="405" 
d="M1 185v41l170 474h92v-688h20v-12h-127v12h25v676l-166 -462l181 1h71t50 4t29.5 12.5t9.5 23.5h8q1 -31 -14.5 -48t-40 -24.5t-54.5 -8.5t-59 -1h-195z" />
    <glyph glyph-name="five" unicode="5" horiz-adv-x="308" 
d="M0 700q27 0 63.5 -0.5t70 2.5t56.5 11.5t23 27.5h7q0 -36 -23 -55t-55.5 -27.5t-68 -10t-61.5 -1.5v-215q6 7 11.5 12.5t14 9t22 5.5t35.5 2q49 0 75.5 -12t39.5 -33t15.5 -48t2.5 -57v-161q0 -37 -2 -65t-15 -47t-40 -28.5t-77 -9.5q-33 0 -53 10t-30 24t-11 29.5
t4.5 27t16.5 15.5t25 -5q17 -11 18.5 -20.5t-4 -18.5t-13 -17t-8 -14.5t11 -11t43.5 -7.5q19 -1 29.5 8.5t16 27.5t6 43.5t0.5 58.5v161q0 27 -1 52t-6 44.5t-15.5 31.5t-28.5 12q-33 -1 -53.5 -9.5t-41.5 -39.5v298z" />
    <glyph glyph-name="six" unicode="6" horiz-adv-x="319" 
d="M77 449q8 7 22.5 9.5t27.5 2.5q49 0 75.5 -12t39.5 -33t15.5 -48t2.5 -57v-161q0 -37 -1 -65t-12.5 -47t-37.5 -28.5t-76 -9.5q-48 0 -75 9.5t-40 28.5t-15.5 46.5t-2.5 65.5q-1 120 -0.5 197t0.5 122v81q0 24 2 50.5t14 48.5t38.5 36.5t74.5 14.5q43 0 69 -10t38.5 -24
t13.5 -29.5t-5.5 -26.5t-19 -15.5t-26.5 4.5q-17 10 -19 20.5t1 20t7.5 18.5t2.5 16t-15.5 11t-46.5 5q-20 0 -30.5 -14t-15 -35t-5.5 -45.5t-1 -45.5v-101zM77 435v-39q0 -28 -0.5 -85t0.5 -161q0 -33 1.5 -58.5t7 -43t16.5 -27t31 -9.5q29 -1 37.5 35.5t7.5 102.5v161
q0 27 -1 52t-6 44.5t-15.5 31.5t-28.5 12q-11 0 -27.5 -3t-22.5 -13z" />
    <glyph glyph-name="nine" unicode="9" horiz-adv-x="320" 
d="M183 291q-8 -7 -23 -9.5t-28 -2.5q-49 0 -76 12t-39.5 33t-15 48t-2.5 57v120q0 37 2 65t14 47t39 28.5t77 9.5q48 0 74.5 -9.5t38.5 -28.5t14 -47t2 -65v-319v-81q0 -24 -2 -50.5t-14 -48.5t-38.5 -36.5t-74.5 -14.5q-43 0 -69 10t-38.5 24t-13.5 29.5t5.5 26.5t19 15.5
t26.5 -4.5q16 -10 18.5 -20.5t-0.5 -20t-7.5 -18.5t-2.5 -16t15.5 -11.5t46.5 -4.5q19 0 30 14t15.5 35t5.5 45.5t1 45.5v142zM183 305v18v226q0 33 -1 58.5t-5.5 43t-15.5 27t-30 9.5q-29 1 -40 -35.5t-10 -102.5v-120q0 -27 1 -52t6 -44.5t15.5 -31.5t28.5 -12q11 0 28 3
t23 13z" />
    <glyph glyph-name="seven" unicode="7" horiz-adv-x="353" 
d="M41 677q-16 -10 -17.5 -16.5t3.5 -11t14.5 -9t16.5 -10.5t8 -15.5t-10 -23.5q-14 -18 -29.5 -12t-22.5 23.5t-1 41.5t35 43q12 6 28.5 9.5t34.5 3t35 -5t31 -14.5q17 -13 35 -17q15 -3 33.5 3.5t35.5 33.5l-163 -688h20v-12h-127v12h25l162 646q-10 3 -14 6q-3 2 -5 4
q-17 12 -35 17t-35 5t-32.5 -3.5t-25.5 -9.5z" />
    <glyph glyph-name="eight" unicode="8" horiz-adv-x="328" 
d="M98 380q-13 -8 -31 -37.5t-31.5 -70t-20.5 -85.5t1.5 -83t35.5 -64.5t80 -28.5q19 0 39.5 6.5t35.5 22t21 42.5t-4 68t-40 97.5t-86 132.5zM90 392q-53 66 -71.5 122t-10.5 97t40 65t82 24q39 0 62.5 -16.5t33 -42.5t8 -57.5t-11 -61.5t-26 -54.5t-35.5 -36.5
q52 -63 80 -119t36 -104t-1.5 -86t-30 -65t-50.5 -41.5t-63 -14.5q-54 2 -83.5 27.5t-40.5 64t-7 84t17.5 88.5t32.5 77t39 50zM154 440q35 34 50 70t16.5 67.5t-6.5 55t-18 32.5q-18 16 -39.5 22.5t-40 2.5t-30.5 -20.5t-11 -46.5t19 -75.5t60 -107.5z" />
    <glyph glyph-name="uni0436" unicode="&#x436;" horiz-adv-x="599" 
d="M306 12h20v-12h-127v12h25v353q-13 0 -31 -1.5t-34 -15.5t-27 -45.5t-11 -91.5q0 -50 -1.5 -89t-13.5 -66t-38 -41t-74 -14v13q19 0 28.5 13t13 37.5t3.5 61.5t1 85q0 43 7.5 75.5t26 54t49 32t76.5 10.5q-38 0 -53 13t-19.5 39t-6 65t-11.5 90q-6 32 -12 45t-13 14
t-15 -5.5t-17.5 -11.5t-20.5 -4.5t-23 14.5q-11 13 -8.5 26.5t12.5 22t26 10.5t32.5 -8t30.5 -34t22 -66q12 -59 13 -97.5t6.5 -62t22 -33t59.5 -9.5v297h-25v12h127v-12h-21v-298q43 0 60 9.5t23 33t8 62t14 97.5q7 42 21.5 66t31 34t32.5 8t26 -10.5t12.5 -22t-8.5 -26.5
q-13 -14 -23.5 -14.5t-20 4.5t-17.5 11.5t-15 5.5t-13 -14t-12 -45q-11 -51 -12.5 -90t-7 -65t-21 -39t-53.5 -13q46 0 76.5 -10.5t49 -32t26 -54t7.5 -75.5q1 -48 1 -85t3.5 -61.5t12.5 -37.5t29 -13v-13q-48 0 -74 14t-38 41t-13.5 66t-1.5 89q0 60 -11 91.5t-27 45.5
t-34 15.5t-31 1.5z" />
    <glyph glyph-name="uni0437" unicode="&#x437;" horiz-adv-x="347" 
d="M121 12q19 0 30.5 15.5t17.5 43.5t7.5 67t1.5 86q-1 112 -18.5 160t-56.5 48v14q19 0 32.5 11t22 29.5t11.5 42.5t3 50q0 21 -0.5 41t-5 35.5t-15 24.5t-29.5 8q-33 0 -46.5 -4t-15.5 -10.5t2.5 -15.5t7.5 -18.5t0.5 -20t-18.5 -20.5q-14 -9 -26.5 -4.5t-19 15.5
t-5.5 26.5t13.5 29.5t38.5 24t69 10q42 0 65.5 -14t34 -33.5t12 -40.5t1.5 -33q2 -138 -107 -139q28 1 53.5 -10.5t45 -37t30.5 -67t11 -101.5q0 -42 -5 -82.5t-20.5 -71.5t-44.5 -50.5t-77 -19.5q-43 0 -69 10t-38.5 24t-13.5 29.5t5.5 26.5t18.5 15t27 -4q17 -10 19 -20.5
t-1 -20t-7.5 -18.5t-2.5 -15.5t15.5 -10.5t46.5 -4z" />
    <glyph glyph-name="uni0439" unicode="&#x439;" horiz-adv-x="434" 
d="M177 757q29 2 39.5 7t10 11t-7 13.5t-11.5 16t-4 17.5t17 19q13 8 23 4t15 -14t4 -24t-10 -26.5t-27.5 -21.5t-48.5 -9q-44 0 -63.5 18.5t-21.5 38.5t10 33t32 1q15 -10 16.5 -19t-3.5 -17.5t-12 -16t-7 -13.5t10 -11t39 -7zM247 540l-6.5 -18.5t-16 -49l-22 -69.5
l-25.5 -79l-70 -215v-97h20v-12h-127v12h25v676h-25v12h127v-12h-21l1 -540l6.5 18.5l16.5 49l22.5 69l25.5 79.5l69 215v109h-25v12h127v-12h-21l1 -676h20v-12h-127v12h25v528z" />
    <glyph glyph-name="uni043A" unicode="&#x43a;" horiz-adv-x="430" 
d="M209 592q7 42 21.5 66t31 34t32.5 8t26 -10.5t12.5 -22t-8.5 -26.5q-13 -14 -23.5 -14.5t-20 4.5t-17.5 11.5t-15 5.5t-13 -14t-12 -45q-11 -51 -12 -90t-6 -65t-20.5 -39t-53.5 -13q46 0 76.5 -10.5t49 -32t26 -54t7.5 -75.5q1 -48 1 -85t3.5 -61.5t12.5 -37.5t29 -13
v-13q-48 0 -74 14t-38 41t-13.5 66t-1.5 89q0 60 -11 91.5t-27 45.5t-34 15.5t-31 1.5l1 -352h20v-12h-127v12h25v676h-25v12h127v-12h-21v-298q43 0 60 9.5t22.5 33t7 62t13.5 97.5z" />
    <glyph glyph-name="uni043C" unicode="&#x43c;" horiz-adv-x="505" 
d="M169 173l-130 439l3 -600h23v-12h-65v12h25v676h-25v12h106l102 -358l116 358h87v-12h-25l1 -676h24v-12h-135v12h29v581z" />
    <glyph glyph-name="uni0443" unicode="&#x443;" horiz-adv-x="410" 
d="M87 13q15 0 26 9.5t19 26.5t15 40l15 49l-155 550h-20v12h123v-12h-23l115 -407l99 407h-19v12h51v-12h-17l-141 -565q-9 -30 -17.5 -53t-18 -38.5t-22.5 -23t-31 -7.5q-25 0 -41 10.5t-23.5 24.5t-8 29.5t5 26.5t16.5 15t25 -5q17 -10 19.5 -20.5t-2 -19.5t-11.5 -17
t-10 -14.5t3 -11t28 -6.5z" />
    <glyph glyph-name="uni0444" unicode="&#x444;" horiz-adv-x="493" 
d="M245 93q19 0 34 8t25.5 36.5t15.5 83.5t5 149q0 80 -5.5 128.5t-15.5 74.5t-25.5 34.5t-34.5 8.5zM245 12h20v-12h-127v12h25v68q-48 0 -78.5 10.5t-47 41t-22.5 87.5t-6 151q0 82 6 132.5t22.5 78.5t47 37.5t78.5 9.5v59h-25v13h127v-12h-21v-60q48 0 79 -9.5
t48.5 -37.5t24 -78.5t6.5 -132.5q0 -94 -6.5 -151t-23.5 -87.5t-48 -41t-79 -10.5v-68zM163 616q-20 0 -34 -8.5t-24 -34.5t-14.5 -74.5t-4.5 -128.5q0 -94 4.5 -149t14.5 -83.5t24 -36.5t34 -8v523z" />
    <glyph glyph-name="uni0445" unicode="&#x445;" horiz-adv-x="401" 
d="M126 318l-116 370h-21v12h130v-12h-25l87 -286l106 286h-22v12h55v-12h-18l-113 -302l110 -374h21v-12h-132v12h25l-77 288l-114 -288h22v-12h-55v12h18z" />
    <glyph glyph-name="uni0446" unicode="&#x446;" horiz-adv-x="488" 
d="M0 0v13h25v675h-25v12h127v-12h-20l-1 -675h159v675h-25v12h127v-12h-20l-1 -675h77v-59h-14v46h-409z" />
    <glyph glyph-name="uni0447" unicode="&#x447;" horiz-adv-x="443" 
d="M248 286q-26 -30 -64 -38t-73.5 5.5t-60.5 49t-25 92.5v293h-25v12h127v-12h-21v-293q0 -58 12.5 -89t33 -40t46 2t50.5 37v383h-25v12h127v-12h-21l1 -676h20v-12h-127v12h25v274z" />
    <glyph glyph-name="uni0448" unicode="&#x448;" horiz-adv-x="609" 
d="M218 12v676h-25v12h127v-12h-20l-1 -676h117v676h-25v12h131v-12h-24l-1 -676h26v-12h-523v12h25v676h-25v12h127v-12h-20l-1 -676h112z" />
    <glyph glyph-name="uni0449" unicode="&#x449;" horiz-adv-x="640" 
d="M0 0v12h25v676h-25v12h127v-12h-20l-1 -676h116v676h-25v12h127v-12h-20l-1 -676h123v676h-25v12h127v-12h-20l-1 -676h72v-56h-12v44h-567z" />
    <glyph glyph-name="uni044A" unicode="&#x44a;" horiz-adv-x="439" 
d="M174 12q20 0 37 2t29.5 21t19.5 61t7 123q0 82 -1.5 129t-7 70.5t-16.5 29.5t-30 6q-21 0 -29 6t-8 14zM68 0v12h25v676h-80v-39h-13v51h175v-192q0 -20 7.5 -30t25.5 -10q48 0 75.5 -5t41 -30t16.5 -76.5t3 -145.5q0 -79 -8.5 -122t-28.5 -62.5t-52.5 -23t-80.5 -3.5
h-106z" />
    <glyph glyph-name="uni044B" unicode="&#x44b;" horiz-adv-x="522" 
d="M303 688v12h127v-12h-21l1 -676h20v-12h-127v12h25v676h-25zM0 0v12h25v676h-25v12h127v-12h-20v-180q0 -20 7.5 -30t25.5 -10q48 0 75.5 -5t40.5 -29t16.5 -74t3.5 -141q0 -82 -8 -126.5t-28 -65t-53 -24t-81 -3.5h-106zM106 12q19 0 36.5 2t30 21t19.5 61t7 123
q0 82 -1.5 129t-7 70.5t-16.5 29.5t-30 6q-21 0 -29 6t-8 14z" />
    <glyph glyph-name="uni044E" unicode="&#x44e;" horiz-adv-x="520" 
d="M165 550q0 24 2 50.5t14 48.5t38.5 36.5t74.5 14.5q49 0 75.5 -12.5t39 -33t14.5 -47.5t1 -57q0 -76 0.5 -133.5t0.5 -100t0.5 -71.5t0.5 -47q0 -43 1 -48q0 -38 -2 -66t-14.5 -46.5t-39.5 -28t-77 -9.5q-48 0 -74.5 9.5t-38.5 28.5t-14 46.5t-2 65.5v177h-58v-315h20
v-12h-127v12h25v676h-25v12h127v-12h-21l1 -349h30h28v211zM242 150q0 -33 1 -58.5t5.5 -43t15 -27t30.5 -9.5q19 0 29.5 9.5t15.5 27t5.5 43t0.5 58.5v68q0 42 -0.5 120.5t-1.5 211.5q1 26 0 50.5t-5.5 44t-15 31.5t-28.5 12q-20 0 -30.5 -13.5t-15 -34t-5.5 -45t-1 -45.5
v-96q0 -49 -0.5 -124.5t0.5 -179.5z" />
    <glyph glyph-name="uni0451" unicode="&#x451;" horiz-adv-x="337" 
d="M48 778q0 13 8.5 21.5t20.5 8.5q13 0 21 -8.5t8 -21.5q0 -11 -8 -19.5t-21 -8.5q-12 0 -20.5 8.5t-8.5 19.5zM157 778q0 13 8 21.5t21 8.5q12 0 20.5 -8.5t8.5 -21.5q0 -11 -8.5 -19.5t-20.5 -8.5q-13 0 -21 8.5t-8 19.5zM64 700h182v-44h-13v32h-127l1 -329v3q0 8 8 14
t29 6h47l1 21h13v-53h-13l-1 19h-51q-18 0 -25.5 -10t-7.5 -30v-317h126v32h13v-44h-246v12h25v676h-25v12h64z" />
    <glyph glyph-name="a" unicode="a" horiz-adv-x="372" 
d="M167 182l-72 469l-67 -500q0 15 20.5 23t44.5 8h74zM169 172h-80q-9 0 -19.5 -1.5t-20 -6t-16 -12t-7.5 -19.5l-16 -123h17v-10h-11.5h-16.5h-14.5t-6.5 1v9h16q0 1 4 30.5l10.5 77l14.5 108.5l16 124l43 338h-25v12h108l125 -690h20v-10h-143v10h25z" />
    <glyph glyph-name="b" unicode="b" horiz-adv-x="366" 
d="M107 14q23 0 40.5 3.5t29 25.5t17.5 70t6 137q0 67 -2 108.5t-9 65t-19 32t-31 8.5q-18 0 -25.5 -10t-7.5 -30zM0 700h106q48 0 76.5 -9.5t43.5 -26t19.5 -37.5t4.5 -43q0 -26 -1 -46.5t-8 -35t-21 -22.5t-40 -8q36 0 56 -16.5t29 -45.5t10.5 -70t1.5 -90
q0 -93 -8.5 -143.5t-28 -74.5t-52 -28t-81.5 -4h-107v14h25v672h-25v14zM106 459q0 8 8 14t29 6q18 0 28 2t15 10.5t6 25.5t1 47q0 46 -5.5 70.5t-16.5 36t-27 13.5t-38 2v-227z" />
    <glyph glyph-name="c" unicode="c" horiz-adv-x="326" 
d="M129 12q33 0 46.5 4t15.5 10.5t-2.5 15.5t-7.5 18.5t-1 20t19 20.5q14 8 26.5 4t19 -15t5.5 -26.5t-13.5 -29.5t-38.5 -24t-69 -10q-48 0 -74.5 9.5t-38.5 28.5t-14 46.5t-2 65.5q-1 120 -0.5 197t0.5 122v81q0 24 2 50.5t14 48.5t38 36.5t74 14.5q43 0 69 -10t38.5 -24
t13.5 -29.5t-5.5 -26.5t-19 -15.5t-26.5 4.5q-17 10 -19 20.5t1 20t7.5 18.5t2.5 15.5t-15.5 10.5t-46.5 4q-20 0 -30 -13.5t-15 -34t-5.5 -45t-0.5 -45.5v-96q0 -49 -0.5 -124.5t0.5 -179.5q0 -33 1 -58.5t5.5 -43t15 -27t30.5 -9.5z" />
    <glyph glyph-name="d" unicode="d" horiz-adv-x="358" 
d="M106 13q13 0 25 2t22.5 13t19 34.5t14.5 66.5t9 108.5t3 160.5q0 108 -7 166.5t-20 85.5t-30 31.5t-36 4.5v-673zM0 0v13h25v673h-25v12h106q32 0 57.5 -1.5t44 -9.5t31.5 -26t21.5 -51t12 -85t3.5 -127q0 -100 -3.5 -168t-11.5 -112.5t-21 -68.5t-32 -34.5t-44.5 -12.5
t-57.5 -2h-106z" />
    <glyph glyph-name="e" unicode="e" horiz-adv-x="316" 
d="M246 700v-44h-13v32h-127l1 -327q0 10 8 15.5t29 5.5h48v21h13v-53h-13v19h-52q-18 0 -25.5 -10t-7.5 -30v-317h126v32h13v-44h-246v12h25v676h-25v12h246z" />
    <glyph glyph-name="f" unicode="f" horiz-adv-x="318" 
d="M246 700v-44h-13v32h-127l1 -329v3q0 8 8 14t29 6h47l1 21h13v-53h-13l-1 19h-51q-18 0 -25.5 -10t-7.5 -30v-317h31v-12h-138v12h25v676h-25v12h246z" />
    <glyph glyph-name="g" unicode="g" horiz-adv-x="343" 
d="M129 690q-20 0 -30.5 -14t-15 -35t-5.5 -45.5t-1 -45.5v-96q0 -49 -0.5 -124.5t0.5 -179.5q0 -33 1 -58.5t5.5 -43t15 -27t30.5 -9.5q22 1 37 14t15 27v98v124q0 33 1 54t-2 33t-12 16.5t-28 4.5v10q48 0 72.5 -9.5t34.5 -28.5t10 -47v-65v-115q0 -44 -1 -68t0.5 -35
t6 -12.5t16.5 -1.5v-11h-78q-9 0 -13.5 4t-6 9t-1 9t-0.5 5l-6 -6q-8 -8 -17 -14.5t-28 -6.5q-48 0 -74.5 9.5t-38.5 28.5t-14 46.5t-2 65.5q-1 120 -0.5 197t0.5 122v81q0 24 2 50.5t14 48.5t38.5 36.5t74.5 14.5q43 0 69 -10t38.5 -24t13.5 -29.5t-5.5 -26.5t-19 -15.5
t-26.5 4.5q-17 10 -19 20.5t1 20t7.5 18.5t2.5 16t-15.5 11t-46.5 5z" />
    <glyph glyph-name="h" unicode="h" horiz-adv-x="420" 
d="M241 332h-73q-6 0 -16.5 -1t-20.5 -4.5t-17 -9.5t-7 -16v-289h20v-12h-127v12h25v676h-25v12h127v-12h-21l1 -360q0 4 6 7t16 5.5t21 4t22 1.5h69v342h-25v12h127v-12h-21l1 -676h20v-12h-127v12h25v320z" />
    <glyph glyph-name="i" unicode="i" horiz-adv-x="193" 
d="M2 688v12h127v-12h-21l1 -676h20v-12h-127v12h25v676h-25z" />
    <glyph glyph-name="j" unicode="j" horiz-adv-x="335" 
d="M122 10q19 0 30 9.5t15.5 27.5t5.5 44t1 59v181.5v139.5v113.5v103.5h-25v12h123v-12h-21v-538q0 -38 -2 -65.5t-14 -46.5t-38.5 -28.5t-74.5 -9.5q-43 0 -69 10t-38.5 24t-13.5 29.5t5.5 26.5t18.5 15t27 -4q16 -10 18.5 -20.5t-0.5 -20.5t-7.5 -19t-2.5 -16t15.5 -11
t46.5 -4z" />
    <glyph glyph-name="k" unicode="k" horiz-adv-x="401" 
d="M107 234v-222h20v-12h-127v12h25v676h-25v12h127v-12h-21l1 -423l171 423h-21v12h53v-12h-19l-96 -242l128 -434h21v-12h-132v12h25l-95 309z" />
    <glyph glyph-name="l" unicode="l" horiz-adv-x="297" 
d="M25 0v688h-25v12h127v-12h-20l-1 -676h95l1 41h13v-53h-190z" />
    <glyph glyph-name="m" unicode="m" horiz-adv-x="476" 
d="M169 173l-130 439l3 -600h23v-12h-65v12h25v676h-25v12h106l102 -358l116 358h87v-12h-25l1 -676h24v-12h-135v12h29v581z" />
    <glyph glyph-name="n" unicode="n" horiz-adv-x="376" 
d="M249 0l-98 242l-37 92l-33 84l-25 65.5t-12 36.5v-508h20v-12h-64v12h25v676h-25v12h64l210 -531v519h-25v12h64v-12h-21v-340v-125.5t0.5 -110.5t0.5 -79.5v-32.5h-44z" />
    <glyph glyph-name="o" unicode="o" horiz-adv-x="337" 
d="M15 150q-1 120 -0.5 197t0.5 122v81q0 24 2 50.5t14 48.5t38.5 36.5t74.5 14.5q49 0 75.5 -12.5t39 -33t14.5 -47.5t1 -57q0 -76 0.5 -133.5t0.5 -100t0.5 -71.5t0.5 -47q0 -43 1 -48q0 -38 -2 -66t-14.5 -46.5t-39.5 -28t-77 -9.5q-48 0 -74.5 9.5t-38.5 28.5t-14 46.5
t-2 65.5zM92 150q0 -33 1 -58.5t5.5 -43t15 -27t30.5 -9.5q19 0 29.5 9.5t15.5 27t5.5 43t0.5 58.5v68q0 42 -0.5 120.5t-1.5 211.5q1 26 0 50.5t-5.5 44t-15 31.5t-28.5 12q-20 0 -30.5 -13.5t-15 -34t-5.5 -45t-1 -45.5v-96q0 -49 -0.5 -124.5t0.5 -179.5z" />
    <glyph glyph-name="p" unicode="p" horiz-adv-x="347" 
d="M122 12h20v-12h-127v12h25v676h-25v12h106v-12l1 -462q0 8 8 14t29 6q19 0 30 6t16.5 29.5t7 70.5t1.5 129q0 81 -7 123t-19.5 61t-30 21t-36.5 2v12q48 0 81 -3.5t53 -24t28 -65t8 -126.5q0 -91 -3.5 -141t-16.5 -74t-40.5 -29t-75.5 -5q-18 0 -25.5 -10t-7.5 -30v-180z
" />
    <glyph glyph-name="q" unicode="q" horiz-adv-x="387" 
d="M15 150q-1 120 -0.5 197t0.5 122v81q0 24 2 50.5t14 48.5t38.5 36.5t74.5 14.5q49 0 75.5 -12.5t39 -33t14.5 -47.5t1 -57q0 -76 0.5 -133.5t0.5 -100t0.5 -71.5t0.5 -47q0 -43 1 -48q0 -38 -2 -66t-14.5 -46.5t-39.5 -28t-77 -9.5q-48 0 -74.5 9.5t-38.5 28.5t-14 46.5
t-2 65.5zM92 150q0 -33 1 -58.5t5.5 -43t15 -27t30.5 -9.5q19 0 29.5 9.5t15.5 27t5.5 43t0.5 58.5v68q0 42 -0.5 120.5t-1.5 211.5q1 26 0 50.5t-5.5 44t-15 31.5t-28.5 12q-20 0 -30.5 -13.5t-15 -34t-5.5 -45t-1 -45.5v-96q0 -49 -0.5 -124.5t0.5 -179.5zM145 52
q0 -45 14.5 -69t31.5 -35q20 -13 47 -14q28 0 38 3.5t9.5 10.5t-7 15.5t-10.5 18.5t-2 20.5t19 21.5q14 9 25 4.5t17 -16t4.5 -27t-11.5 -29.5t-30 -23t-53 -8q-29 2 -52 16q-20 12 -35.5 37.5t-15.5 73.5h11z" />
    <glyph glyph-name="r" unicode="r" horiz-adv-x="366" 
d="M166 328q41 -2 63.5 -10.5t33 -27.5t12 -49t1.5 -73q1 -48 0 -78t1.5 -47.5t10.5 -23.5t28 -6v-13q-48 0 -72.5 7.5t-34.5 27t-10 51.5v82q0 60 -4 91.5t-12.5 45.5t-19.5 15.5t-24 1.5q-18 0 -25.5 -10t-7.5 -30l1 -269h20v-13h-127v13h25v675h-25v12h106v-12v-370
q0 8 8 13t29 5q19 0 30.5 3t17 22t7 59.5t1.5 115.5q0 53 -7 83.5t-20 45.5t-30 19t-36 4v12q48 0 81 -5t52.5 -22t28 -49.5t8.5 -87.5q0 -60 -2 -100t-12.5 -64t-33 -34t-62.5 -10z" />
    <glyph glyph-name="s" unicode="s" horiz-adv-x="326" 
d="M121 11q23 0 39.5 6.5t24.5 22.5t5.5 43t-18.5 68l-160 378q-10 27 -11 57.5t11 55.5t40 41.5t76 16.5q43 0 69 -10t38.5 -24t13.5 -29.5t-5.5 -26.5t-19 -15.5t-26.5 4.5q-17 10 -19 20.5t1 20t7.5 18.5t2.5 16t-15.5 11t-46.5 5q-23 0 -39.5 -6.5t-24.5 -22.5t-5.5 -43
t17.5 -68l160 -378h1q10 -27 11 -57.5t-11 -55.5t-40 -41.5t-76 -16.5q-43 0 -69 10t-38.5 24t-13.5 29.5t5.5 26.5t18.5 15t27 -4q17 -10 19 -20.5t-1 -20.5t-7.5 -19t-2.5 -16t15.5 -11t46.5 -4z" />
    <glyph glyph-name="t" unicode="t" horiz-adv-x="339" 
d="M285 700v-49h-13v37h-99l1 -676h20v-12h-127v12h25v676h-94v-37h-13v49h300z" />
    <glyph glyph-name="u" unicode="u" horiz-adv-x="366" 
d="M259 550q0 -76 0.5 -133.5t0.5 -100t0.5 -71.5t0.5 -47q0 -43 1 -48q0 -38 -2 -66t-14.5 -46.5t-39.5 -28t-77 -9.5q-48 0 -74.5 9.5t-38.5 28.5t-14 46.5t-2 65.5q-1 120 -0.5 197t0.5 122v81v138h-25v12h123v-12h-21v-138v-96q0 -49 -0.5 -124.5t0.5 -179.5
q0 -33 1 -58.5t5.5 -43t15 -27t30.5 -9.5q19 0 29.5 9.5t15.5 27t5.5 43t0.5 58.5v68q0 42 -0.5 120.5t-1.5 211.5v138h-25v12h127v-12h-21v-138z" />
    <glyph glyph-name="v" unicode="v" horiz-adv-x="368" 
d="M310 690h-16q-1 -1 -5 -31t-10 -79l-14 -111l-16 -126l-43 -343l-81 -1l-125 691h-20v10h143v-10h-25l97 -641l85 641h-17v10h11h16h14t6 -1v-9z" />
    <glyph glyph-name="w" unicode="w" horiz-adv-x="551" 
d="M239 352q-1 -1 -3.5 -16.5l-6.5 -40.5l-9 -56.5l-10 -64.5l-27 -174l-81 -1l-102 691h-20v10h143v-10h-25l74 -641l60 351l-43 290h-20v10h143v-10h-25l74 -641l108 641h-17v10h11.5h16.5h14.5t6.5 -1v-9h-16q-1 -1 -6 -31l-13 -79l-18.5 -111l-20.5 -126l-55 -343
l-81 -1z" />
    <glyph glyph-name="x" unicode="x" horiz-adv-x="395" 
d="M126 318l-116 370h-21v12h130v-12h-25l87 -286l106 286h-22v12h55v-12h-18l-113 -302l110 -374h21v-12h-132v12h25l-77 288l-114 -288h22v-12h-55v12h18z" />
    <glyph glyph-name="y" unicode="y" horiz-adv-x="368" 
d="M126 318l-104 370h-22v12h118v-12h-23l86 -338l92 338h-21v12h55v-12h-19l-99 -354v-322h21v-12h-109v12h25v306z" />
    <glyph glyph-name="z" unicode="z" horiz-adv-x="355" 
d="M21 10l135 680h-144v-25h-12v35h274v-10h-20l-135 -680h144v25h12v-35h-274v10h20z" />
    </font>
</defs>
</svg>
