<svg xmlns="http://www.w3.org/2000/svg" xmlns:xlink="http://www.w3.org/1999/xlink" preserveAspectRatio="xMidYMid" width="16.06" height="19" viewBox="0 0 16.06 19">
  <defs>
    <style>
      .cls-1 {
        fill: #d6ad76;
        fill-rule: evenodd;
      }
    </style>
  </defs>
  <path d="M15.539,10.378 C15.295,11.010 14.903,11.630 14.377,12.214 L8.557,18.765 C8.425,18.914 8.232,18.999 8.029,18.999 C7.826,18.999 7.633,18.914 7.502,18.765 L1.680,12.212 C1.156,11.631 0.764,11.012 0.518,10.374 C-0.404,8.038 -0.056,5.394 1.450,3.306 C2.963,1.207 5.361,0.003 8.029,0.003 C10.697,0.003 13.096,1.207 14.609,3.306 C16.115,5.394 16.462,8.038 15.539,10.378 ZM13.468,4.061 C12.218,2.327 10.235,1.332 8.029,1.332 C5.824,1.332 3.841,2.327 2.590,4.061 C1.343,5.791 1.054,7.977 1.816,9.908 C2.006,10.402 2.314,10.884 2.732,11.348 L8.029,17.310 L13.324,11.352 C13.325,11.350 13.326,11.349 13.327,11.348 C13.745,10.884 14.053,10.401 14.241,9.913 C15.005,7.977 14.716,5.791 13.468,4.061 ZM8.029,11.383 C5.889,11.383 4.148,9.715 4.148,7.663 C4.148,5.613 5.889,3.944 8.029,3.944 C10.169,3.944 11.911,5.613 11.911,7.663 C11.911,9.715 10.170,11.383 8.029,11.383 ZM8.029,5.273 C6.654,5.273 5.534,6.346 5.534,7.663 C5.534,8.982 6.654,10.055 8.029,10.055 C9.405,10.055 10.525,8.982 10.525,7.663 C10.525,6.346 9.405,5.273 8.029,5.273 Z" class="cls-1"/>
</svg>
