<svg xmlns="http://www.w3.org/2000/svg" width="25" height="26.031" viewBox="0 0 25 26.031">
  <metadata><?xpacket begin="﻿" id="W5M0MpCehiHzreSzNTczkc9d"?>
<x:xmpmeta xmlns:x="adobe:ns:meta/" x:xmptk="Adobe XMP Core 5.6-c142 79.160924, 2017/07/13-01:06:39        ">
   <rdf:RDF xmlns:rdf="http://www.w3.org/1999/02/22-rdf-syntax-ns#">
      <rdf:Description rdf:about=""/>
   </rdf:RDF>
</x:xmpmeta>
                                                                                                    
                                                                                                    
                                                                                                    
                                                                                                    
                                                                                                    
                                                                                                    
                                                                                                    
                                                                                                    
                                                                                                    
                                                                                                    
                                                                                                    
                                                                                                    
                                                                                                    
                                                                                                    
                                                                                                    
                                                                                                    
                                                                                                    
                                                                                                    
                                                                                                    
                                                                                                    
                           
<?xpacket end="w"?></metadata>
<defs>
    <style>
      .cls-1 {
        fill: #715625;
        fill-rule: evenodd;
      }
    </style>
  </defs>
  <path id="Forma_1" data-name="Forma 1" class="cls-1" d="M93.794,173.32a0.763,0.763,0,0,1,0-.675l0.972-1.986a2.259,2.259,0,0,0-.976-3l-1.955-1.037a0.761,0.761,0,0,1-.4-0.545L91.057,163.9a2.262,2.262,0,0,0-2.555-1.855l-2.191.31a0.767,0.767,0,0,1-.642-0.208l-1.59-1.538a2.264,2.264,0,0,0-3.158,0l-1.59,1.538a0.764,0.764,0,0,1-.642.208l-2.191-.31a2.262,2.262,0,0,0-2.555,1.855l-0.382,2.178a0.764,0.764,0,0,1-.4.546l-1.955,1.036a2.259,2.259,0,0,0-.976,3l0.972,1.986a0.764,0.764,0,0,1,0,.675l-0.972,1.986a2.259,2.259,0,0,0,.976,3l1.954,1.037a0.76,0.76,0,0,1,.4.545l0.382,2.178a2.26,2.26,0,0,0,2.23,1.878,2.4,2.4,0,0,0,.325-0.023l2.191-.31a0.762,0.762,0,0,1,.642.209l1.59,1.537a2.263,2.263,0,0,0,3.158,0l1.59-1.537a0.765,0.765,0,0,1,.642-0.209l2.191,0.31a2.262,2.262,0,0,0,2.555-1.855l0.382-2.178a0.76,0.76,0,0,1,.4-0.545l1.955-1.037a2.259,2.259,0,0,0,.976-3Zm-0.709,3.661-1.955,1.036a2.256,2.256,0,0,0-1.172,1.613l-0.382,2.177a0.765,0.765,0,0,1-.864.628l-2.191-.31a2.257,2.257,0,0,0-1.9.616l-1.59,1.538a0.767,0.767,0,0,1-1.069,0l-1.59-1.538A2.256,2.256,0,0,0,78.8,182.1a2.354,2.354,0,0,0-.323.023l-2.191.31a0.765,0.765,0,0,1-.864-0.628l-0.382-2.177a2.256,2.256,0,0,0-1.172-1.613l-1.955-1.036a0.764,0.764,0,0,1-.33-1.015l0.972-1.987a2.253,2.253,0,0,0,0-1.993L71.584,170a0.765,0.765,0,0,1,.33-1.016l1.955-1.036a2.256,2.256,0,0,0,1.172-1.613l0.382-2.178a0.765,0.765,0,0,1,.864-0.627l2.191,0.31a2.26,2.26,0,0,0,1.9-.616l1.59-1.537a0.765,0.765,0,0,1,1.068,0l1.59,1.537a2.261,2.261,0,0,0,1.9.616l2.191-.31a0.765,0.765,0,0,1,.864.627l0.382,2.178a2.253,2.253,0,0,0,1.172,1.613l1.955,1.036a0.765,0.765,0,0,1,.33,1.016l-0.972,1.986a2.253,2.253,0,0,0,0,1.993l0.972,1.987A0.764,0.764,0,0,1,93.086,176.981Zm-5.1-9.484a0.752,0.752,0,0,0-1.062,0l-9.917,9.91a0.751,0.751,0,0,0,1.063,1.061l9.917-9.909A0.751,0.751,0,0,0,87.99,167.5Zm-8.5-1.271a2.753,2.753,0,1,0,2.755,2.752A2.757,2.757,0,0,0,79.495,166.226Zm0,4a1.251,1.251,0,1,1,1.252-1.251A1.253,1.253,0,0,1,79.495,170.229Zm6.011,4a2.753,2.753,0,1,0,2.755,2.752A2.757,2.757,0,0,0,85.505,174.234Zm0,4a1.252,1.252,0,1,1,1.252-1.252A1.254,1.254,0,0,1,85.505,178.238Z" transform="translate(-70 -159.969)"/>
</svg>
