<svg xmlns="http://www.w3.org/2000/svg" xmlns:xlink="http://www.w3.org/1999/xlink" preserveAspectRatio="xMidYMid" width="25.531" height="26.094" viewBox="0 0 25.531 26.094">
  <defs>
    <style>
      .cls-1 {
        fill: #000;
        filter: url(#color-overlay-1);
        fill-rule: evenodd;
      }
    </style>

    <filter id="color-overlay-1" filterUnits="userSpaceOnUse">
      <feFlood flood-color="#715625"/>
      <feComposite operator="in" in2="SourceGraphic"/>
      <feBlend in2="SourceGraphic" result="solidFill"/>
    </filter>
  </defs>
  <path d="M20.813,21.454 L18.924,21.454 L18.924,25.406 C18.924,25.787 18.614,26.095 18.231,26.095 L0.686,26.095 C0.303,26.095 -0.007,25.787 -0.007,25.406 L-0.007,6.192 C-0.007,5.812 0.303,5.504 0.686,5.504 L5.130,5.504 C6.032,4.140 5.991,2.129 4.990,1.199 C4.710,0.940 4.695,0.504 4.956,0.226 C5.217,-0.053 5.656,-0.067 5.935,0.192 C7.712,1.840 7.407,4.905 6.023,6.623 C5.002,7.890 4.747,10.130 5.935,11.233 C6.215,11.492 6.230,11.928 5.969,12.206 C5.708,12.484 5.270,12.499 4.990,12.240 C4.166,11.476 3.731,10.337 3.764,9.036 C3.783,8.295 3.957,7.552 4.259,6.881 L1.379,6.881 L1.379,24.717 L17.539,24.717 L17.539,20.983 C17.516,20.914 17.503,20.841 17.503,20.764 L17.503,10.833 C17.503,10.758 17.516,10.684 17.539,10.615 L17.539,6.881 L12.329,6.881 C11.947,6.881 11.637,6.573 11.637,6.192 C11.637,5.812 11.947,5.504 12.329,5.504 L18.231,5.504 C18.614,5.504 18.924,5.812 18.924,6.192 L18.924,10.145 L20.813,10.145 C23.415,10.145 25.531,12.249 25.531,14.836 L25.531,16.762 C25.531,19.349 23.415,21.454 20.813,21.454 ZM24.145,14.836 C24.145,13.009 22.651,11.522 20.813,11.522 L18.924,11.522 L18.924,20.075 L20.813,20.075 C22.650,20.075 24.145,18.589 24.145,16.762 L24.145,14.836 ZM9.701,11.233 C9.981,11.492 9.996,11.928 9.735,12.206 C9.598,12.352 9.413,12.425 9.228,12.425 C9.059,12.425 8.889,12.364 8.756,12.240 C7.932,11.476 7.496,10.338 7.529,9.036 C7.560,7.845 7.989,6.652 8.707,5.761 C9.799,4.406 9.822,2.189 8.756,1.199 C8.476,0.940 8.461,0.504 8.722,0.226 C8.983,-0.052 9.421,-0.067 9.701,0.192 C11.478,1.840 11.173,4.905 9.788,6.623 C8.767,7.890 8.513,10.130 9.701,11.233 Z" class="cls-1"/>
</svg>
