<svg xmlns="http://www.w3.org/2000/svg" xmlns:xlink="http://www.w3.org/1999/xlink" preserveAspectRatio="xMidYMid" width="8.72" height="15.91" viewBox="0 0 8.72 15.91">
  <defs>
    <style>
      .cls-1 {
        fill: #323232;
        filter: url(#color-overlay-1);
        fill-rule: evenodd;
      }
    </style>

    <filter id="color-overlay-1" filterUnits="userSpaceOnUse">
      <feFlood/>
      <feComposite operator="in" in2="SourceGraphic"/>
      <feBlend in2="SourceGraphic" result="solidFill"/>
    </filter>
  </defs>
  <path d="M0.014,7.821 L1.573,7.821 L1.573,15.921 L5.033,15.921 L5.033,7.821 L7.478,7.821 L8.143,4.810 L4.890,4.810 C4.890,4.810 4.637,3.558 5.119,3.091 C5.367,2.849 5.812,2.665 6.385,2.665 C6.966,2.665 7.432,2.977 8.019,3.319 L8.720,0.668 C7.641,0.364 6.952,-0.010 5.827,-0.010 C4.730,-0.010 4.097,0.165 3.380,0.517 C2.663,0.867 2.337,1.488 2.070,2.045 C1.802,2.603 1.669,3.283 1.669,4.417 L1.669,4.810 L0.062,4.810 L0.014,7.821 Z" class="cls-1"/>
</svg>
