<svg xmlns="http://www.w3.org/2000/svg" width="23" height="23" viewBox="0 0 23 23">
  <metadata><?xpacket begin="﻿" id="W5M0MpCehiHzreSzNTczkc9d"?>
<x:xmpmeta xmlns:x="adobe:ns:meta/" x:xmptk="Adobe XMP Core 5.6-c142 79.160924, 2017/07/13-01:06:39        ">
   <rdf:RDF xmlns:rdf="http://www.w3.org/1999/02/22-rdf-syntax-ns#">
      <rdf:Description rdf:about=""/>
   </rdf:RDF>
</x:xmpmeta>
                                                                                                    
                                                                                                    
                                                                                                    
                                                                                                    
                                                                                                    
                                                                                                    
                                                                                                    
                                                                                                    
                                                                                                    
                                                                                                    
                                                                                                    
                                                                                                    
                                                                                                    
                                                                                                    
                                                                                                    
                                                                                                    
                                                                                                    
                                                                                                    
                                                                                                    
                                                                                                    
                           
<?xpacket end="w"?></metadata>
<defs>
    <style>
      .cls-1 {
        fill: #d6ad76;
        fill-rule: evenodd;
      }
    </style>
  </defs>
  <path id="Фигура_1" data-name="Фигура 1" class="cls-1" d="M519.518,632a11.283,11.283,0,0,1,3.228.268l0.806,0.09v0.09h0.269v0.089h0.269v0.09h0.269v0.09h0.269v0.089h0.18v0.09h0.269v0.09l0.538,0.179v0.089h0.179v0.09l0.359,0.09,0.089,0.179,0.359,0.09v0.089l0.269,0.09,0.089,0.179h0.18l0.089,0.179,0.269,0.09,0.18,0.269h0.179l0.717,0.807,0.807,0.717V636.3l0.269,0.179v0.18l0.269,0.179v0.179l0.179,0.09,0.09,0.269h0.09c0.03,0.119.06,0.239,0.089,0.358l0.18,0.09c0.03,0.12.06,0.239,0.089,0.358h0.09v0.18h0.09c0.06,0.179.119,0.358,0.179,0.538h0.09v0.268h0.089v0.18h0.09v0.269h0.09v0.269h0.089v0.268h0.09v0.359a9,9,0,0,1,.269,4.661v0.538l-0.717,2.331h-0.09c-0.06.179-.119,0.358-0.179,0.537h-0.09v0.18h-0.09c-0.029.119-.059,0.239-0.089,0.358l-0.18.09c-0.029.119-.059,0.239-0.089,0.358h-0.09l-0.09.269-0.179.09v0.179l-0.269.179v0.18l-0.269.179v0.179l-0.717.628-0.807.9h-0.179l-0.18.269-0.269.09-0.089.179h-0.18l-0.089.179-0.269.089v0.09l-0.359.09c-0.03.06-.06,0.119-0.089,0.179l-0.359.09v0.09h-0.179v0.089l-0.538.179v0.09h-0.269v0.089h-0.18v0.09h-0.269v0.09H524.09v0.09h-0.269V654.5h-0.269v0.09h-0.358v0.09h-0.448v0.089h-0.538v0.09H521.49v0.09a6.053,6.053,0,0,1-1.972-.09l-1.255-.09-1.883-.538v-0.09H516.2v-0.089h-0.269v-0.09l-0.538-.179V653.7h-0.18v-0.09l-0.358-.09-0.09-.179-0.359-.09v-0.09l-0.269-.089c-0.029-.06-0.059-0.12-0.089-0.179h-0.18c-0.059-.09-0.119-0.179-0.179-0.269h-0.179c-0.06-.09-0.12-0.179-0.179-0.269h-0.18l-0.717-.807-0.807-.717v-0.179l-0.269-.179-0.09-.269-0.179-.09V649.93l-0.179-.09v-0.179l-0.18-.09c-0.029-.119-0.059-0.239-0.089-0.358l-0.179-.09-0.09-.358h-0.09v-0.18h-0.089l-0.18-.537h-0.089v-0.269h-0.09V647.6h-0.09V647.33h-0.089v-0.269h-0.09v-0.268h-0.09v-0.359h-0.089v-0.269H509.3v-0.448a7.152,7.152,0,0,1-.179-3.227v-0.717h0.089l0.09-.986h0.09c0.029-.209.059-0.419,0.089-0.628h0.09v-0.268h0.09v-0.269h0.089v-0.269h0.09v-0.18h0.09v-0.268h0.089l0.18-.538h0.089v-0.18h0.09l0.09-.358,0.179-.09c0.03-.119.06-0.239,0.089-0.358h0.09l0.09-.269,0.179-.09v-0.179l0.179-.09,0.09-.269,0.269-.179v-0.179l0.9-.807,0.627-.717h0.18c0.059-.09.119-0.179,0.179-0.269h0.179c0.06-.09.12-0.179,0.179-0.269h0.18c0.03-.059.06-0.119,0.089-0.179l0.269-.09v-0.089l0.359-.09,0.09-.179,0.358-.09v-0.09h0.18v-0.089l0.538-.179V632.9l2.331-.717A5.3,5.3,0,0,0,519.518,632Zm-2.779,6h7.531a3.988,3.988,0,0,0-.449-1.344V636.4h-0.089v-0.179h-0.09v-0.269h-0.09q-0.088-.27-0.179-0.538h-0.089l-0.09-.359-0.179-.089v-0.18l-0.18-.089v-0.18l-0.179-.089v-0.18l-0.628-.537c-0.059-.09-0.119-0.18-0.179-0.269H521.67l-0.09-.18H521.4a1.708,1.708,0,0,0-1.255-.268v0.089l-0.538.09a3.939,3.939,0,0,0-.987.9l-0.269.179v0.18l-0.179.089-0.09.269h-0.089v0.18l-0.18.089c-0.059.179-.119,0.359-0.179,0.538h-0.09c-0.029.12-.059,0.239-0.089,0.359h-0.09v0.269A5.422,5.422,0,0,0,516.739,638.008Zm-3.676-1.972a1.79,1.79,0,0,1-.538.717l-0.18.09v0.179l-0.269.179v0.18l-0.179.089-0.09.269h-0.089l-0.09.269h4.035q0.268-.941.538-1.882h0.089l0.09-.359h0.09V635.5h0.089l0.09-.358h0.09c0.029-.12.059-0.239,0.089-0.359l0.179-.089,0.09-.359h0.09c0.03-.09.06-0.179,0.089-0.269l0.18-.089v-0.18h0.089a1,1,0,0,0,.269-0.448h-0.089v0.09l-0.628.089v0.09h-0.179v0.09h-0.269v0.089H516.47v0.09H516.2v0.09l-0.538.179v0.089l-0.359.09-0.09.179-0.358.09-0.09.179h-0.179l-0.18.269h-0.179c-0.06.09-.119,0.18-0.179,0.269h-0.18c-0.029.06-.059,0.12-0.089,0.179A1.83,1.83,0,0,1,513.063,636.036Zm12.283,1.972h4.034v-0.179a1.828,1.828,0,0,1-.448-0.628l-0.269-.179v-0.179l-0.807-.717-0.717-.807h-0.18l-0.179-.269H526.6c-0.06-.089-0.12-0.179-0.179-0.269h-0.18c-0.03-.059-0.06-0.119-0.089-0.179l-0.359-.09-0.09-.179c-0.119-.03-0.239-0.059-0.358-0.09v-0.089l-0.538-.179v-0.09l-1.614-.538v0.179a2.939,2.939,0,0,1,.807,1.166l0.179,0.089,0.09,0.359h0.089l0.09,0.358h0.09v0.269h0.089v0.18h0.09v0.269h0.09V636.4H524.9C525.047,636.932,525.2,637.471,525.346,638.008ZM511,638.994q-0.4,1.211-.806,2.42v0.538H510.1c-0.1.329,0,.746-0.09,0.986h5.021q0.09-1.434.179-2.868a3.832,3.832,0,0,0,.18-1.076H511Zm5.47,0a7.08,7.08,0,0,1-.269,1.255l-0.18,2.689h8.966a30.5,30.5,0,0,0-.448-3.944H516.47Zm9.145,0a3.592,3.592,0,0,0,.179,1.076q0.09,1.434.179,2.868h5.021v-0.09a6.458,6.458,0,0,1-.179-1.434l-0.807-2.42h-4.393ZM511,647.958h4.394a3.584,3.584,0,0,0-.18-1.076q-0.089-1.434-.179-2.868h-5.021V644.1a6.464,6.464,0,0,1,.18,1.435Q510.6,646.747,511,647.958Zm5.021-3.944,0.18,2.689a7.762,7.762,0,0,1,.269,1.255h8.069a3.538,3.538,0,0,1,.179-0.717v-0.628a10.639,10.639,0,0,0,.269-2.6h-8.966Zm9.952,0q-0.088,1.434-.179,2.868a3.834,3.834,0,0,0-.179,1.076h4.393l0.807-2.42V645H530.9c0.1-.329,0-0.746.09-0.986h-5.021Zm-14.345,4.93v0.179a1.824,1.824,0,0,1,.448.627l0.269,0.18v0.179l0.807,0.717,0.717,0.807h0.18l0.179,0.269h0.179l0.18,0.269h0.179l0.09,0.179,0.358,0.09,0.09,0.179,0.359,0.09V652.8l0.538,0.179v0.09l1.613,0.538v-0.179a2.939,2.939,0,0,1-.807-1.166l-0.179-.089c-0.03-.12-0.06-0.239-0.089-0.359h-0.09l-0.09-.358H516.47v-0.269h-0.09l-0.09-.359H516.2q-0.27-.941-0.538-1.882h-4.035Zm5.111,0a3.988,3.988,0,0,0,.448,1.344v0.269h0.089v0.18h0.09v0.268h0.09c0.06,0.18.119,0.359,0.179,0.538h0.09c0.03,0.12.06,0.239,0.089,0.359l0.18,0.089v0.18l0.179,0.089v0.18l0.179,0.089v0.18l0.628,0.537,0.179,0.269h0.18l0.089,0.18h0.18a1.711,1.711,0,0,0,1.255.268v-0.089l0.538-.09a3.971,3.971,0,0,0,.986-0.9l0.269-.179v-0.18l0.179-.089,0.09-.269h0.09v-0.18l0.179-.089c0.06-.179.119-0.359,0.179-0.538h0.09c0.03-.12.06-0.239,0.089-0.359h0.09v-0.268a5.459,5.459,0,0,0,.628-1.793h-7.531Zm8.607,0a9.32,9.32,0,0,1-.807,2.241v0.269h-0.09l-0.09.358H524.27l-0.09.359L524,652.26l-0.09.359h-0.09c-0.029.09-.059,0.179-0.089,0.269l-0.18.089v0.179h-0.089a1.013,1.013,0,0,0-.269.449h0.09l1.7-.628a10.3,10.3,0,0,0,3.676-3.047l0.269-.18v-0.179l0.179-.089,0.09-.269h0.09c0.029-.09.059-0.179,0.089-0.269h-4.034Z" transform="translate(-509 -632)"/>
</svg>
