<svg xmlns="http://www.w3.org/2000/svg" xmlns:xlink="http://www.w3.org/1999/xlink" preserveAspectRatio="xMidYMid" width="14.97" height="15.22" viewBox="0 0 14.97 15.22">
  <defs>
    <style>
      .cls-1 {
        fill: #fff;
        filter: url(#color-overlay-1);
        fill-rule: evenodd;
      }
    </style>

    <filter id="color-overlay-1" filterUnits="userSpaceOnUse">
      <feFlood/>
      <feComposite operator="in" in2="SourceGraphic"/>
      <feBlend in2="SourceGraphic" result="solidFill"/>
    </filter>
  </defs>
  <path d="M3.562,0.039 C5.275,0.039 6.989,0.039 8.702,0.039 C9.453,0.039 10.780,-0.081 11.388,0.098 C11.505,0.098 11.622,0.098 11.738,0.098 C11.738,0.118 11.738,0.138 11.738,0.158 C11.816,0.158 11.894,0.158 11.972,0.158 C11.972,0.177 11.972,0.197 11.972,0.217 C12.147,0.256 12.322,0.297 12.498,0.335 C12.498,0.355 12.498,0.375 12.498,0.395 C12.615,0.434 12.731,0.474 12.848,0.513 C12.848,0.533 12.848,0.553 12.848,0.572 C12.887,0.572 12.926,0.572 12.965,0.572 C12.965,0.592 12.965,0.611 12.965,0.632 C13.023,0.652 13.082,0.671 13.140,0.691 C13.159,0.731 13.179,0.769 13.198,0.810 C13.237,0.810 13.276,0.810 13.315,0.810 C13.354,0.868 13.393,0.928 13.432,0.987 C13.471,0.987 13.510,0.987 13.549,0.987 C13.666,1.125 13.782,1.264 13.899,1.402 C13.938,1.421 13.977,1.441 14.016,1.461 C14.016,1.500 14.016,1.540 14.016,1.579 C14.075,1.619 14.133,1.658 14.191,1.698 C14.191,1.737 14.191,1.776 14.191,1.816 C14.230,1.836 14.269,1.856 14.308,1.875 C14.328,1.935 14.347,1.994 14.366,2.053 C14.386,2.053 14.405,2.053 14.425,2.053 C14.425,2.093 14.425,2.131 14.425,2.172 C14.444,2.172 14.464,2.172 14.483,2.172 C14.522,2.290 14.561,2.409 14.600,2.527 C14.619,2.527 14.639,2.527 14.658,2.527 C14.697,2.704 14.736,2.882 14.775,3.059 C14.795,3.059 14.814,3.059 14.834,3.059 C14.834,3.139 14.834,3.218 14.834,3.297 C14.853,3.297 14.873,3.297 14.892,3.297 C15.030,3.752 14.950,4.682 14.950,5.252 C14.950,6.554 14.950,7.858 14.950,9.161 C14.950,10.429 15.043,11.828 14.658,12.715 C14.639,12.715 14.619,12.715 14.600,12.715 C14.600,12.754 14.600,12.794 14.600,12.833 C14.581,12.833 14.561,12.833 14.542,12.833 C14.503,12.952 14.464,13.070 14.425,13.188 C14.386,13.208 14.347,13.228 14.308,13.248 C14.308,13.287 14.308,13.327 14.308,13.366 C14.269,13.386 14.230,13.406 14.191,13.426 C14.191,13.465 14.191,13.504 14.191,13.543 C14.133,13.583 14.075,13.623 14.016,13.662 C14.016,13.702 14.016,13.741 14.016,13.780 C13.899,13.879 13.782,13.978 13.666,14.076 C13.627,14.136 13.588,14.196 13.549,14.254 C13.510,14.254 13.471,14.254 13.432,14.254 C13.393,14.313 13.354,14.373 13.315,14.433 C13.276,14.433 13.237,14.433 13.198,14.433 C13.179,14.472 13.159,14.511 13.140,14.550 C13.082,14.571 13.023,14.590 12.965,14.610 C12.965,14.630 12.965,14.649 12.965,14.669 C12.887,14.689 12.809,14.709 12.731,14.728 C12.731,14.748 12.731,14.768 12.731,14.787 C12.653,14.807 12.575,14.827 12.498,14.847 C12.498,14.867 12.498,14.886 12.498,14.905 C12.439,14.905 12.381,14.905 12.322,14.905 C12.322,14.925 12.322,14.946 12.322,14.965 C12.264,14.965 12.206,14.965 12.147,14.965 C12.147,14.984 12.147,15.005 12.147,15.025 C12.089,15.025 12.030,15.025 11.972,15.025 C11.972,15.044 11.972,15.064 11.972,15.083 C11.894,15.083 11.816,15.083 11.738,15.083 C11.738,15.104 11.738,15.123 11.738,15.143 C11.622,15.143 11.505,15.143 11.388,15.143 C11.388,15.163 11.388,15.182 11.388,15.203 C10.279,15.203 9.169,15.203 8.059,15.203 C7.222,15.203 6.385,15.203 5.548,15.203 C4.857,15.203 3.784,15.322 3.212,15.143 C1.491,14.602 0.587,13.694 0.058,11.945 C0.039,11.431 0.019,10.917 -0.000,10.405 C-0.000,9.398 -0.000,8.391 -0.000,7.384 C-0.000,6.495 -0.000,5.606 -0.000,4.718 C0.019,4.244 0.039,3.771 0.058,3.297 C0.078,3.297 0.097,3.297 0.117,3.297 C0.117,3.218 0.117,3.139 0.117,3.059 C0.136,3.059 0.156,3.059 0.175,3.059 C0.214,2.882 0.253,2.704 0.292,2.527 C0.311,2.527 0.331,2.527 0.350,2.527 C0.389,2.409 0.428,2.290 0.467,2.172 C0.486,2.172 0.506,2.172 0.526,2.172 C0.526,2.131 0.526,2.093 0.526,2.053 C0.545,2.053 0.564,2.053 0.584,2.053 C0.603,1.994 0.623,1.935 0.642,1.875 C0.681,1.856 0.720,1.836 0.759,1.816 C0.759,1.776 0.759,1.737 0.759,1.698 C0.818,1.658 0.876,1.619 0.934,1.579 C0.934,1.540 0.934,1.500 0.934,1.461 C1.071,1.342 1.207,1.223 1.343,1.105 C1.363,1.066 1.382,1.027 1.401,0.987 C1.440,0.987 1.479,0.987 1.518,0.987 C1.557,0.928 1.596,0.868 1.635,0.810 C1.674,0.810 1.713,0.810 1.752,0.810 C1.771,0.769 1.791,0.731 1.810,0.691 C1.849,0.691 1.888,0.691 1.927,0.691 C1.947,0.652 1.966,0.611 1.986,0.572 C2.024,0.572 2.063,0.572 2.102,0.572 C2.102,0.553 2.102,0.533 2.102,0.513 C2.219,0.474 2.336,0.434 2.453,0.395 C2.453,0.375 2.453,0.355 2.453,0.335 C2.628,0.297 2.803,0.256 2.978,0.217 C2.978,0.197 2.978,0.177 2.978,0.158 C3.163,0.092 3.433,0.154 3.562,0.039 ZM11.446,1.994 C11.446,2.014 11.446,2.032 11.446,2.053 C11.369,2.053 11.291,2.053 11.213,2.053 C11.213,2.073 11.213,2.093 11.213,2.112 C10.749,2.201 10.311,2.891 10.512,3.475 C10.512,3.554 10.512,3.633 10.512,3.711 C10.531,3.711 10.551,3.711 10.571,3.711 C10.716,4.347 11.744,4.680 12.381,4.244 C12.459,4.146 12.537,4.047 12.615,3.948 C12.634,3.948 12.653,3.948 12.673,3.948 C12.673,3.909 12.673,3.869 12.673,3.830 C12.692,3.830 12.712,3.830 12.731,3.830 C12.799,3.709 12.733,3.699 12.848,3.593 C12.854,3.233 12.868,2.802 12.731,2.587 C12.673,2.546 12.615,2.508 12.556,2.467 C12.537,2.409 12.517,2.350 12.498,2.290 C12.372,2.190 12.198,2.178 12.089,2.053 C11.875,2.032 11.661,2.014 11.446,1.994 ZM11.388,3.475 C11.345,3.242 11.346,3.232 11.388,3.000 C11.531,2.937 11.576,2.893 11.797,2.882 C11.903,3.067 11.971,3.083 11.972,3.416 C11.825,3.494 11.767,3.533 11.505,3.534 C11.438,3.466 11.505,3.511 11.388,3.475 ZM7.008,3.475 C7.008,3.494 7.008,3.514 7.008,3.534 C6.891,3.534 6.774,3.534 6.658,3.534 C6.405,3.613 6.151,3.692 5.898,3.771 C5.898,3.790 5.898,3.810 5.898,3.830 C5.859,3.830 5.820,3.830 5.782,3.830 C5.782,3.850 5.782,3.869 5.782,3.889 C5.743,3.889 5.704,3.889 5.665,3.889 C5.665,3.909 5.665,3.929 5.665,3.948 C5.626,3.948 5.587,3.948 5.548,3.948 C5.548,3.968 5.548,3.988 5.548,4.008 C5.470,4.027 5.392,4.047 5.314,4.067 C5.295,4.106 5.275,4.146 5.256,4.185 C5.217,4.185 5.178,4.185 5.139,4.185 C5.120,4.225 5.100,4.264 5.081,4.304 C5.042,4.304 5.003,4.304 4.964,4.304 C4.808,4.481 4.652,4.659 4.497,4.837 C4.399,4.916 4.302,4.995 4.205,5.074 C4.205,5.113 4.205,5.153 4.205,5.192 C4.166,5.212 4.127,5.231 4.088,5.252 C4.088,5.291 4.088,5.331 4.088,5.370 C4.049,5.389 4.010,5.410 3.971,5.429 C3.971,5.469 3.971,5.509 3.971,5.548 C3.952,5.548 3.932,5.548 3.913,5.548 C3.913,5.587 3.913,5.627 3.913,5.666 C3.893,5.666 3.874,5.666 3.854,5.666 C3.854,5.706 3.854,5.745 3.854,5.785 C3.835,5.785 3.815,5.785 3.796,5.785 C3.796,5.824 3.796,5.864 3.796,5.904 C3.776,5.904 3.757,5.904 3.738,5.904 C3.718,5.982 3.699,6.061 3.679,6.140 C3.660,6.140 3.640,6.140 3.621,6.140 C3.621,6.199 3.621,6.258 3.621,6.318 C3.601,6.318 3.582,6.318 3.562,6.318 C3.562,6.377 3.562,6.437 3.562,6.495 C3.543,6.495 3.523,6.495 3.504,6.495 C3.504,6.594 3.504,6.693 3.504,6.792 C3.135,8.038 3.689,9.430 4.205,10.168 C4.360,10.306 4.516,10.444 4.672,10.583 C4.769,10.701 4.867,10.819 4.964,10.938 C5.003,10.938 5.042,10.938 5.081,10.938 C5.100,10.977 5.120,11.017 5.139,11.056 C5.198,11.076 5.256,11.095 5.314,11.115 C5.314,11.135 5.314,11.154 5.314,11.175 C5.353,11.175 5.392,11.175 5.431,11.175 C5.431,11.194 5.431,11.214 5.431,11.234 C5.470,11.234 5.509,11.234 5.548,11.234 C5.548,11.253 5.548,11.274 5.548,11.293 C5.587,11.293 5.626,11.293 5.665,11.293 C5.665,11.313 5.665,11.332 5.665,11.352 C5.704,11.352 5.743,11.352 5.782,11.352 C5.782,11.372 5.782,11.392 5.782,11.411 C5.859,11.431 5.937,11.451 6.015,11.471 C6.015,11.490 6.015,11.510 6.015,11.529 C6.151,11.550 6.288,11.569 6.424,11.589 C6.683,11.677 7.512,11.893 7.942,11.767 C8.273,11.688 8.604,11.609 8.935,11.529 C8.935,11.510 8.935,11.490 8.935,11.471 C9.052,11.431 9.169,11.392 9.286,11.352 C9.286,11.332 9.286,11.313 9.286,11.293 C9.324,11.293 9.364,11.293 9.402,11.293 C9.402,11.274 9.402,11.253 9.402,11.234 C9.480,11.214 9.558,11.194 9.636,11.175 C9.655,11.135 9.675,11.095 9.694,11.056 C9.733,11.056 9.772,11.056 9.811,11.056 C9.831,11.017 9.850,10.977 9.870,10.938 C9.909,10.938 9.948,10.938 9.986,10.938 C10.142,10.759 10.298,10.583 10.454,10.405 C10.551,10.325 10.648,10.247 10.746,10.168 C10.746,10.128 10.746,10.088 10.746,10.049 C10.785,10.030 10.824,10.009 10.862,9.990 C10.862,9.950 10.862,9.911 10.862,9.871 C10.901,9.852 10.940,9.832 10.979,9.812 C10.979,9.773 10.979,9.734 10.979,9.694 C10.999,9.694 11.018,9.694 11.038,9.694 C11.038,9.654 11.038,9.615 11.038,9.575 C11.057,9.575 11.077,9.575 11.096,9.575 C11.096,9.536 11.096,9.496 11.096,9.457 C11.115,9.457 11.135,9.457 11.154,9.457 C11.154,9.417 11.154,9.378 11.154,9.339 C11.174,9.339 11.193,9.339 11.213,9.339 C11.232,9.260 11.252,9.180 11.271,9.102 C11.291,9.102 11.310,9.102 11.330,9.102 C11.349,8.964 11.369,8.825 11.388,8.686 C11.615,7.997 11.618,7.244 11.388,6.554 C11.369,6.417 11.349,6.278 11.330,6.140 C11.310,6.140 11.291,6.140 11.271,6.140 C11.252,6.061 11.232,5.982 11.213,5.904 C11.193,5.904 11.174,5.904 11.154,5.904 C11.154,5.864 11.154,5.824 11.154,5.785 C11.135,5.785 11.115,5.785 11.096,5.785 C11.096,5.745 11.096,5.706 11.096,5.666 C11.077,5.666 11.057,5.666 11.038,5.666 C11.038,5.627 11.038,5.587 11.038,5.548 C11.018,5.548 10.999,5.548 10.979,5.548 C10.979,5.509 10.979,5.469 10.979,5.429 C10.940,5.410 10.901,5.389 10.862,5.370 C10.862,5.331 10.862,5.291 10.862,5.252 C10.824,5.231 10.785,5.212 10.746,5.192 C10.746,5.153 10.746,5.113 10.746,5.074 C10.648,4.995 10.551,4.916 10.454,4.837 C10.298,4.659 10.142,4.481 9.986,4.304 C9.948,4.304 9.909,4.304 9.870,4.304 C9.850,4.264 9.831,4.225 9.811,4.185 C9.772,4.185 9.733,4.185 9.694,4.185 C9.675,4.146 9.655,4.106 9.636,4.067 C9.558,4.047 9.480,4.027 9.402,4.008 C9.402,3.988 9.402,3.968 9.402,3.948 C9.364,3.948 9.324,3.948 9.286,3.948 C9.286,3.929 9.286,3.909 9.286,3.889 C9.169,3.850 9.052,3.810 8.935,3.771 C8.935,3.751 8.935,3.731 8.935,3.711 C8.818,3.692 8.702,3.672 8.585,3.652 C8.585,3.633 8.585,3.613 8.585,3.593 C8.487,3.593 8.390,3.593 8.293,3.593 C7.931,3.481 7.510,3.471 7.008,3.475 ZM7.066,4.364 C7.456,4.383 7.845,4.403 8.234,4.422 C8.234,4.442 8.234,4.462 8.234,4.481 C8.410,4.521 8.585,4.561 8.760,4.599 C8.760,4.620 8.760,4.640 8.760,4.659 C8.838,4.679 8.916,4.698 8.994,4.718 C8.994,4.738 8.994,4.757 8.994,4.777 C9.033,4.777 9.071,4.777 9.110,4.777 C9.110,4.798 9.110,4.817 9.110,4.837 C9.169,4.856 9.227,4.876 9.286,4.896 C9.305,4.935 9.325,4.975 9.344,5.014 C9.383,5.014 9.422,5.014 9.461,5.014 C9.578,5.153 9.694,5.291 9.811,5.429 C9.889,5.488 9.967,5.548 10.045,5.607 C10.045,5.646 10.045,5.686 10.045,5.725 C10.084,5.745 10.123,5.765 10.162,5.785 C10.162,5.824 10.162,5.864 10.162,5.904 C10.201,5.923 10.239,5.942 10.278,5.963 C10.278,6.002 10.278,6.041 10.278,6.081 C10.298,6.081 10.317,6.081 10.337,6.081 C10.356,6.159 10.376,6.238 10.395,6.318 C10.415,6.318 10.434,6.318 10.454,6.318 C10.473,6.437 10.493,6.554 10.512,6.673 C10.603,6.923 10.811,7.610 10.687,8.035 C10.668,8.035 10.648,8.035 10.629,8.035 C10.629,8.134 10.629,8.232 10.629,8.331 C10.609,8.331 10.590,8.331 10.571,8.331 C10.571,8.410 10.571,8.489 10.571,8.568 C10.551,8.568 10.531,8.568 10.512,8.568 C10.512,8.628 10.512,8.686 10.512,8.746 C10.493,8.746 10.473,8.746 10.454,8.746 C10.454,8.806 10.454,8.864 10.454,8.924 C10.434,8.924 10.415,8.924 10.395,8.924 C10.376,9.003 10.356,9.082 10.337,9.161 C10.317,9.161 10.298,9.161 10.278,9.161 C10.278,9.200 10.278,9.240 10.278,9.279 C10.239,9.299 10.201,9.318 10.162,9.339 C10.162,9.378 10.162,9.417 10.162,9.457 C10.103,9.496 10.045,9.536 9.986,9.575 C9.986,9.615 9.986,9.654 9.986,9.694 C9.909,9.753 9.831,9.812 9.753,9.871 C9.656,9.990 9.558,10.108 9.461,10.227 C9.422,10.227 9.383,10.227 9.344,10.227 C9.325,10.266 9.305,10.306 9.286,10.345 C9.227,10.365 9.169,10.385 9.110,10.405 C9.110,10.424 9.110,10.444 9.110,10.463 C9.071,10.463 9.033,10.463 8.994,10.463 C8.994,10.484 8.994,10.503 8.994,10.523 C8.916,10.543 8.838,10.563 8.760,10.583 C8.760,10.602 8.760,10.622 8.760,10.641 C8.643,10.661 8.526,10.681 8.410,10.701 C8.410,10.720 8.410,10.740 8.410,10.759 C8.332,10.759 8.254,10.759 8.176,10.759 C8.176,10.780 8.176,10.799 8.176,10.819 C8.079,10.819 7.981,10.819 7.884,10.819 C7.884,10.839 7.884,10.858 7.884,10.879 C7.416,11.014 6.629,10.749 6.366,10.641 C6.307,10.641 6.249,10.641 6.190,10.641 C6.190,10.622 6.190,10.602 6.190,10.583 C6.151,10.583 6.112,10.583 6.074,10.583 C6.074,10.563 6.074,10.543 6.074,10.523 C5.996,10.503 5.918,10.484 5.840,10.463 C5.821,10.424 5.801,10.385 5.782,10.345 C5.743,10.345 5.704,10.345 5.665,10.345 C5.645,10.306 5.626,10.266 5.606,10.227 C5.567,10.227 5.529,10.227 5.490,10.227 C5.353,10.069 5.217,9.911 5.081,9.753 C5.022,9.713 4.964,9.674 4.905,9.634 C4.905,9.596 4.905,9.556 4.905,9.516 C4.867,9.496 4.828,9.477 4.789,9.457 C4.789,9.417 4.789,9.378 4.789,9.339 C4.750,9.318 4.711,9.299 4.672,9.279 C4.652,9.200 4.633,9.121 4.614,9.042 C4.594,9.042 4.575,9.042 4.555,9.042 C4.555,9.003 4.555,8.963 4.555,8.924 C4.536,8.924 4.516,8.924 4.497,8.924 C4.477,8.806 4.458,8.686 4.438,8.568 C4.344,8.323 4.142,7.635 4.263,7.207 C4.283,7.207 4.302,7.207 4.322,7.207 C4.322,7.088 4.322,6.969 4.322,6.851 C4.341,6.851 4.361,6.851 4.380,6.851 C4.380,6.792 4.380,6.732 4.380,6.673 C4.399,6.673 4.419,6.673 4.438,6.673 C4.438,6.614 4.438,6.554 4.438,6.495 C4.458,6.495 4.477,6.495 4.497,6.495 C4.497,6.437 4.497,6.377 4.497,6.318 C4.516,6.318 4.536,6.318 4.555,6.318 C4.555,6.278 4.555,6.238 4.555,6.199 C4.575,6.199 4.594,6.199 4.614,6.199 C4.633,6.120 4.652,6.041 4.672,5.963 C4.711,5.942 4.750,5.923 4.789,5.904 C4.789,5.864 4.789,5.824 4.789,5.785 C4.828,5.765 4.867,5.745 4.905,5.725 C4.905,5.686 4.905,5.646 4.905,5.607 C5.061,5.469 5.217,5.331 5.373,5.192 C5.412,5.132 5.451,5.074 5.490,5.014 C5.529,5.014 5.567,5.014 5.606,5.014 C5.626,4.975 5.645,4.935 5.665,4.896 C5.704,4.896 5.743,4.896 5.782,4.896 C5.801,4.856 5.821,4.817 5.840,4.777 C5.918,4.757 5.996,4.738 6.074,4.718 C6.074,4.698 6.074,4.679 6.074,4.659 C6.112,4.659 6.151,4.659 6.190,4.659 C6.190,4.640 6.190,4.620 6.190,4.599 C6.249,4.599 6.307,4.599 6.366,4.599 C6.366,4.580 6.366,4.561 6.366,4.541 C6.424,4.541 6.482,4.541 6.541,4.541 C6.541,4.521 6.541,4.501 6.541,4.481 C6.599,4.481 6.658,4.481 6.716,4.481 C6.716,4.462 6.716,4.442 6.716,4.422 C6.833,4.422 6.950,4.422 7.066,4.422 C7.066,4.403 7.066,4.383 7.066,4.364 Z" class="cls-1"/>
</svg>
