<svg xmlns="http://www.w3.org/2000/svg" xmlns:xlink="http://www.w3.org/1999/xlink" width="22.156" height="26.094" viewBox="0 0 22.156 26.094">
  <metadata><?xpacket begin="﻿" id="W5M0MpCehiHzreSzNTczkc9d"?>
<x:xmpmeta xmlns:x="adobe:ns:meta/" x:xmptk="Adobe XMP Core 5.6-c142 79.160924, 2017/07/13-01:06:39        ">
   <rdf:RDF xmlns:rdf="http://www.w3.org/1999/02/22-rdf-syntax-ns#">
      <rdf:Description rdf:about=""/>
   </rdf:RDF>
</x:xmpmeta>
                                                                                                    
                                                                                                    
                                                                                                    
                                                                                                    
                                                                                                    
                                                                                                    
                                                                                                    
                                                                                                    
                                                                                                    
                                                                                                    
                                                                                                    
                                                                                                    
                                                                                                    
                                                                                                    
                                                                                                    
                                                                                                    
                                                                                                    
                                                                                                    
                                                                                                    
                                                                                                    
                           
<?xpacket end="w"?></metadata>
<defs>
    <style>
      .cls-1 {
        fill-rule: evenodd;
        filter: url(#filter);
      }
    </style>
    <filter id="filter" x="71.594" y="758.906" width="22.156" height="26.094" filterUnits="userSpaceOnUse">
      <feFlood result="flood" flood-color="#715625"/>
      <feComposite result="composite" operator="in" in2="SourceGraphic"/>
      <feBlend result="blend" in2="SourceGraphic"/>
    </filter>
  </defs>
  <path id="Forma_1" data-name="Forma 1" class="cls-1" d="M91.782,763.447a11.418,11.418,0,0,0-18.222,0,10.1,10.1,0,0,0-1.291,9.707,8.243,8.243,0,0,0,1.609,2.524l8.062,9a0.992,0.992,0,0,0,1.461,0l8.06-9a8.237,8.237,0,0,0,1.608-2.521A10.1,10.1,0,0,0,91.782,763.447Zm-0.509,9.073a6.457,6.457,0,0,1-1.266,1.971l0,0-7.331,8.184-7.336-8.189a6.461,6.461,0,0,1-1.268-1.977,8.35,8.35,0,0,1,1.072-8.029,9.439,9.439,0,0,1,15.064,0A8.352,8.352,0,0,1,91.273,772.52Zm-8.6-8.2a5.115,5.115,0,1,0,5.375,5.108A5.253,5.253,0,0,0,82.671,764.323Zm0,8.392a3.288,3.288,0,1,1,3.455-3.284A3.377,3.377,0,0,1,82.671,772.715Z" transform="translate(-71.594 -758.906)"/>
</svg>
