<svg xmlns="http://www.w3.org/2000/svg" xmlns:xlink="http://www.w3.org/1999/xlink" width="23.313" height="26.094" viewBox="0 0 23.313 26.094">
  <metadata><?xpacket begin="﻿" id="W5M0MpCehiHzreSzNTczkc9d"?>
<x:xmpmeta xmlns:x="adobe:ns:meta/" x:xmptk="Adobe XMP Core 5.6-c142 79.160924, 2017/07/13-01:06:39        ">
   <rdf:RDF xmlns:rdf="http://www.w3.org/1999/02/22-rdf-syntax-ns#">
      <rdf:Description rdf:about=""/>
   </rdf:RDF>
</x:xmpmeta>
                                                                                                    
                                                                                                    
                                                                                                    
                                                                                                    
                                                                                                    
                                                                                                    
                                                                                                    
                                                                                                    
                                                                                                    
                                                                                                    
                                                                                                    
                                                                                                    
                                                                                                    
                                                                                                    
                                                                                                    
                                                                                                    
                                                                                                    
                                                                                                    
                                                                                                    
                                                                                                    
                           
<?xpacket end="w"?></metadata>
<defs>
    <style>
      .cls-1 {
        fill-rule: evenodd;
        filter: url(#filter);
      }
    </style>
    <filter id="filter" x="70" y="260" width="23.313" height="26.094" filterUnits="userSpaceOnUse">
      <feFlood result="flood" flood-color="#f13836"/>
      <feComposite result="composite" operator="in" in2="SourceGraphic"/>
      <feBlend result="blend" in2="SourceGraphic"/>
    </filter>
  </defs>
  <path class="cls-1" d="M76.646,277.176H90.471a2.911,2.911,0,0,0,2.846-2.96V268.1a0.068,0.068,0,0,0-.005-0.032c0-.011-0.005-0.027-0.005-0.038S93.3,268.013,93.3,268s-0.005-.022-0.01-0.037-0.005-.022-0.01-0.032-0.005-.022-0.01-0.033a0.283,0.283,0,0,1-.015-0.038,0.122,0.122,0,0,0-.016-0.026l-0.015-.032c-0.005-.011-0.01-0.016-0.016-0.027s-0.015-.022-0.021-0.032a0.083,0.083,0,0,0-.021-0.027c-0.005-.011-0.016-0.016-0.021-0.027s-0.016-.016-0.021-0.027a0.079,0.079,0,0,0-.021-0.021l-0.026-.027c-0.01,0-.015-0.017-0.026-0.022s-0.021-.016-0.031-0.021-0.016-.011-0.026-0.016a0.118,0.118,0,0,1-.031-0.022l-0.031-.016-0.031-.016-0.031-.016c-0.01,0-.021,0-0.031-0.01a0.086,0.086,0,0,0-.036-0.012,0.221,0.221,0,0,1-.026,0,0.267,0.267,0,0,1-.062-0.01L75.2,264.935v-2.542a0.325,0.325,0,0,0-.005-0.074,0.043,0.043,0,0,0-.005-0.022c0-.016-0.005-0.032-0.005-0.048s-0.005-.027-0.01-0.043-0.005-.016-0.005-0.027l-0.016-.048c0-.006-0.005-0.016-0.005-0.021a0.168,0.168,0,0,0-.021-0.044c-0.005,0-.005-0.015-0.01-0.021a0.1,0.1,0,0,0-.021-0.032c-0.005-.011-0.01-0.016-0.016-0.027s-0.01-.016-0.015-0.027-0.016-.022-0.021-0.032l-0.016-.016L75,261.879l-0.016-.016a0.231,0.231,0,0,0-.036-0.033c-0.005,0-.016-0.01-0.021-0.016s-0.021-.015-0.031-0.026a0.359,0.359,0,0,0-.041-0.027,0.148,0.148,0,0,1-.016-0.011c-0.021-.01-0.046-0.021-0.067-0.032l-3.8-1.663a0.687,0.687,0,0,0-.913.387,0.734,0.734,0,0,0,.371.949L73.8,262.87v15.861a2.925,2.925,0,0,0,2.48,2.932,3.016,3.016,0,0,0-.4,1.5,2.813,2.813,0,1,0,5.621,0,2.956,2.956,0,0,0-.387-1.475h6.26a2.97,2.97,0,0,0-.387,1.475,2.813,2.813,0,1,0,2.81-2.922H76.646a1.486,1.486,0,0,1-1.454-1.512v-1.962A2.8,2.8,0,0,0,76.646,277.176Zm3.465,5.983a1.419,1.419,0,1,1-1.418-1.474A1.449,1.449,0,0,1,80.111,283.159Zm11.108,0a1.419,1.419,0,1,1-1.418-1.474A1.45,1.45,0,0,1,91.219,283.159Zm-0.748-7.431H76.646a1.486,1.486,0,0,1-1.454-1.512v-7.823l16.734,2.4v5.421A1.486,1.486,0,0,1,90.471,275.728Z" transform="translate(-70 -260)"/>
</svg>
