<svg xmlns="http://www.w3.org/2000/svg" xmlns:xlink="http://www.w3.org/1999/xlink" width="21.094" height="26.094" viewBox="0 0 21.094 26.094">
  <metadata><?xpacket begin="﻿" id="W5M0MpCehiHzreSzNTczkc9d"?>
<x:xmpmeta xmlns:x="adobe:ns:meta/" x:xmptk="Adobe XMP Core 5.6-c142 79.160924, 2017/07/13-01:06:39        ">
   <rdf:RDF xmlns:rdf="http://www.w3.org/1999/02/22-rdf-syntax-ns#">
      <rdf:Description rdf:about=""/>
   </rdf:RDF>
</x:xmpmeta>
                                                                                                    
                                                                                                    
                                                                                                    
                                                                                                    
                                                                                                    
                                                                                                    
                                                                                                    
                                                                                                    
                                                                                                    
                                                                                                    
                                                                                                    
                                                                                                    
                                                                                                    
                                                                                                    
                                                                                                    
                                                                                                    
                                                                                                    
                                                                                                    
                                                                                                    
                                                                                                    
                           
<?xpacket end="w"?></metadata>
<defs>
    <style>
      .cls-1 {
        fill-rule: evenodd;
        filter: url(#filter);
      }
    </style>
    <filter id="filter" x="71.906" y="557.75" width="21.094" height="26.094" filterUnits="userSpaceOnUse">
      <feFlood result="flood" flood-color="#715625"/>
      <feComposite result="composite" operator="in" in2="SourceGraphic"/>
      <feBlend result="blend" in2="SourceGraphic"/>
    </filter>
  </defs>
  <path id="Forma_1" data-name="Forma 1" class="cls-1" d="M76.378,573.1h13.8a0.7,0.7,0,1,0,0-1.39h-13.8A0.7,0.7,0,1,0,76.378,573.1Zm15.5-10.227-1.662-4.663a0.7,0.7,0,0,0-.888-0.422l-16.975,6.047a0.694,0.694,0,0,0-.421.887l1.624,4.557v13.863a0.7,0.7,0,0,0,.7.695H92.3a0.7,0.7,0,0,0,.7-0.695V569.149a0.7,0.7,0,0,0-.7-0.7H78.273l13.186-4.7A0.7,0.7,0,0,0,91.88,562.869ZM82.434,565.5l0.331-3.9,3.158-1.125-0.331,3.9Zm-4.6,1.638,0.331-3.9,3.158-1.125L81,566.009Zm-1.108-3.386-0.331,3.9-1.726.615-1.2-3.354ZM91.6,582.443H74.948v-12.6H91.6v12.6Zm-4.57-18.584,0.331-3.9,1.779-.634,1.2,3.354Z" transform="translate(-71.906 -557.75)"/>
</svg>
