<svg xmlns="http://www.w3.org/2000/svg" width="23" height="22.969" viewBox="0 0 23 22.969">
  <metadata><?xpacket begin="﻿" id="W5M0MpCehiHzreSzNTczkc9d"?>
<x:xmpmeta xmlns:x="adobe:ns:meta/" x:xmptk="Adobe XMP Core 5.6-c142 79.160924, 2017/07/13-01:06:39        ">
   <rdf:RDF xmlns:rdf="http://www.w3.org/1999/02/22-rdf-syntax-ns#">
      <rdf:Description rdf:about=""/>
   </rdf:RDF>
</x:xmpmeta>
                                                                                                    
                                                                                                    
                                                                                                    
                                                                                                    
                                                                                                    
                                                                                                    
                                                                                                    
                                                                                                    
                                                                                                    
                                                                                                    
                                                                                                    
                                                                                                    
                                                                                                    
                                                                                                    
                                                                                                    
                                                                                                    
                                                                                                    
                                                                                                    
                                                                                                    
                                                                                                    
                           
<?xpacket end="w"?></metadata>
<defs>
    <style>
      .cls-1 {
        fill: #d6ad76;
        fill-rule: evenodd;
      }
    </style>
  </defs>
  <path id="Фигура_1" data-name="Фигура 1" class="cls-1" d="M513.431,723H523.4v0.8h-9.877A2.374,2.374,0,0,1,513.431,723Zm16.431,0.447a6.005,6.005,0,0,1,.09,1.074,8.045,8.045,0,0,1,1.437.09,6.184,6.184,0,0,1,.09,1.073h1.347a4.241,4.241,0,0,1,.179,1.79v16.735a4.283,4.283,0,0,1-1.8.179H514.957v1.342c-0.728.375-2.373,0.186-3.412,0.179v-0.09l-0.538-.089-0.09-.179h-0.18l-0.269-.358h-0.09v-0.179l-0.18-.09c-0.363-.683-0.179-3.216-0.179-4.295V726.042h0.09q0.045-.269.089-0.537l0.18-.089v-0.179l0.359-.268v-0.09c0.865-.606,3.388-0.358,4.849-0.358h12.032v-0.895a1.843,1.843,0,0,0,.269-0.268h1.8C529.785,723.46,529.683,723.393,529.862,723.447Zm-1.436.716v1.164h0.718v-1.164h-0.718Zm2.245,17.9V725.327h-0.719V736.87h-0.09v0.269h-0.089v0.268h-0.09v0.269h-0.09v0.268H529.5v0.269h-0.09v0.268h-0.089v0.269h-0.09l-0.09.537h-0.09v0.089h-0.538a3.425,3.425,0,0,0-.27-0.626c-0.06-.269-0.12-0.537-0.179-0.806h-0.09v-0.268h-0.09v-0.269H527.8v-0.268h-0.09V736.87h-0.089V725.327h-10.6a33.053,33.053,0,0,0-5.836.178,5.642,5.642,0,0,0-.359.537v16.377h0.09a1.384,1.384,0,0,1,.808-0.269v-0.089h18.946Zm-2.245-16.019v0.806h0.718v-0.806h-0.718Zm3.053,0.358v10.739a37.618,37.618,0,0,1-.09,5.638,33.153,33.153,0,0,1-5.118.089H511.635v0.09h-0.269v0.089l-0.27.09c-0.03.089-.06,0.179-0.089,0.268h-0.09v0.179h-0.09v0.806a0.9,0.9,0,0,1,.18.358H511.1c0.214,0.242,0,.024.27,0.178v0.09h0.179V745.1h2.694v-0.715h-2.694v-0.806H532.2V726.4h-0.718Zm-15.355,13.782v-0.716a5.109,5.109,0,0,1,1.437-.09h2.784v-2.237h0.808v2.237h4.22v-6.085h-1.167v-0.716h1.077a5.417,5.417,0,0,0,.09-1.521v-3.043h-0.09v-0.089h-6.824v4.653h4.22v0.716h-1.526v2.327h-0.808v-2.327h-4.221v-0.716h1.527v-4.653h-4.49a5.8,5.8,0,0,0-.089,1.61v3.043H514.6v0.716h-1.526v6.085H514.6v0.806h-2.065c-0.38-.741-0.18-2.761-0.18-3.849v-8.948c0.768-.391,2.917-0.179,4.041-0.179h9.518c0.38,0.741.179,2.76,0.179,3.848V740a8.786,8.786,0,0,1-3.053.18h-6.914Zm12.3-12.618v8.412h0.718v-8.412h-0.718Zm0.269,10.112h0.18a2.652,2.652,0,0,1,.269-0.9h-0.718v0.089A1.574,1.574,0,0,1,528.7,737.676Zm-8.71,7.427H520.7v0.806h-0.719V745.1Zm1.527,0h9.877a2.409,2.409,0,0,1,.09.806h-9.967V745.1Z" transform="translate(-510 -723)"/>
</svg>
