<svg xmlns="http://www.w3.org/2000/svg" width="66.97" height="67" viewBox="0 0 66.97 67">
  <metadata><?xpacket begin="﻿" id="W5M0MpCehiHzreSzNTczkc9d"?>
<x:xmpmeta xmlns:x="adobe:ns:meta/" x:xmptk="Adobe XMP Core 5.6-c142 79.160924, 2017/07/13-01:06:39        ">
   <rdf:RDF xmlns:rdf="http://www.w3.org/1999/02/22-rdf-syntax-ns#">
      <rdf:Description rdf:about=""/>
   </rdf:RDF>
</x:xmpmeta>
                                                                                                    
                                                                                                    
                                                                                                    
                                                                                                    
                                                                                                    
                                                                                                    
                                                                                                    
                                                                                                    
                                                                                                    
                                                                                                    
                                                                                                    
                                                                                                    
                                                                                                    
                                                                                                    
                                                                                                    
                                                                                                    
                                                                                                    
                                                                                                    
                                                                                                    
                                                                                                    
                           
<?xpacket end="w"?></metadata>
<defs>
    <style>
      .cls-1 {
        fill-rule: evenodd;
      }
    </style>
  </defs>
  <path id="Фигура_1" data-name="Фигура 1" class="cls-1" d="M1216.06,7410h28.98v2.35h-28.72A6.955,6.955,0,0,1,1216.06,7410Zm47.78,1.3a17.577,17.577,0,0,1,.27,3.14,22.992,22.992,0,0,1,4.17.26,16.581,16.581,0,0,1,.26,3.13h3.92c0.68,1.32.52,3.18,0.52,5.22v48.81c-1.32.67-3.18,0.52-5.22,0.52H1220.5v3.92c-2.12,1.09-6.9.54-9.92,0.52v-0.26c-0.52-.09-1.05-0.18-1.57-0.26-0.09-.18-0.17-0.35-0.26-0.53h-0.52c-0.26-.34-0.52-0.69-0.79-1.04h-0.26v-0.52c-0.17-.09-0.35-0.18-0.52-0.26-1.06-2-.52-9.38-0.52-12.53v-42.55h0.26c0.09-.52.17-1.04,0.26-1.56,0.17-.09.35-0.18,0.52-0.26v-0.53l1.05-.78v-0.26c2.51-1.77,9.85-1.04,14.1-1.04h34.99v-2.61a5.5,5.5,0,0,0,.78-0.79h5.22C1263.62,7411.34,1263.32,7411.15,1263.84,7411.3Zm-4.17,2.09v3.4h2.09v-3.4h-2.09Zm6.52,52.2v-48.8h-2.08v33.67h-0.27v0.78h-0.26v0.78h-0.26v0.79h-0.26v0.78h-0.26v0.78h-0.26v0.78h-0.26v0.79h-0.26c-0.09.52-.18,1.04-0.26,1.56h-0.27v0.26h-1.56a9.867,9.867,0,0,0-.79-1.82c-0.17-.79-0.34-1.57-0.52-2.35h-0.26v-0.78h-0.26v-0.79h-0.26v-0.78h-0.26v-0.78h-0.26v-33.67h-30.81c-5.48,0-12.37-.46-16.98.52a15.655,15.655,0,0,0-1.04,1.56v47.77h0.26c0.68-.76,1.27-0.44,2.35-0.78v-0.27h55.09Zm-6.52-46.72v2.35h2.09v-2.35h-2.09Zm8.87,1.05v31.32c0,5.08.56,11.91-.26,16.44-4.34.76-10.08,0.26-14.88,0.26h-42.56v0.26h-0.78v0.27c-0.27.08-.53,0.17-0.79,0.26-0.09.26-.17,0.52-0.26,0.78h-0.26v0.52h-0.26v2.35c0.51,0.45.23,0.63,0.52,1.04h0.26c0.62,0.71-.01.08,0.79,0.53v0.26h0.52v0.26h7.83v-2.09h-7.83v-2.35h60.05v-50.11h-2.09Zm-44.65,40.19v-2.09a15.252,15.252,0,0,1,4.18-.26h8.1v-6.52h2.35v6.52h12.27v-17.74h-3.4v-2.09h3.14a15.99,15.99,0,0,0,.26-4.44v-8.87h-0.26v-0.26h-19.85v13.57h12.28v2.09h-4.44v6.78h-2.35v-6.78h-12.28v-2.09h4.44v-13.57h-13.05c-0.42,1.13-.26,3.15-0.26,4.69v8.88h4.44v2.09h-4.44v17.74h4.44v2.35h-6.01c-1.11-2.16-.52-8.05-0.52-11.22v-26.1c2.23-1.14,8.48-.52,11.75-0.52h27.68c1.1,2.16.52,8.05,0.52,11.22v26.1c-1.93.99-6.09,0.52-8.88,0.52h-20.11Zm35.78-36.8v24.54h2.09v-24.54h-2.09Zm0.78,29.5h0.52a7.963,7.963,0,0,1,.79-2.62h-2.09v0.27A4.582,4.582,0,0,1,1260.45,7452.81Zm-25.33,21.66h2.09v2.35h-2.09v-2.35Zm4.44,0h28.72a6.955,6.955,0,0,1,.26,2.35h-28.98v-2.35Z" transform="translate(-1206 -7410)"/>
</svg>
