<svg xmlns="http://www.w3.org/2000/svg" xmlns:xlink="http://www.w3.org/1999/xlink" width="23.313" height="21.531" viewBox="0 0 23.313 21.531">
  <metadata><?xpacket begin="﻿" id="W5M0MpCehiHzreSzNTczkc9d"?>
<x:xmpmeta xmlns:x="adobe:ns:meta/" x:xmptk="Adobe XMP Core 5.6-c142 79.160924, 2017/07/13-01:06:39        ">
   <rdf:RDF xmlns:rdf="http://www.w3.org/1999/02/22-rdf-syntax-ns#">
      <rdf:Description rdf:about=""/>
   </rdf:RDF>
</x:xmpmeta>
                                                                                                    
                                                                                                    
                                                                                                    
                                                                                                    
                                                                                                    
                                                                                                    
                                                                                                    
                                                                                                    
                                                                                                    
                                                                                                    
                                                                                                    
                                                                                                    
                                                                                                    
                                                                                                    
                                                                                                    
                                                                                                    
                                                                                                    
                                                                                                    
                                                                                                    
                                                                                                    
                           
<?xpacket end="w"?></metadata>
<defs>
    <style>
      .cls-1 {
        fill-rule: evenodd;
        filter: url(#filter);
      }
    </style>
    <filter id="filter" x="70.781" y="361.25" width="23.313" height="21.531" filterUnits="userSpaceOnUse">
      <feFlood result="flood" flood-color="#715625"/>
      <feComposite result="composite" operator="in" in2="SourceGraphic"/>
      <feBlend result="blend" in2="SourceGraphic"/>
    </filter>
  </defs>
  <path id="Forma_1" data-name="Forma 1" class="cls-1" d="M73.791,365.924H87.872a0.711,0.711,0,0,0,0-1.418H73.791A0.711,0.711,0,0,0,73.791,365.924ZM86.133,374.3H75.53a0.71,0.71,0,0,0,0,1.417h10.6A0.71,0.71,0,0,0,86.133,374.3Zm0,3.265H75.53a0.71,0.71,0,0,0,0,1.417h10.6A0.71,0.71,0,0,0,86.133,377.566Zm7.308-13.037H90.879v-2.576a0.686,0.686,0,0,0-.661-0.709H71.444a0.686,0.686,0,0,0-.661.709v18.406a2.361,2.361,0,0,0,2.271,2.436H91.83a2.361,2.361,0,0,0,2.272-2.436V365.237A0.686,0.686,0,0,0,93.441,364.529Zm-21.336,15.83v-17.7H89.558v17.7a2.567,2.567,0,0,0,.209,1.019H73.055A0.987,0.987,0,0,1,72.105,380.359Zm19.724,1.019a0.988,0.988,0,0,1-.95-1.019V365.946h1.9v14.413A0.988,0.988,0,0,1,91.83,381.378Zm-16.386-9.439a2.136,2.136,0,0,0,.188-0.519l0.411-1.553,0.425,1.553c0.036,0.142.072,0.263,0.106,0.361a0.593,0.593,0,0,0,.156.242,0.476,0.476,0,0,0,.577.007,0.556,0.556,0,0,0,.15-0.211c0.032-.077.075-0.2,0.13-0.371l0.638-2.006a1.36,1.36,0,0,0,.09-0.4,0.363,0.363,0,0,0-.11-0.262,0.354,0.354,0,0,0-.258-0.111,0.326,0.326,0,0,0-.229.075,0.4,0.4,0,0,0-.112.169c-0.02.055-.046,0.147-0.084,0.295L77.03,371l-0.443-1.662c-0.048-.176-0.085-0.3-0.112-0.37a0.53,0.53,0,0,0-.145-0.2,0.405,0.405,0,0,0-.288-0.1,0.4,0.4,0,0,0-.284.1,0.493,0.493,0,0,0-.141.2c-0.026.072-.064,0.2-0.111,0.375L75.064,371l-0.488-1.793a1.916,1.916,0,0,0-.148-0.411,0.3,0.3,0,0,0-.282-0.128,0.346,0.346,0,0,0-.261.115,0.371,0.371,0,0,0-.107.258,1.5,1.5,0,0,0,.1.4l0.632,2.007,0.071,0.216a1.223,1.223,0,0,0,.109.241,0.459,0.459,0,0,0,.158.162,0.438,0.438,0,0,0,.23.056A0.394,0.394,0,0,0,75.444,371.939Zm3.9-.275a1.207,1.207,0,0,0,.108.242,0.474,0.474,0,0,0,.157.162,0.439,0.439,0,0,0,.23.056,0.4,0.4,0,0,0,.371-0.185,2.1,2.1,0,0,0,.188-0.519l0.411-1.553,0.424,1.553c0.04,0.154.075,0.273,0.107,0.361a0.579,0.579,0,0,0,.156.242,0.477,0.477,0,0,0,.578.007,0.569,0.569,0,0,0,.151-0.211c0.033-.083.078-0.211,0.129-0.37l0.638-2.007a1.358,1.358,0,0,0,.091-0.4,0.359,0.359,0,0,0-.111-0.261,0.35,0.35,0,0,0-.258-0.112,0.327,0.327,0,0,0-.229.075,0.4,0.4,0,0,0-.112.169c-0.022.062-.05,0.165-0.083,0.295L81.792,371l-0.442-1.662c-0.047-.17-0.085-0.294-0.113-0.369a0.514,0.514,0,0,0-.145-0.205,0.406,0.406,0,0,0-.287-0.1,0.4,0.4,0,0,0-.285.1,0.5,0.5,0,0,0-.141.2c-0.026.072-.064,0.2-0.111,0.375L79.826,371l-0.487-1.793a1.853,1.853,0,0,0-.149-0.411,0.3,0.3,0,0,0-.281-0.128,0.348,0.348,0,0,0-.262.115,0.373,0.373,0,0,0-.107.258,1.5,1.5,0,0,0,.1.4l0.633,2.006Q79.294,371.529,79.34,371.664Zm8.133-2.993a0.324,0.324,0,0,0-.229.075,0.4,0.4,0,0,0-.112.169c-0.022.065-.051,0.166-0.083,0.295L86.555,371l-0.442-1.662c-0.048-.175-0.085-0.3-0.112-0.369a0.537,0.537,0,0,0-.145-0.2,0.411,0.411,0,0,0-.288-0.1,0.4,0.4,0,0,0-.284.1,0.5,0.5,0,0,0-.141.2c-0.026.075-.066,0.208-0.111,0.375L84.589,371,84.1,369.21a1.839,1.839,0,0,0-.149-0.411,0.3,0.3,0,0,0-.281-0.129,0.345,0.345,0,0,0-.262.116,0.371,0.371,0,0,0-.107.258,1.535,1.535,0,0,0,.1.4l0.632,2.006c0.017,0.054.041,0.126,0.072,0.216a1.163,1.163,0,0,0,.108.242,0.455,0.455,0,0,0,.158.161,0.433,0.433,0,0,0,.229.057,0.4,0.4,0,0,0,.371-0.185,2.161,2.161,0,0,0,.188-0.519l0.411-1.554,0.425,1.554c0.04,0.154.075,0.273,0.106,0.361a0.608,0.608,0,0,0,.156.242,0.411,0.411,0,0,0,.294.1,0.416,0.416,0,0,0,.284-0.094,0.567,0.567,0,0,0,.15-0.211c0.032-.079.077-0.207,0.129-0.371l0.638-2.006a1.388,1.388,0,0,0,.09-0.4,0.362,0.362,0,0,0-.111-0.262A0.353,0.353,0,0,0,87.473,368.671Z" transform="translate(-70.781 -361.25)"/>
</svg>
