<svg xmlns="http://www.w3.org/2000/svg" width="19.03" height="19" viewBox="0 0 19.03 19">
  <metadata><?xpacket begin="﻿" id="W5M0MpCehiHzreSzNTczkc9d"?>
<x:xmpmeta xmlns:x="adobe:ns:meta/" x:xmptk="Adobe XMP Core 5.6-c142 79.160924, 2017/07/13-01:06:39        ">
   <rdf:RDF xmlns:rdf="http://www.w3.org/1999/02/22-rdf-syntax-ns#">
      <rdf:Description rdf:about=""/>
   </rdf:RDF>
</x:xmpmeta>
                                                                                                    
                                                                                                    
                                                                                                    
                                                                                                    
                                                                                                    
                                                                                                    
                                                                                                    
                                                                                                    
                                                                                                    
                                                                                                    
                                                                                                    
                                                                                                    
                                                                                                    
                                                                                                    
                                                                                                    
                                                                                                    
                                                                                                    
                                                                                                    
                                                                                                    
                                                                                                    
                           
<?xpacket end="w"?></metadata>
<defs>
    <style>
      .cls-1 {
        fill: #d6ad76;
        fill-rule: evenodd;
      }
    </style>
  </defs>
  <path class="cls-1" d="M1383.66,47.777l-3.8-3.8a1.171,1.171,0,0,0-1.65,0l-0.99.989a1.168,1.168,0,0,0-.29,1.146l-0.37.372h0c-0.27.265-1.92-.141-3.91-2.135s-2.4-3.642-2.14-3.907h0l0.38-.373a1.121,1.121,0,0,0,.32.045,1.138,1.138,0,0,0,.82-0.34l0.99-.988a1.171,1.171,0,0,0,0-1.645l-3.8-3.8a1.158,1.158,0,0,0-1.64,0l-0.99.989a1.173,1.173,0,0,0-.3,1.146l-0.33.339c-1.05,1.169-1.25,3.008-.55,5.209a16.534,16.534,0,0,0,4.14,6.424,16.563,16.563,0,0,0,6.43,4.143,7.992,7.992,0,0,0,2.41.41,4.015,4.015,0,0,0,2.93-1.086l0.2-.208a1.25,1.25,0,0,0,.33.046,1.152,1.152,0,0,0,.82-0.341l0.99-.988A1.172,1.172,0,0,0,1383.66,47.777ZM1368.4,34.163l3.8,3.8-0.99.989h0l-0.01-.014-1.89-1.887-1.9-1.9Zm12.09,15.928h0c-0.83.837-2.31,0.975-4.16,0.389a15.322,15.322,0,0,1-5.95-3.857,15.444,15.444,0,0,1-3.86-5.953c-0.59-1.849-.45-3.329.39-4.166h0l0.1-.105,2.95,2.949-0.27.271h0c-1.12,1.122.23,3.642,2.14,5.552,1.43,1.43,3.2,2.543,4.47,2.543a1.456,1.456,0,0,0,1.08-.409h0l0.27-.27,2.95,2.95Zm1.36-.5-3.8-3.8,0.99-.988,3.8,3.8Z" transform="translate(-1365 -33)"/>
</svg>
