<svg xmlns="http://www.w3.org/2000/svg" width="16.53" height="16.5" viewBox="0 0 16.53 16.5">
  <metadata><?xpacket begin="﻿" id="W5M0MpCehiHzreSzNTczkc9d"?>
<x:xmpmeta xmlns:x="adobe:ns:meta/" x:xmptk="Adobe XMP Core 5.6-c142 79.160924, 2017/07/13-01:06:39        ">
   <rdf:RDF xmlns:rdf="http://www.w3.org/1999/02/22-rdf-syntax-ns#">
      <rdf:Description rdf:about=""/>
   </rdf:RDF>
</x:xmpmeta>
                                                                                                    
                                                                                                    
                                                                                                    
                                                                                                    
                                                                                                    
                                                                                                    
                                                                                                    
                                                                                                    
                                                                                                    
                                                                                                    
                                                                                                    
                                                                                                    
                                                                                                    
                                                                                                    
                                                                                                    
                                                                                                    
                                                                                                    
                                                                                                    
                                                                                                    
                                                                                                    
                           
<?xpacket end="w"?></metadata>
<defs>
    <style>
      .cls-1 {
        fill: #f13836;
        fill-rule: evenodd;
      }
    </style>
  </defs>
  <path id="Forma_1_копия_5" data-name="Forma 1 копия 5" class="cls-1" d="M1349.19,5478.72l-1.24-1.23a1.789,1.789,0,0,1-1.33.55,1.861,1.861,0,0,1-1.88-1.88,1.857,1.857,0,0,1,.54-1.34l-1.22-1.22a1.28,1.28,0,0,0-1.78,0l-8.89,8.89a1.164,1.164,0,0,0-.37.88,1.185,1.185,0,0,0,.37.89l1.22,1.24a1.9,1.9,0,0,1,2.67,0,1.883,1.883,0,0,1,0,2.66l1.24,1.24a1.192,1.192,0,0,0,.88.36,1.214,1.214,0,0,0,.89-0.36l8.9-8.91a1.192,1.192,0,0,0,.36-0.88A1.214,1.214,0,0,0,1349.19,5478.72Zm-2.66,1.96-6.06,6.06a0.6,0.6,0,0,1-.44.18,0.573,0.573,0,0,1-.44-0.18l-3.56-3.55a0.628,0.628,0,0,1,0-.88l6.07-6.06a0.573,0.573,0,0,1,.44-0.18,0.6,0.6,0,0,1,.44.18l3.55,3.55A0.6,0.6,0,0,1,1346.53,5480.68Zm-3.99-3.54,3.1,3.1-5.61,5.61-3.1-3.1Z" transform="translate(-1333.03 -5473.25)"/>
</svg>
