<svg xmlns="http://www.w3.org/2000/svg" xmlns:xlink="http://www.w3.org/1999/xlink" width="23.313" height="23.813" viewBox="0 0 23.313 23.813">
  <metadata><?xpacket begin="﻿" id="W5M0MpCehiHzreSzNTczkc9d"?>
<x:xmpmeta xmlns:x="adobe:ns:meta/" x:xmptk="Adobe XMP Core 5.6-c142 79.160924, 2017/07/13-01:06:39        ">
   <rdf:RDF xmlns:rdf="http://www.w3.org/1999/02/22-rdf-syntax-ns#">
      <rdf:Description rdf:about=""/>
   </rdf:RDF>
</x:xmpmeta>
                                                                                                    
                                                                                                    
                                                                                                    
                                                                                                    
                                                                                                    
                                                                                                    
                                                                                                    
                                                                                                    
                                                                                                    
                                                                                                    
                                                                                                    
                                                                                                    
                                                                                                    
                                                                                                    
                                                                                                    
                                                                                                    
                                                                                                    
                                                                                                    
                                                                                                    
                                                                                                    
                           
<?xpacket end="w"?></metadata>
<defs>
    <style>
      .cls-1 {
        fill-rule: evenodd;
        filter: url(#filter);
      }
    </style>
    <filter id="filter" x="70.813" y="657.531" width="23.313" height="23.813" filterUnits="userSpaceOnUse">
      <feFlood result="flood" flood-color="#715625"/>
      <feComposite result="composite" operator="in" in2="SourceGraphic"/>
      <feBlend result="blend" in2="SourceGraphic"/>
    </filter>
  </defs>
  <path id="Фигура_1" data-name="Фигура 1" class="cls-1" d="M76.766,657.544h2v0.29H78.86V658.9h0.091v1.158h0.091v1.063h0.091v1.158h0.091v1.158h0.091v1.062h0.091v1.158H79.5v1.158h0.091v1.062h0.091v1.158H79.77q0.137,2.22.273,4.44l1.274,2.123a3.062,3.062,0,0,1,2.367.387l0.364,0.482,0.273,0.194v0.192l0.182,0.1v0.193h0.091v0.29A3.008,3.008,0,0,1,83.5,680.9H83.32V681l-0.364.1v0.1H82.592v0.1a2.182,2.182,0,0,1-1.365-.193H80.953V681l-0.364-.1-0.182-.289H80.225v-0.1l-0.273-.193V680.13l-0.273-.193-0.364-1.061a4.267,4.267,0,0,1,.364-2.028l0.182-.1v-0.193c0.032-.052.33-0.171,0.273-0.29H80.043l-0.091-.289H79.861v-0.193H79.77v-0.194l-0.182-.1V675.3l-0.182-.1v-0.194H79.315v-0.193l-0.182-.1-0.091-.29H76.493l-0.091.29c-0.06.033-.121,0.064-0.182,0.1l-0.091.387-0.182.1-0.091.386-0.182.1v0.193l-0.182.1-0.091.29h0.091l0.182,0.29h0.091v0.192h0.091l0.182,0.58h0.091v0.385H76.22a2.672,2.672,0,0,1-.273,1.738l-0.091.386-0.182.1v0.192l-0.182.1-0.273.386H75.037l-0.091.193H74.763V681l-0.455.1v0.1H73.944v0.1a2.452,2.452,0,0,1-1.73-.386H72.033a3.143,3.143,0,0,1,0-5.019h0.182v-0.1l0.364-.1v-0.1h0.364v-0.1c0.439-.138,1.084.136,1.274,0a2.4,2.4,0,0,0,.455-0.579v-0.193c0.061-.032.121-0.065,0.182-0.1v-0.194l0.182-.1,0.091-.385,0.182-.1,0.091-.386h0.091q0.091-1.641.182-3.282h0.091v-1.062h0.091v-1.158h0.091v-1.061h0.091v-1.159h0.091V664.59H76.22v-1.062h0.091V662.37H76.4v-1.158h0.091V660.15h0.091v-1.158h0.091v-1.158h0.091v-0.29Zm9.74,0h3.823a6.177,6.177,0,0,1,1.912.1v0.1h0.273v0.1H92.7l0.091,0.193h0.182l0.455,0.579,0.182,0.1c0.665,1,.455,3.145.455,4.825v11.486c0,1.742.24,4.072-.455,5.116l-0.546.483-0.091.193H92.787L92.7,681H92.514v0.1H92.241v0.1a6.241,6.241,0,0,1-1.912.1H86.506v-1.447h2.185V678.1H86.506v-1.447h2.185v-1.738H86.506V673.47h2.185v-1.737H86.506v-1.448h2.185v-1.737H86.506V667.1h2.185v-1.737H86.506v-1.448h2.185v-1.737H86.506V660.73h2.185v-1.738H86.506v-1.448Zm3.55,1.448v20.849h1.638v-0.1l0.455-.1,0.273-.386h0.091q0.045-.24.091-0.483H92.7v-14a32.829,32.829,0,0,0-.182-5.212l-0.546-.483A5.472,5.472,0,0,0,90.056,658.992Zm-13.2,14h1.821L77.858,662.37H77.767v0.1a3.636,3.636,0,0,0-.091,1.061H77.585v1.159H77.494v1.158H77.4v1.062H77.312v1.158H77.221v1.061H77.13v1.159H77.039v1.158H76.948Zm-4.369,6.467a4.035,4.035,0,0,1,.637.386h0.728v-0.1h0.273c0.03-.063.061-0.128,0.091-0.192H74.4l0.091-.193h0.091v-0.193l0.182-.1,0.091-1.061H74.763q-0.046-.243-0.091-0.483c-0.061-.032-0.121-0.065-0.182-0.1a1.4,1.4,0,0,0-1.365-.483v0.1H72.852l-0.091.193H72.579l-0.091.194H72.4v0.192l-0.182.1q-0.046.531-.091,1.061A1.631,1.631,0,0,1,72.488,679.455Zm8.557,0a4.043,4.043,0,0,1,.637.386H82.41v-0.1h0.273l0.091-.192a0.64,0.64,0,0,0,.455-0.483,1.662,1.662,0,0,0,.182-1.158c-0.164-.149-0.212-0.418-0.364-0.579s-0.4-.213-0.546-0.386a1.5,1.5,0,0,0-1.821,1.737h0.091v0.29h0.091v0.193h0.091Z" transform="translate(-70.813 -657.531)"/>
</svg>
