<svg id="Layer_1" data-name="Layer 1" xmlns="http://www.w3.org/2000/svg" viewBox="0 0 7.36 8.98"><defs><style>.cls-1{fill:#c3986b;}</style></defs><title>ВК</title><path id="Behance" class="cls-1" d="M134.35,377a2.39,2.39,0,0,1,.35,1.32,2.61,2.61,0,0,1-.4,1.43,2.49,2.49,0,0,1-1.65,1.16,6.27,6.27,0,0,1-1.27.12h-4v-9h4.34a2.76,2.76,0,0,1,2.33,1,2.28,2.28,0,0,1,.41,1.37,2,2,0,0,1-.41,1.32,2.09,2.09,0,0,1-.68.51A2,2,0,0,1,134.35,377Zm-4.94-1.41h1.9a1.83,1.83,0,0,0,.95-.22.86.86,0,0,0,.37-.79.8.8,0,0,0-.48-.83,3.38,3.38,0,0,0-1.06-.14h-1.67Zm3.4,2.6a1,1,0,0,0-.57-1,2.24,2.24,0,0,0-.9-.15h-1.93v2.39h1.9a2.09,2.09,0,0,0,.91-.16A1.13,1.13,0,0,0,132.81,378.19Z" transform="translate(-127.34 -372.04)"/></svg>