<svg xmlns="http://www.w3.org/2000/svg" width="23" height="23" viewBox="0 0 23 23">
  <metadata><?xpacket begin="﻿" id="W5M0MpCehiHzreSzNTczkc9d"?>
<x:xmpmeta xmlns:x="adobe:ns:meta/" x:xmptk="Adobe XMP Core 5.6-c142 79.160924, 2017/07/13-01:06:39        ">
   <rdf:RDF xmlns:rdf="http://www.w3.org/1999/02/22-rdf-syntax-ns#">
      <rdf:Description rdf:about=""/>
   </rdf:RDF>
</x:xmpmeta>
                                                                                                    
                                                                                                    
                                                                                                    
                                                                                                    
                                                                                                    
                                                                                                    
                                                                                                    
                                                                                                    
                                                                                                    
                                                                                                    
                                                                                                    
                                                                                                    
                                                                                                    
                                                                                                    
                                                                                                    
                                                                                                    
                                                                                                    
                                                                                                    
                                                                                                    
                                                                                                    
                           
<?xpacket end="w"?></metadata>
<defs>
    <style>
      .cls-1 {
        fill: #d5ac74;
        fill-rule: evenodd;
      }
    </style>
  </defs>
  <path id="Фигура_1" data-name="Фигура 1" class="cls-1" d="M216.516,32a11.234,11.234,0,0,1,3.22.269l0.805,0.09v0.09h0.269v0.09h0.357v0.089h0.179v0.09l0.537,0.09V32.9l0.537,0.179v0.09H222.6v0.089h0.179v0.089l0.536,0.18,0.09,0.179,0.357,0.09,0.09,0.18h0.179l0.179,0.269h0.179l0.179,0.269h0.178l0.537,0.627h0.179l0.268,0.359h0.09v0.18l0.626,0.538v0.179l0.268,0.179v0.179l0.269,0.179v0.179l0.179,0.09c0.029,0.119.059,0.239,0.089,0.358l0.179,0.09c0.03,0.12.06,0.239,0.089,0.359h0.09v0.179H227.7v0.179h0.09q0.088,0.269.179,0.538h0.089v0.268h0.09v0.179h0.089c0.06,0.27.119,0.538,0.179,0.807H228.5v0.269h0.09v0.359h0.089v0.448h0.09v0.448h0.089V42.49a6.053,6.053,0,0,1,.09,1.972h-0.09v0.807h-0.089l-0.09.9h-0.089v0.359H228.5v0.269h-0.089v0.269h-0.09V47.33h-0.089V47.6h-0.089v0.179h-0.09v0.269h-0.089c-0.06.179-.12,0.359-0.179,0.538H227.7v0.179h-0.089c-0.06.179-.119,0.359-0.179,0.538l-0.179.089c-0.03.12-.06,0.239-0.089,0.359l-0.179.09v0.179l-0.179.09-0.09.268-0.268.179v0.18l-0.537.448-0.447.628h-0.179l-0.537.627h-0.178l-0.179.269h-0.179l-0.179.269h-0.179l-0.09.179-0.357.09-0.09.18h-0.179v0.089h-0.179V53.6h-0.178v0.09H222.6v0.09H222.42v0.09l-0.537.179v0.09l-0.537.09v0.09h-0.268v0.089H220.81V54.5h-0.269v0.09h-0.358v0.089h-0.447v0.09h-0.447v0.09h-0.8v0.09a6.02,6.02,0,0,1-1.968-.09h-0.8V54.77l-0.9-.09V54.59h-0.357V54.5H214.19v-0.09h-0.268V54.322h-0.268v-0.09h-0.269v-0.09h-0.179v-0.09h-0.268v-0.09l-0.537-.179v-0.09h-0.179V53.6l-0.536-.178-0.09-.18-0.358-.09c-0.029-.06-0.059-0.119-0.089-0.179H210.97l-0.179-.269h-0.179l-0.179-.269h-0.179l-0.626-.716h-0.179v-0.09l-0.268-.179V51.274l-0.626-.538v-0.18l-0.268-.179V50.2l-0.269-.179V49.84l-0.179-.09c-0.03-.12-0.059-0.239-0.089-0.359l-0.179-.089-0.09-.359h-0.089V48.764H207.3V48.584h-0.09c-0.059-.178-0.119-0.358-0.179-0.538h-0.089V47.778h-0.09V47.6h-0.089c-0.06-.268-0.119-0.538-0.179-0.806H206.5V46.523h-0.09V46.164h-0.089V45.716h-0.09V45.268H206.14V44.461a6.052,6.052,0,0,1-.09-1.972h0.09V41.683h0.089l0.09-.9h0.089V40.428h0.09V40.159h0.089V39.89h0.089V39.621h0.09v-0.27h0.089V39.173h0.09V38.9h0.089q0.09-.269.179-0.538h0.09V38.187h0.089c0.06-.179.119-0.358,0.179-0.538l0.179-.09c0.03-.119.059-0.239,0.089-0.358l0.179-.09V36.932l0.269-.179V36.573l0.268-.179V36.215l0.626-.538V35.5l0.626-.448,0.447-.538h0.179l0.179-.269,0.269-.09c0.029-.06.059-0.12,0.089-0.179h0.179c0.03-.06.06-0.12,0.089-0.18l0.358-.09,0.09-.179,0.536-.18V33.257H212.4V33.168l0.537-.179V32.9l2.326-.717A5.207,5.207,0,0,0,216.516,32Zm0.089,1.344a4.822,4.822,0,0,1-1.252.18l-2.147.717v0.089h-0.179c-0.029.06-.059,0.12-0.089,0.18H212.67l-0.09.179-0.358.089c-0.029.06-.059,0.12-0.089,0.179h-0.179v0.09l-0.268.09-0.09.179h-0.179l-0.268.359a10.061,10.061,0,0,0-3.22,4.392v0.269h-0.09v0.269H207.75v0.358h-0.09v0.359h-0.089v0.538a8.147,8.147,0,0,0,.179,4.123v0.359h0.089l0.09,0.538h0.089v0.18h0.09V47.33H208.2l0.09,0.358h0.089v0.269h0.089v0.179h0.09v0.179l0.179,0.09c0.03,0.119.059,0.239,0.089,0.358L209,48.853v0.18h0.09c0.029,0.089.059,0.179,0.089,0.269l0.179,0.089v0.179l0.358,0.269v0.179l0.447,0.358,0.805,0.9h0.179l0.268,0.359H211.6l0.09,0.179,0.268,0.09V51.99h0.179l0.089,0.18H212.4v0.09h0.179v0.09h0.179v0.089h0.179c0.03,0.06.06,0.12,0.089,0.18H213.3v0.089l0.358,0.09v0.09h0.268v0.09H214.1v0.09l0.626,0.09v0.09H215v0.09h0.358v0.09l1.252,0.089a5.3,5.3,0,0,0,1.789.089V53.515h0.716V53.426h0.537v-0.09h0.358v-0.09h0.357v-0.09h0.269v-0.09H220.9a10.1,10.1,0,0,0,4.383-3.227l0.358-.269V49.391l0.179-.089c0.03-.09.06-0.18,0.089-0.269H226v-0.18l0.179-.09c0.059-.179.119-0.358,0.179-0.537l0.178-.09V47.957h0.09V47.688h0.089l0.09-.358h0.089V47.061h0.09v-0.18h0.089l0.09-.627h0.089V45.985h0.09V45.627h0.089V45.089a8.235,8.235,0,0,0-.268-4.392l-0.09-.628h-0.089V39.89h-0.09q-0.178-.537-0.358-1.075l-0.178-.09q-0.09-.269-0.179-0.538L226,38.1V37.918h-0.09c-0.029-.09-0.059-0.18-0.089-0.27l-0.179-.09V37.38l-0.358-.269V36.932l-0.894-.807c-0.12-.149-0.239-0.3-0.358-0.447h-0.179l-0.268-.359H223.4l-0.09-.179-0.268-.09V34.96h-0.179c-0.03-.059-0.06-0.119-0.089-0.179l-0.358-.089-0.09-.179h-0.179v-0.09h-0.179v-0.09H221.7V34.243h-0.179v-0.09l-0.358-.09V33.974l-0.536-.09A10.92,10.92,0,0,0,216.605,33.346Zm0.269,1.345h1.252a4.556,4.556,0,0,1,.09,1.344,4.533,4.533,0,0,1-1.342.09A2.664,2.664,0,0,1,216.874,34.691Zm-5.1,2.151a4.3,4.3,0,0,1,.984.986l-0.626.538c-0.09.119-.179,0.239-0.268,0.359a5.06,5.06,0,0,1-.984-0.986l0.178-.09Q211.418,37.247,211.775,36.842Zm11.36,0a4.265,4.265,0,0,1,.984.986l-0.626.538-0.268.359a5.06,5.06,0,0,1-.984-0.986l0.179-.09Zm-6.351.628h1.432v4.123a2.108,2.108,0,0,1,.8.628l0.179,0.09V42.49h0.089v0.179h0.089v0.09h0.09v0.09h2.773V44.1a10.234,10.234,0,0,1-2.863.089c-0.419.97-1.066,1.279-2.5,1.255-0.182-.209-0.585-0.317-0.805-0.538s-0.327-.624-0.537-0.806V42.848h0.089V42.668h0.09c0.03-.119.06-0.239,0.089-0.358l0.179-.09,0.269-.359,0.536-.269V37.47Zm-7.961,5.288h1.253a4.6,4.6,0,0,1,.089,1.345,4.534,4.534,0,0,1-1.342.089A2.666,2.666,0,0,1,208.823,42.758Zm16.1,0h1.253a4.6,4.6,0,0,1,.089,1.345,4.534,4.534,0,0,1-1.342.089A2.676,2.676,0,0,1,224.924,42.758Zm-7.782.09a1.248,1.248,0,0,0-.268.986,1.239,1.239,0,0,0,.984.269,1.247,1.247,0,0,0,.268-0.986A1.24,1.24,0,0,0,217.142,42.848Zm-5.367,5.378a4.318,4.318,0,0,1,.984.986l-0.626.538q-0.135.179-.268,0.359a5.051,5.051,0,0,1-.984-0.987l0.178-.089Zm11.36,0a4.278,4.278,0,0,1,.984.986l-0.626.538-0.268.359a5.051,5.051,0,0,1-.984-0.987l0.179-.089Zm-6.261,2.6h1.252a4.56,4.56,0,0,1,.09,1.345,4.533,4.533,0,0,1-1.342.09A2.666,2.666,0,0,1,216.874,50.825Z" transform="translate(-206 -32)"/>
</svg>
